<?xml version="1.0" standalone="no"?>
<!DOCTYPE svg PUBLIC "-//W3C//DTD SVG 1.1//EN" "http://www.w3.org/Graphics/SVG/1.1/DTD/svg11.dtd" >
<svg xmlns="http://www.w3.org/2000/svg" xmlns:xlink="http://www.w3.org/1999/xlink" version="1.1">
<metadata>
Created by FontForge 20201107 at Mon Oct  1 05:55:44 2012
 By 
Copyright (c) 2011 by Glenjan. All rights reserved.
</metadata>
<defs>
<font id="RoadRadio-Light" horiz-adv-x="697" >
  <font-face 
    font-family="RoadRadio"
    font-weight="300"
    font-stretch="normal"
    units-per-em="1000"
    panose-1="2 0 0 0 0 0 0 0 0 0"
    ascent="800"
    descent="-200"
    x-height="553"
    cap-height="553"
    bbox="-89 -265 1054 847"
    underline-thickness="50"
    underline-position="-200"
    unicode-range="U+0020-2212"
  />
<missing-glyph horiz-adv-x="329" 
d="M50 553h145q44 0 72.5 -27t28.5 -69q0 -58 -47 -82l37 -68h-59l-30 56h-91v-56h-56v246zM106 503v-90h87q47 0 47 44q0 21 -13 33.5t-34 12.5h-87zM50 246h145q44 0 72.5 -27t28.5 -69q0 -58 -47 -82l37 -68h-59l-30 56h-91v-56h-56v246zM106 196v-90h87q47 0 47 44
q0 21 -13 33.5t-34 12.5h-87z" />
    <glyph glyph-name=".notdef" horiz-adv-x="329" 
d="M50 553h145q44 0 72.5 -27t28.5 -69q0 -58 -47 -82l37 -68h-59l-30 56h-91v-56h-56v246zM106 503v-90h87q47 0 47 44q0 21 -13 33.5t-34 12.5h-87zM50 246h145q44 0 72.5 -27t28.5 -69q0 -58 -47 -82l37 -68h-59l-30 56h-91v-56h-56v246zM106 196v-90h87q47 0 47 44
q0 21 -13 33.5t-34 12.5h-87z" />
    <glyph glyph-name=".null" horiz-adv-x="0" 
 />
    <glyph glyph-name="nonmarkingreturn" horiz-adv-x="333" 
 />
    <glyph glyph-name="space" unicode=" " horiz-adv-x="317" 
 />
    <glyph glyph-name="exclam" unicode="!" horiz-adv-x="211" 
d="M68 172v459h75v-459h-75zM106 121q27 0 46.5 -19.5t19.5 -46.5q0 -28 -19.5 -47t-46.5 -19q-29 0 -48 19t-19 47q0 27 19.5 46.5t47.5 19.5z" />
    <glyph glyph-name="quotedbl" unicode="&#x22;" horiz-adv-x="258" 
d="M35 553h72v-77l-13 -109h-59v186zM151 553h72v-77l-13 -109h-59v186z" />
    <glyph glyph-name="numbersign" unicode="#" horiz-adv-x="410" 
d="M39 257h72l8 66h-80v63h88l10 80h63l-10 -80h66l10 80h64l-10 -80h72v-63h-80l-8 -66h88v-63h-96l-9 -81h-64l10 81h-66l-10 -81h-63l9 81h-64v63zM183 323l-8 -66h65l8 66h-65z" />
    <glyph glyph-name="dollar" unicode="$" horiz-adv-x="630" 
d="M283 -95l-6 82q-135 7 -238 77l39 62q113 -71 251 -71q86 0 135 26.5t49 75.5q0 75 -108 85l-178 20q-83 10 -127.5 43.5t-44.5 101.5q0 73 63 113t162 45l4 72h68l3 -73q120 -6 213 -68l-38 -55q-101 55 -225 55q-173 0 -173 -88q0 -35 25.5 -50t77.5 -21l176 -21
q86 -11 132.5 -50t46.5 -107q0 -79 -61.5 -122t-171.5 -49l-6 -83h-68z" />
    <glyph glyph-name="uni0025" unicode="%" horiz-adv-x="740" 
d="M501 557l60 -27l-319 -555l-60 27zM558 -9q-63 0 -106 40t-43 103t43 103.5t106 40.5q64 0 106.5 -40t42.5 -104t-42.5 -103.5t-106.5 -39.5zM558 51q37 0 60.5 22.5t23.5 60.5t-23.5 60.5t-60.5 22.5t-61 -22.5t-24 -60.5t24.5 -60.5t60.5 -22.5zM179 254
q-63 0 -106 40.5t-43 103.5t43 103.5t106 40.5q64 0 106.5 -40t42.5 -104t-42.5 -104t-106.5 -40zM179 315q37 0 60.5 22.5t23.5 60.5t-23.5 60.5t-60.5 22.5q-38 0 -61.5 -22.5t-23.5 -60.5t24 -60.5t61 -22.5z" />
    <glyph glyph-name="ampersand" unicode="&#x26;" 
d="M647 330v-51l-65 -16l62 -263h-42l-43 52q-109 -66 -242 -66q-124 0 -200 40q-81 48 -81 142q0 96 93 135q-52 32 -52 103q0 61 44 100q69 60 221 60q137 0 246 -58l-35 -60q-93 48 -213 48q-184 0 -184 -93q0 -73 74 -73h417zM311 56q118 0 227 59l-36 146h-275
q-52 0 -81.5 -24.5t-29.5 -64.5q0 -58 51.5 -87t143.5 -29z" />
    <glyph glyph-name="quotesingle" unicode="'" horiz-adv-x="142" 
d="M35 553h72v-77l-13 -109h-59v186z" />
    <glyph glyph-name="parenleft" unicode="(" horiz-adv-x="212" 
d="M112 603l64 -17q-51 -151 -51 -310q0 -157 51 -310l-64 -16q-61 153 -61 327q0 178 61 326z" />
    <glyph glyph-name="parenright" unicode=")" horiz-adv-x="212" 
d="M37 586l64 17q61 -148 61 -326q0 -176 -60 -327l-65 16q51 153 51 310q0 159 -51 310z" />
    <glyph glyph-name="asterisk" unicode="*" horiz-adv-x="349" 
d="M143 496l7 95h49l6 -96l85 45l24 -44l-80 -53l80 -51l-25 -43l-84 44l-6 -96h-50l-6 95l-83 -43l-25 43l80 51l-80 53l24 43z" />
    <glyph glyph-name="plus" unicode="+" horiz-adv-x="412" 
d="M37 318h132v130h72v-130h133v-68h-133v-128h-72v128h-132v68z" />
    <glyph glyph-name="comma" unicode="," horiz-adv-x="209" 
d="M66 -96l17 90q-20 6 -32.5 23t-12.5 39q0 28 18.5 47t49.5 19q27 0 46 -18.5t19 -47.5q0 -10 -4 -26l-54 -137z" />
    <glyph glyph-name="hyphen" unicode="-" horiz-adv-x="395" 
d="M40 318h315v-70h-315v70z" />
    <glyph glyph-name="period" unicode="." horiz-adv-x="214" 
d="M107 123q28 0 48 -19.5t20 -47.5t-19.5 -47t-48.5 -19q-28 0 -47.5 19t-19.5 47t19.5 47.5t47.5 19.5z" />
    <glyph glyph-name="slash" unicode="/" horiz-adv-x="313" 
d="M223 593l69 -21l-205 -609l-68 20z" />
    <glyph glyph-name="zero" unicode="0" horiz-adv-x="661" 
d="M117 276q0 -102 59.5 -161t153.5 -59t154 59t60 161t-60 161t-154 59t-153.5 -59t-59.5 -161zM622 276q0 -131 -83 -210.5t-209 -79.5q-125 0 -208.5 79.5t-83.5 210.5t83.5 210.5t208.5 79.5q126 0 209 -79.5t83 -210.5z" />
    <glyph glyph-name="one" unicode="1" horiz-adv-x="274" 
d="M29 553h188v-553h-79v482h-109v71z" />
    <glyph glyph-name="two" unicode="2" horiz-adv-x="571" 
d="M522 72v-72h-469v85l340 197q66 37 66 101q0 52 -42.5 81.5t-127.5 29.5q-113 0 -199 -76l-47 51q100 97 248 97q112 0 179 -46t67 -138q0 -98 -102 -156l-268 -154h355z" />
    <glyph glyph-name="three" unicode="3" horiz-adv-x="624" 
d="M206 336h188q80 0 80 70q0 46 -41 68.5t-133 22.5q-62 0 -108 -13.5t-97 -45.5l-36 59q109 69 241 69q113 0 179 -37q73 -41 73 -120q0 -69 -60 -99q47 -13 72.5 -49t25.5 -85q0 -79 -71 -134q-73 -56 -225 -56q-150 0 -263 74l37 62q60 -36 111 -51t121 -15
q102 0 156.5 31t54.5 90q0 44 -24.5 67t-85.5 23h-195v69z" />
    <glyph glyph-name="four" unicode="4" horiz-adv-x="629" 
d="M368 553h164v-388h63v-71h-63v-94h-78v94h-423v74zM400 483l-274 -318h328v318h-54z" />
    <glyph glyph-name="five" unicode="5" horiz-adv-x="599" 
d="M144 259l-67 5l17 289h423v-71h-353l-10 -150q73 31 173 31q109 0 171.5 -48.5t62.5 -133.5q0 -94 -74 -144.5t-200 -50.5q-153 0 -262 71l37 62q60 -35 110.5 -48.5t125.5 -13.5q93 0 138.5 35t45.5 89q0 113 -176 113q-86 0 -162 -35z" />
    <glyph glyph-name="six" unicode="6" horiz-adv-x="630" 
d="M563 515l-33 -62q-49 24 -89.5 33.5t-97.5 9.5q-93 0 -150.5 -49t-66.5 -144q55 29 102.5 40.5t116.5 11.5q104 0 172 -44.5t68 -136.5q0 -86 -71 -137t-190 -51q-136 0 -205 77.5t-69 213.5q0 126 82 207.5t211 81.5q121 0 220 -51zM127 237q7 -94 57 -137t152 -43
q84 0 127.5 31.5t43.5 86.5q0 58 -42 83.5t-135 25.5q-108 0 -203 -47z" />
    <glyph glyph-name="seven" unicode="7" horiz-adv-x="563" 
d="M238 0h-91l295 482h-407v71h497v-67z" />
    <glyph glyph-name="eight" unicode="8" horiz-adv-x="645" 
d="M323 566q124 0 182 -43t58 -108q0 -78 -66 -110q109 -34 109 -143q0 -83 -74.5 -129.5t-208.5 -46.5q-135 0 -209.5 46t-74.5 133q0 47 29.5 87.5t78.5 57.5q-64 31 -64 104q0 77 69 114.5t171 37.5zM440 250l-229 25q-45 -11 -68.5 -40t-23.5 -66q0 -52 49.5 -82.5
t154.5 -30.5q101 0 152.5 30t51.5 81q0 74 -87 83zM249 343l183 -19q53 33 53 82q0 46 -38 68.5t-124 22.5q-162 0 -162 -84q0 -32 21 -48t67 -22z" />
    <glyph glyph-name="nine" unicode="9" horiz-adv-x="630" 
d="M69 35l32 63q48 -24 88.5 -33t99.5 -9q199 0 217 192q-58 -29 -105.5 -42t-113.5 -13q-107 0 -173 44t-66 138q0 86 70.5 138.5t189.5 52.5q136 0 205.5 -77.5t69.5 -213.5q0 -128 -80 -208.5t-214 -80.5q-123 0 -220 49zM505 314q-8 95 -57 138.5t-150 43.5
q-83 0 -128 -33.5t-45 -88.5q0 -58 42.5 -83.5t135.5 -25.5q104 0 202 49z" />
    <glyph glyph-name="colon" unicode=":" horiz-adv-x="211" 
d="M106 420q28 0 47 -19t19 -47q0 -27 -19 -46t-47 -19t-47 19t-19 46q0 28 19 47t47 19zM106 120q28 0 47 -19t19 -46q0 -28 -19 -46t-47 -18t-47 18t-19 46q0 27 19 46t47 19z" />
    <glyph glyph-name="semicolon" unicode=";" horiz-adv-x="210" 
d="M105 420q28 0 47 -19t19 -47q0 -27 -19 -46t-47 -19t-47 19t-19 46q0 28 19 47t47 19zM107 120q27 0 46 -19t19 -47q0 -11 -5 -24l-53 -137l-46 11l16 88q-20 6 -32 23t-12 39q0 28 19.5 47t47.5 19z" />
    <glyph glyph-name="less" unicode="&#x3c;" horiz-adv-x="265" 
d="M191 441l44 -43l-108 -126l108 -125l-44 -43l-168 168z" />
    <glyph glyph-name="equal" unicode="=" horiz-adv-x="381" 
d="M40 378h300v-67h-300v67zM40 246h300v-67h-300v67z" />
    <glyph glyph-name="greater" unicode="&#x3e;" horiz-adv-x="265" 
d="M74 441l168 -169l-168 -168l-44 43l109 125l-109 126z" />
    <glyph glyph-name="question" unicode="?" horiz-adv-x="575" 
d="M292 122q28 0 47.5 -19t19.5 -48q0 -28 -19 -46t-48 -18q-28 0 -47.5 18.5t-19.5 45.5q0 28 19.5 47.5t47.5 19.5zM253 174v62q0 33 21 62.5t61 41.5l42 12q97 30 97 113q0 116 -167 116q-135 0 -223 -76l-38 56q101 91 260 91q115 0 181.5 -47t66.5 -144
q0 -59 -35.5 -104t-99.5 -64l-43 -13q-45 -13 -45 -57v-49h-78z" />
    <glyph glyph-name="at" unicode="@" horiz-adv-x="705" 
d="M442 288v68q-34 24 -87 24q-42 0 -66.5 -24t-24.5 -65q0 -40 25.5 -62.5t63.5 -22.5q36 0 62.5 21.5t26.5 60.5zM508 384v-113q0 -61 43 -61q26 0 40 23t14 61q0 109 -63 174t-186 65q-109 0 -177.5 -64.5t-68.5 -173.5q0 -111 71 -178.5t192 -67.5q88 0 158 37l27 -51
q-78 -49 -186 -49q-154 0 -243 84.5t-89 224.5q0 137 91 219.5t225 82.5q145 0 230.5 -84.5t85.5 -218.5q0 -62 -34 -105.5t-89 -43.5t-84 51q-46 -55 -115 -55q-67 0 -111 41.5t-44 108.5t45 109t113 42q90 0 155 -58z" />
    <glyph glyph-name="A" unicode="A" horiz-adv-x="731" 
d="M326 482l-136 -320h350l-132 320h-82zM278 553h181l235 -553h-82l-39 90h-413l-39 -90h-84z" />
    <glyph glyph-name="B" unicode="B" horiz-adv-x="648" 
d="M57 553h350q74 0 120.5 -38t46.5 -100q0 -72 -51 -108q43 -17 67 -53.5t24 -85.5q0 -71 -51 -119.5t-134 -48.5h-372v553zM135 481v-155h284q37 0 57.5 22t20.5 54q0 79 -97 79h-265zM135 256v-184h290q54 0 82.5 27t28.5 68t-26 65t-69 24h-306z" />
    <glyph glyph-name="C" unicode="C" horiz-adv-x="651" 
d="M614 436l-63 -37q-72 95 -208 95q-102 0 -163 -59.5t-61 -157.5q0 -96 62.5 -158t161.5 -62q133 0 208 97l64 -37q-92 -131 -269 -131q-135 0 -220.5 79t-85.5 212q0 132 86.5 210.5t219.5 78.5q179 0 268 -130z" />
    <glyph glyph-name="D" unicode="D" horiz-adv-x="666" 
d="M57 553h273q125 0 210.5 -75t85.5 -201q0 -125 -87 -201t-209 -76h-273v553zM135 482v-410h190q101 0 162 56t61 149t-61 149t-162 56h-190z" />
    <glyph glyph-name="E" unicode="E" horiz-adv-x="608" 
d="M57 553h488v-71h-410v-163h368v-71h-368v-176h425v-72h-503v553z" />
    <glyph glyph-name="F" unicode="F" horiz-adv-x="590" 
d="M57 0v553h489v-71h-411v-178h368v-71h-368v-233h-78z" />
    <glyph glyph-name="G" unicode="G" horiz-adv-x="685" 
d="M401 308h227v-308h-52l-13 60q-87 -74 -217 -74q-135 0 -220.5 79t-85.5 212q0 132 86.5 210.5t219.5 78.5q175 0 268 -126l-63 -37q-71 91 -207 91q-103 0 -164 -59.5t-61 -157.5q0 -96 63 -157.5t162 -61.5q134 0 209 81v98l-152 6v65z" />
    <glyph glyph-name="H" unicode="H" horiz-adv-x="667" 
d="M57 553h78v-230h397v230h79v-553h-79v251h-397v-251h-78v553z" />
    <glyph glyph-name="I" unicode="I" horiz-adv-x="192" 
d="M57 553h78v-553h-78v553z" />
    <glyph glyph-name="J" unicode="J" horiz-adv-x="597" 
d="M462 553h78v-318q0 -114 -64 -181.5t-197 -67.5q-83 0 -146.5 34.5t-98.5 100.5l67 37q27 -49 74.5 -75t102.5 -26q102 0 143 48t41 141v307z" />
    <glyph glyph-name="K" unicode="K" horiz-adv-x="639" 
d="M57 553h78v-223h223l154 223h91l-175 -255l190 -298h-93l-164 258h-226v-258h-78v553z" />
    <glyph glyph-name="L" unicode="L" horiz-adv-x="578" 
d="M57 553h78v-481h414v-72h-492v553z" />
    <glyph glyph-name="M" unicode="M" horiz-adv-x="845" 
d="M56 553h130l237 -467h5l232 467h128v-553h-79v466h-15l-232 -466h-77l-237 466h-15v-466h-77v553z" />
    <glyph glyph-name="N" unicode="N" horiz-adv-x="679" 
d="M57 553h86l402 -450v450h77v-553h-87l-401 451v-451h-77v553z" />
    <glyph glyph-name="O" unicode="O" 
d="M119 276q1 -102 65.5 -161t164.5 -59q99 0 164 59.5t65 160.5t-65 160.5t-164 59.5q-100 0 -164.5 -59t-65.5 -161zM657 276q0 -129 -87.5 -209.5t-220.5 -80.5t-220.5 80.5t-87.5 209.5t87.5 209.5t220.5 80.5t220.5 -80.5t87.5 -209.5z" />
    <glyph glyph-name="P" unicode="P" horiz-adv-x="637" 
d="M57 553h322q95 0 159 -58.5t64 -151.5q0 -94 -64 -151.5t-159 -57.5h-244v-134h-78v553zM135 481v-275h243q66 0 106 36.5t40 100.5q0 63 -40.5 100.5t-105.5 37.5h-243z" />
    <glyph glyph-name="Q" unicode="Q" 
d="M646 29l-51 -52l-63 61q-79 -52 -183 -52q-133 0 -220.5 80.5t-87.5 209.5t87.5 209.5t220.5 80.5t220.5 -80.5t87.5 -209.5q0 -113 -69 -190zM471 204l64 -64q43 56 43 136q0 101 -65 160.5t-164 59.5q-100 0 -165 -59t-65 -161t65 -161t165 -59q75 0 130 35l-60 61z
" />
    <glyph glyph-name="R" unicode="R" horiz-adv-x="639" 
d="M57 553h322q95 0 159 -58.5t64 -151.5q0 -67 -33 -115.5t-89 -72.5l88 -155h-86l-75 134h-272v-134h-78v553zM135 481v-275h243q66 0 106 36.5t40 100.5q0 63 -40.5 100.5t-105.5 37.5h-243z" />
    <glyph glyph-name="S" unicode="S" horiz-adv-x="630" 
d="M568 496l-38 -58q-99 58 -225 58q-173 0 -173 -89q0 -35 25.5 -50t77.5 -21l176 -21q179 -22 179 -157q0 -86 -73.5 -129t-202.5 -43q-160 0 -275 78l39 63q58 -39 116 -55.5t135 -16.5q86 0 135 26t49 75q0 39 -26.5 59.5t-81.5 25.5l-178 20q-83 10 -127.5 43.5
t-44.5 101.5q0 79 70.5 119.5t179.5 40.5q81 0 142.5 -15t120.5 -55z" />
    <glyph glyph-name="T" unicode="T" horiz-adv-x="629" 
d="M30 553h569v-72h-245v-481h-79v481h-245v72z" />
    <glyph glyph-name="U" unicode="U" horiz-adv-x="661" 
d="M52 553h78v-284q0 -99 50 -155.5t151 -56.5q100 0 150 56.5t50 155.5v284h79v-283q0 -135 -75 -209.5t-204 -74.5q-130 0 -204.5 74t-74.5 210v283z" />
    <glyph glyph-name="V" unicode="V" horiz-adv-x="701" 
d="M30 553h86l207 -480h53l208 480h87l-246 -553h-152z" />
    <glyph glyph-name="W" unicode="W" horiz-adv-x="1009" 
d="M30 553h84l161 -482h27l141 482h118l146 -482h28l161 482h82l-194 -553h-133l-140 471h-19l-137 -471h-132z" />
    <glyph glyph-name="X" unicode="X" horiz-adv-x="659" 
d="M48 553h92l160 -232h58l163 232h89l-187 -261l207 -292h-93l-175 248h-65l-176 -248h-92l207 289z" />
    <glyph glyph-name="Y" unicode="Y" horiz-adv-x="671" 
d="M30 553h91l209 -332h15l205 332h91l-267 -415v-138h-78v138z" />
    <glyph glyph-name="Z" unicode="Z" horiz-adv-x="605" 
d="M53 553h499v-71l-412 -414l214 4h211v-72h-525v72l416 412l-196 -3h-207v72z" />
    <glyph glyph-name="bracketleft" unicode="[" horiz-adv-x="189" 
d="M40 644h141v-65h-64v-607h64v-64h-141v736z" />
    <glyph glyph-name="backslash" unicode="\" horiz-adv-x="313" 
d="M19 572l69 21l204 -610l-68 -20z" />
    <glyph glyph-name="bracketright" unicode="]" horiz-adv-x="189" 
d="M9 644h140v-736h-140v64h63v608h-63v64z" />
    <glyph glyph-name="asciicircum" unicode="^" horiz-adv-x="360" 
d="M179 583l153 -151l-42 -44l-111 98l-110 -98l-42 44z" />
    <glyph glyph-name="underscore" unicode="_" horiz-adv-x="490" 
d="M10 -66h470v-66h-470v66z" />
    <glyph glyph-name="grave" unicode="`" horiz-adv-x="208" 
d="M110 814l48 -185l-65 -16l-52 184z" />
    <glyph glyph-name="a" unicode="a" horiz-adv-x="731" 
d="M326 482l-136 -320h350l-132 320h-82zM278 553h181l235 -553h-82l-39 90h-413l-39 -90h-84z" />
    <glyph glyph-name="b" unicode="b" horiz-adv-x="648" 
d="M57 553h350q74 0 120.5 -38t46.5 -100q0 -72 -51 -108q43 -17 67 -53.5t24 -85.5q0 -71 -51 -119.5t-134 -48.5h-372v553zM135 481v-155h284q37 0 57.5 22t20.5 54q0 79 -97 79h-265zM135 256v-184h290q54 0 82.5 27t28.5 68t-26 65t-69 24h-306z" />
    <glyph glyph-name="c" unicode="c" horiz-adv-x="651" 
d="M614 436l-63 -37q-72 95 -208 95q-102 0 -163 -59.5t-61 -157.5q0 -96 62.5 -158t161.5 -62q133 0 208 97l64 -37q-92 -131 -269 -131q-135 0 -220.5 79t-85.5 212q0 132 86.5 210.5t219.5 78.5q179 0 268 -130z" />
    <glyph glyph-name="d" unicode="d" horiz-adv-x="666" 
d="M57 553h273q125 0 210.5 -75t85.5 -201q0 -125 -87 -201t-209 -76h-273v553zM135 482v-410h190q101 0 162 56t61 149t-61 149t-162 56h-190z" />
    <glyph glyph-name="e" unicode="e" horiz-adv-x="608" 
d="M57 553h488v-71h-410v-163h368v-71h-368v-176h425v-72h-503v553z" />
    <glyph glyph-name="f" unicode="f" horiz-adv-x="590" 
d="M57 0v553h489v-71h-411v-178h368v-71h-368v-233h-78z" />
    <glyph glyph-name="g" unicode="g" horiz-adv-x="685" 
d="M401 308h227v-308h-52l-13 60q-87 -74 -217 -74q-135 0 -220.5 79t-85.5 212q0 132 86.5 210.5t219.5 78.5q175 0 268 -126l-63 -37q-71 91 -207 91q-103 0 -164 -59.5t-61 -157.5q0 -96 63 -157.5t162 -61.5q134 0 209 81v98l-152 6v65z" />
    <glyph glyph-name="h" unicode="h" horiz-adv-x="667" 
d="M57 553h78v-230h397v230h79v-553h-79v251h-397v-251h-78v553z" />
    <glyph glyph-name="i" unicode="i" horiz-adv-x="192" 
d="M57 553h78v-553h-78v553z" />
    <glyph glyph-name="j" unicode="j" horiz-adv-x="597" 
d="M462 553h78v-318q0 -114 -64 -181.5t-197 -67.5q-83 0 -146.5 34.5t-98.5 100.5l67 37q27 -49 74.5 -75t102.5 -26q102 0 143 48t41 141v307z" />
    <glyph glyph-name="k" unicode="k" horiz-adv-x="639" 
d="M57 553h78v-223h223l154 223h91l-175 -255l190 -298h-93l-164 258h-226v-258h-78v553z" />
    <glyph glyph-name="l" unicode="l" horiz-adv-x="578" 
d="M57 553h78v-481h414v-72h-492v553z" />
    <glyph glyph-name="m" unicode="m" horiz-adv-x="845" 
d="M56 553h130l237 -467h5l232 467h128v-553h-79v466h-15l-232 -466h-77l-237 466h-15v-466h-77v553z" />
    <glyph glyph-name="n" unicode="n" horiz-adv-x="679" 
d="M57 553h86l402 -450v450h77v-553h-87l-401 451v-451h-77v553z" />
    <glyph glyph-name="o" unicode="o" 
d="M119 276q1 -102 65.5 -161t164.5 -59q99 0 164 59.5t65 160.5t-65 160.5t-164 59.5q-100 0 -164.5 -59t-65.5 -161zM657 276q0 -129 -87.5 -209.5t-220.5 -80.5t-220.5 80.5t-87.5 209.5t87.5 209.5t220.5 80.5t220.5 -80.5t87.5 -209.5z" />
    <glyph glyph-name="p" unicode="p" horiz-adv-x="636" 
d="M57 553h322q95 0 159 -58.5t64 -151.5q0 -94 -64 -151.5t-159 -57.5h-244v-134h-78v553zM135 481v-275h243q66 0 106 36.5t40 100.5q0 63 -40.5 100.5t-105.5 37.5h-243z" />
    <glyph glyph-name="q" unicode="q" 
d="M646 29l-51 -52l-63 61q-79 -52 -183 -52q-133 0 -220.5 80.5t-87.5 209.5t87.5 209.5t220.5 80.5t220.5 -80.5t87.5 -209.5q0 -113 -69 -190zM471 204l64 -64q43 56 43 136q0 101 -65 160.5t-164 59.5q-100 0 -165 -59t-65 -161t65 -161t165 -59q75 0 130 35l-60 61z
" />
    <glyph glyph-name="r" unicode="r" horiz-adv-x="639" 
d="M57 553h322q95 0 159 -58.5t64 -151.5q0 -67 -33 -115.5t-89 -72.5l88 -155h-86l-75 134h-272v-134h-78v553zM135 481v-275h243q66 0 106 36.5t40 100.5q0 63 -40.5 100.5t-105.5 37.5h-243z" />
    <glyph glyph-name="s" unicode="s" horiz-adv-x="630" 
d="M568 496l-38 -58q-99 58 -225 58q-173 0 -173 -89q0 -35 25.5 -50t77.5 -21l176 -21q179 -22 179 -157q0 -86 -73.5 -129t-202.5 -43q-160 0 -275 78l39 63q58 -39 116 -55.5t135 -16.5q86 0 135 26t49 75q0 39 -26.5 59.5t-81.5 25.5l-178 20q-83 10 -127.5 43.5
t-44.5 101.5q0 79 70.5 119.5t179.5 40.5q81 0 142.5 -15t120.5 -55z" />
    <glyph glyph-name="t" unicode="t" horiz-adv-x="629" 
d="M30 553h569v-72h-245v-481h-79v481h-245v72z" />
    <glyph glyph-name="u" unicode="u" horiz-adv-x="661" 
d="M52 553h78v-284q0 -99 50 -155.5t151 -56.5q100 0 150 56.5t50 155.5v284h79v-283q0 -135 -75 -209.5t-204 -74.5q-130 0 -204.5 74t-74.5 210v283z" />
    <glyph glyph-name="v" unicode="v" horiz-adv-x="701" 
d="M30 553h86l207 -480h53l208 480h87l-246 -553h-152z" />
    <glyph glyph-name="w" unicode="w" horiz-adv-x="1008" 
d="M30 553h84l161 -482h27l141 482h118l146 -482h28l161 482h82l-194 -553h-133l-140 471h-19l-137 -471h-132z" />
    <glyph glyph-name="x" unicode="x" horiz-adv-x="659" 
d="M48 553h92l160 -232h58l163 232h89l-187 -261l207 -292h-93l-175 248h-65l-176 -248h-92l207 289z" />
    <glyph glyph-name="y" unicode="y" horiz-adv-x="671" 
d="M30 553h91l209 -332h15l205 332h91l-267 -415v-138h-78v138z" />
    <glyph glyph-name="z" unicode="z" horiz-adv-x="605" 
d="M53 553h499v-71l-412 -414l214 4h211v-72h-525v72l416 412l-196 -3h-207v72z" />
    <glyph glyph-name="braceleft" unicode="{" horiz-adv-x="257" 
d="M252 -29v-68h-43q-49 0 -80.5 33t-31.5 86v157q0 25 -14 43t-37 18h-25v71h25q23 0 37 18t14 43v157q0 53 31.5 85.5t80.5 32.5h43v-67h-29q-50 0 -50 -51v-160q0 -66 -49 -94q49 -28 49 -93v-160q0 -51 50 -51h29z" />
    <glyph glyph-name="bar" unicode="|" horiz-adv-x="189" 
d="M132 586v-620h-75v620h75z" />
    <glyph glyph-name="braceright" unicode="}" horiz-adv-x="257" 
d="M5 -97v68h29q50 0 50 51v160q0 65 48 93q-48 28 -48 94v160q0 51 -50 51h-29v67h42q50 0 81.5 -32.5t31.5 -85.5v-157q0 -25 14 -43t37 -18h25v-71h-25q-23 0 -37 -18t-14 -43v-157q0 -53 -31.5 -86t-81.5 -33h-42z" />
    <glyph glyph-name="asciitilde" unicode="~" horiz-adv-x="435" 
d="M367 329l34 -41q-39 -56 -113 -56q-28 0 -71.5 19t-68.5 19q-52 0 -84 -41l-39 39q46 66 124 66q38 0 78.5 -18t61.5 -18q48 0 78 31z" />
    <glyph glyph-name="exclamdown" unicode="&#xa1;" horiz-adv-x="211" 
d="M142 381v-459h-75v459h75zM104 432q-27 0 -46.5 19.5t-19.5 46.5q0 28 19.5 47t46.5 19q29 0 48 -19t19 -47q0 -27 -19.5 -46.5t-47.5 -19.5z" />
    <glyph glyph-name="cent" unicode="&#xa2;" horiz-adv-x="637" 
d="M304 610h68l4 -67q140 -13 224 -125l-62 -36q-72 92 -202 92q-100 0 -159 -56.5t-59 -151.5q0 -92 60.5 -150.5t157.5 -58.5q127 0 203 93l62 -37q-86 -113 -224 -124l-3 -81h-69l-5 81q-116 11 -188 85.5t-72 191.5t72.5 191t187.5 86z" />
    <glyph glyph-name="brokenbar" unicode="&#xa6;" horiz-adv-x="189" 
d="M132 300h-75v286h75v-286zM132 -34h-75v286h75v-286z" />
    <glyph glyph-name="section" unicode="&#xa7;" horiz-adv-x="589" 
d="M492 636l-34 -58q-76 39 -157 39q-141 0 -141 -77q0 -30 19.5 -46.5t61.5 -23.5l109 -16q89 -13 139 -56t50 -115q0 -94 -97 -143q64 -34 64 -115q0 -72 -64 -110t-167 -38q-71 0 -118.5 12t-98.5 41l32 60q86 -45 187 -45q76 0 114.5 23t38.5 60q0 33 -18.5 48.5
t-62.5 22.5l-119 19q-190 30 -190 172q0 47 26.5 86t73.5 61q-57 36 -57 105q0 70 65 107t150 37q112 0 194 -50zM358 377l-159 24q-79 -31 -79 -102q0 -88 100 -104l145 -23q94 32 94 107q0 84 -101 98z" />
    <glyph glyph-name="dieresis" unicode="&#xa8;" horiz-adv-x="449" 
d="M106 740q25 0 42.5 -17t17.5 -41t-18 -41.5t-42 -17.5t-42 17.5t-18 41.5t17.5 41t42.5 17zM343 740q25 0 42.5 -17t17.5 -41t-17.5 -41.5t-42.5 -17.5q-24 0 -41.5 17.5t-17.5 41.5t17 41t42 17z" />
    <glyph glyph-name="copyright" unicode="&#xa9;" horiz-adv-x="725" 
d="M25 291q0 143 97.5 233.5t239.5 90.5t240 -90.5t98 -233.5t-98 -233.5t-240 -90.5t-239.5 90.5t-97.5 233.5zM516 397l-39 -41q-42 45 -110 45q-54 0 -84 -28t-30 -81q0 -51 30.5 -80t83.5 -29q68 0 110 45l39 -41q-60 -63 -149 -63q-77 0 -129 46t-52 122q0 77 52 123
t129 46q92 0 149 -64zM632 291q0 115 -76.5 187t-192.5 72t-192 -71.5t-76 -187.5t76 -187.5t192 -71.5t192.5 72t76.5 187z" />
    <glyph glyph-name="guillemotleft" unicode="&#xab;" horiz-adv-x="393" 
d="M186 451l42 -41l-107 -126l107 -126l-42 -41l-165 167zM327 445l42 -41l-101 -120l101 -119l-42 -41l-159 160z" />
    <glyph glyph-name="uni00AD" unicode="&#xad;" horiz-adv-x="395" 
d="M40 318h315v-70h-315v70z" />
    <glyph glyph-name="registered" unicode="&#xae;" horiz-adv-x="465" 
d="M81 416q0 -63 42.5 -105t108.5 -42t109 42t43 105q0 62 -44.5 104t-107.5 42q-66 0 -108.5 -41.5t-42.5 -104.5zM148 509h107q34 0 56 -19.5t22 -47.5q0 -40 -36 -59l32 -54h-51l-23 43h-60v-43h-47v180zM195 468v-55h62q30 0 30 28q0 27 -30 27h-62zM30 415
q0 84 58.5 140t143.5 56q84 0 143.5 -56t59.5 -140t-58.5 -139.5t-144.5 -55.5q-85 0 -143.5 56t-58.5 139z" />
    <glyph glyph-name="macron" unicode="&#xaf;" horiz-adv-x="427" 
d="M40 702h348v-66h-348v66z" />
    <glyph glyph-name="degree" unicode="&#xb0;" horiz-adv-x="346" 
d="M169 299q-59 0 -99.5 36.5t-40.5 95.5t40.5 95.5t99.5 36.5q60 0 100 -36.5t40 -95.5t-40 -95.5t-100 -36.5zM169 357q33 0 54 20t21 54t-20.5 53.5t-54.5 19.5t-55 -19.5t-21 -53.5t21 -54t55 -20z" />
    <glyph glyph-name="plusminus" unicode="&#xb1;" horiz-adv-x="412" 
d="M37 389h132v130h72v-130h133v-68h-133v-129h-72v129h-132v68zM41 147h330v-67h-330v67z" />
    <glyph glyph-name="acute" unicode="&#xb4;" horiz-adv-x="205" 
d="M41 629l48 185l69 -17l-51 -184z" />
    <glyph glyph-name="paragraph" unicode="&#xb6;" horiz-adv-x="525" 
d="M488 651l3 -50l-87 -24v-577h-66v584h-66v-584h-67v349q-65 0 -109 44.5t-44 107.5q0 62 44 106t109 44h283z" />
    <glyph glyph-name="periodcentered" unicode="&#xb7;" horiz-adv-x="211" 
d="M104 366q28 0 47 -19.5t19 -46.5q0 -28 -19 -46.5t-47 -18.5q-27 0 -46 18.5t-19 46.5q0 27 19 46.5t46 19.5z" />
    <glyph glyph-name="cedilla" unicode="&#xb8;" horiz-adv-x="238" 
d="M72 12l59 -5v-49q97 -5 97 -86q0 -47 -37.5 -72t-94.5 -25q-44 0 -82 19l17 49q31 -14 67 -14q66 0 66 43q0 35 -51 35h-45l-6 6z" />
    <glyph glyph-name="guillemotright" unicode="&#xbb;" horiz-adv-x="393" 
d="M164 410l41 41l166 -167l-166 -167l-41 41l107 126zM23 404l42 41l158 -161l-158 -160l-42 41l100 119z" />
    <glyph glyph-name="questiondown" unicode="&#xbf;" horiz-adv-x="575" 
d="M317 431q-29 0 -48 19.5t-19 47.5t19 46t48 18q28 0 47.5 -18.5t19.5 -45.5q0 -28 -19.5 -47.5t-47.5 -19.5zM356 379v-62q0 -33 -21 -62.5t-61 -41.5l-42 -12q-97 -30 -97 -113q0 -116 167 -116q135 0 223 76l38 -56q-101 -91 -260 -91q-115 0 -181.5 47t-66.5 144
q0 59 35.5 104t99.5 64l43 13q45 13 45 57v49h78z" />
    <glyph glyph-name="Agrave" unicode="&#xc0;" horiz-adv-x="731" 
d="M326 482l-136 -320h350l-132 320h-82zM278 553h181l235 -553h-82l-39 90h-413l-39 -90h-84zM355 814l48 -185l-65 -16l-52 184z" />
    <glyph glyph-name="Aacute" unicode="&#xc1;" horiz-adv-x="731" 
d="M326 482l-136 -320h350l-132 320h-82zM278 553h181l235 -553h-82l-39 90h-413l-39 -90h-84zM339 630l48 185l69 -17l-51 -184z" />
    <glyph glyph-name="Acircumflex" unicode="&#xc2;" horiz-adv-x="731" 
d="M326 482l-136 -320h350l-132 320h-82zM278 553h181l235 -553h-82l-39 90h-413l-39 -90h-84zM482 605l-117 73l-118 -73l-32 41l150 110l150 -110z" />
    <glyph glyph-name="Atilde" unicode="&#xc3;" horiz-adv-x="731" 
d="M326 482l-136 -320h350l-132 320h-82zM278 553h181l235 -553h-82l-39 90h-413l-39 -90h-84zM519 708l34 -41q-39 -56 -113 -56q-28 0 -71.5 19t-68.5 19q-52 0 -84 -41l-39 39q46 66 124 66q38 0 78.5 -18t61.5 -18q48 0 78 31z" />
    <glyph glyph-name="Adieresis" unicode="&#xc4;" horiz-adv-x="731" 
d="M326 482l-136 -320h350l-132 320h-82zM278 553h181l235 -553h-82l-39 90h-413l-39 -90h-84zM244 740q25 0 42.5 -17t17.5 -41t-18 -41.5t-42 -17.5t-42 17.5t-18 41.5t17.5 41t42.5 17zM481 740q25 0 42.5 -17t17.5 -41t-17.5 -41.5t-42.5 -17.5q-24 0 -41.5 17.5
t-17.5 41.5t17 41t42 17z" />
    <glyph glyph-name="Aring" unicode="&#xc5;" horiz-adv-x="731" 
d="M326 482l-136 -320h350l-132 320h-82zM278 553h181l235 -553h-82l-39 90h-413l-39 -90h-84zM495 724q0 -55 -38 -88.5t-93 -33.5t-93 33.5t-38 88.5t38.5 89t92.5 34t92.5 -34t38.5 -89zM295 724q0 -31 19 -48.5t50 -17.5t50 17.5t19 48.5t-19 49t-50 18t-50 -18t-19 -49
z" />
    <glyph glyph-name="AE" unicode="&#xc6;" horiz-adv-x="1101" 
d="M383 553h651v-71h-414v-162h373v-71h-373v-177h434v-72h-513v105h-366l-73 -105h-93zM421 482l-193 -303h313v303h-120z" />
    <glyph glyph-name="Ccedilla" unicode="&#xc7;" horiz-adv-x="651" 
d="M614 436l-63 -37q-72 95 -208 95q-102 0 -163 -59.5t-61 -157.5q0 -96 62.5 -158t161.5 -62q133 0 208 97l64 -37q-87 -121 -246 -130v-33q97 -5 97 -86q0 -47 -37.5 -72t-94.5 -25q-44 0 -82 19l17 49q33 -14 68 -14q65 0 65 43q0 35 -51 35h-45l-6 6l8 79
q-120 11 -194 88.5t-74 200.5q0 132 86.5 210.5t219.5 78.5q179 0 268 -130z" />
    <glyph glyph-name="Egrave" unicode="&#xc8;" horiz-adv-x="608" 
d="M57 553h488v-71h-410v-163h368v-71h-368v-176h425v-72h-503v553zM314 814l48 -185l-65 -16l-52 184z" />
    <glyph glyph-name="Eacute" unicode="&#xc9;" horiz-adv-x="608" 
d="M57 553h488v-71h-410v-163h368v-71h-368v-176h425v-72h-503v553zM271 629l48 185l69 -17l-51 -184z" />
    <glyph glyph-name="Ecircumflex" unicode="&#xca;" horiz-adv-x="608" 
d="M57 553h488v-71h-410v-163h368v-71h-368v-176h425v-72h-503v553zM430 605l-117 73l-118 -73l-32 41l150 110l150 -110z" />
    <glyph glyph-name="Edieresis" unicode="&#xcb;" horiz-adv-x="608" 
d="M57 553h488v-71h-410v-163h368v-71h-368v-176h425v-72h-503v553zM184 740q25 0 42.5 -17t17.5 -41t-18 -41.5t-42 -17.5t-42 17.5t-18 41.5t17.5 41t42.5 17zM421 740q25 0 42.5 -17t17.5 -41t-17.5 -41.5t-42.5 -17.5q-24 0 -41.5 17.5t-17.5 41.5t17 41t42 17z" />
    <glyph glyph-name="Igrave" unicode="&#xcc;" horiz-adv-x="192" 
d="M57 553h78v-553h-78v553zM93 814l48 -185l-65 -16l-52 184z" />
    <glyph glyph-name="Iacute" unicode="&#xcd;" horiz-adv-x="192" 
d="M57 553h78v-553h-78v553zM57 629l48 185l69 -17l-51 -184z" />
    <glyph glyph-name="Icircumflex" unicode="&#xce;" horiz-adv-x="192" 
d="M57 553h78v-553h-78v553zM216 605l-117 73l-118 -73l-32 41l150 110l150 -110z" />
    <glyph glyph-name="Idieresis" unicode="&#xcf;" horiz-adv-x="192" 
d="M57 553h78v-553h-78v553zM-21 740q25 0 42.5 -17t17.5 -41t-17.5 -41.5t-42.5 -17.5t-42.5 17.5t-17.5 41.5t17.5 41t42.5 17zM216 740q25 0 42.5 -17t17.5 -41t-18 -41.5t-42 -17.5t-41.5 17.5t-17.5 41.5t17 41t42 17z" />
    <glyph glyph-name="Eth" unicode="&#xd0;" horiz-adv-x="683" 
d="M73 553h273q125 0 211 -75t86 -201q0 -125 -87 -201t-210 -76h-273v253h-63v71h63v229zM152 482v-158h161v-71h-161v-181h189q101 0 162 56t61 149t-61 149t-162 56h-189z" />
    <glyph glyph-name="Ntilde" unicode="&#xd1;" horiz-adv-x="679" 
d="M57 553h86l402 -450v450h77v-553h-87l-401 451v-451h-77v553zM493 719l34 -41q-39 -56 -113 -56q-28 0 -71.5 19t-68.5 19q-52 0 -84 -41l-39 39q46 66 124 66q38 0 78.5 -18t61.5 -18q48 0 78 31z" />
    <glyph glyph-name="Ograve" unicode="&#xd2;" 
d="M119 276q1 -102 65.5 -161t164.5 -59q99 0 164 59.5t65 160.5t-65 160.5t-164 59.5q-100 0 -164.5 -59t-65.5 -161zM657 276q0 -129 -87.5 -209.5t-220.5 -80.5t-220.5 80.5t-87.5 209.5t87.5 209.5t220.5 80.5t220.5 -80.5t87.5 -209.5zM325 814l48 -185l-65 -16
l-52 184z" />
    <glyph glyph-name="Oacute" unicode="&#xd3;" 
d="M119 276q1 -102 65.5 -161t164.5 -59q99 0 164 59.5t65 160.5t-65 160.5t-164 59.5q-100 0 -164.5 -59t-65.5 -161zM657 276q0 -129 -87.5 -209.5t-220.5 -80.5t-220.5 80.5t-87.5 209.5t87.5 209.5t220.5 80.5t220.5 -80.5t87.5 -209.5zM323 629l48 185l69 -17l-51 -184
z" />
    <glyph glyph-name="Ocircumflex" unicode="&#xd4;" 
d="M119 276q1 -102 65.5 -161t164.5 -59q99 0 164 59.5t65 160.5t-65 160.5t-164 59.5q-100 0 -164.5 -59t-65.5 -161zM657 276q0 -129 -87.5 -209.5t-220.5 -80.5t-220.5 80.5t-87.5 209.5t87.5 209.5t220.5 80.5t220.5 -80.5t87.5 -209.5zM465 605l-117 73l-118 -73
l-32 41l150 110l150 -110z" />
    <glyph glyph-name="Otilde" unicode="&#xd5;" 
d="M119 276q1 -102 65.5 -161t164.5 -59q99 0 164 59.5t65 160.5t-65 160.5t-164 59.5q-100 0 -164.5 -59t-65.5 -161zM657 276q0 -129 -87.5 -209.5t-220.5 -80.5t-220.5 80.5t-87.5 209.5t87.5 209.5t220.5 80.5t220.5 -80.5t87.5 -209.5zM503 719l34 -41
q-39 -56 -113 -56q-28 0 -71.5 19t-68.5 19q-52 0 -84 -41l-39 39q46 66 124 66q38 0 78.5 -18t61.5 -18q48 0 78 31z" />
    <glyph glyph-name="Odieresis" unicode="&#xd6;" 
d="M119 276q1 -102 65.5 -161t164.5 -59q99 0 164 59.5t65 160.5t-65 160.5t-164 59.5q-100 0 -164.5 -59t-65.5 -161zM657 276q0 -129 -87.5 -209.5t-220.5 -80.5t-220.5 80.5t-87.5 209.5t87.5 209.5t220.5 80.5t220.5 -80.5t87.5 -209.5zM230 740q25 0 42.5 -17t17.5 -41
t-18 -41.5t-42 -17.5t-42 17.5t-18 41.5t17.5 41t42.5 17zM467 740q25 0 42.5 -17t17.5 -41t-17.5 -41.5t-42.5 -17.5q-24 0 -41.5 17.5t-17.5 41.5t17 41t42 17z" />
    <glyph glyph-name="multiply" unicode="&#xd7;" horiz-adv-x="412" 
d="M113 427l94 -93l95 95l49 -49l-95 -95l94 -94l-49 -48l-93 93l-93 -92l-49 49l93 92l-94 94z" />
    <glyph glyph-name="Oslash" unicode="&#xd8;" 
d="M490 589l65 -35l-24 -40q59 -38 92.5 -99.5t33.5 -138.5q0 -129 -87.5 -209t-220.5 -80q-59 0 -112 17l-26 -45l-63 35l23 40q-61 37 -95.5 99.5t-34.5 142.5q0 130 87.5 210t220.5 80q62 0 117 -20zM209 97l220 386q-41 13 -80 13q-100 0 -164.5 -59t-65.5 -161
q0 -118 90 -179zM494 451l-221 -384q34 -10 76 -10q99 0 164 59t65 160q0 114 -84 175z" />
    <glyph glyph-name="Ugrave" unicode="&#xd9;" horiz-adv-x="661" 
d="M52 553h78v-284q0 -99 50 -155.5t151 -56.5q100 0 150 56.5t50 155.5v284h79v-283q0 -135 -75 -209.5t-204 -74.5q-130 0 -204.5 74t-74.5 210v283zM313 814l48 -185l-65 -16l-52 184z" />
    <glyph glyph-name="Uacute" unicode="&#xda;" horiz-adv-x="661" 
d="M52 553h78v-284q0 -99 50 -155.5t151 -56.5q100 0 150 56.5t50 155.5v284h79v-283q0 -135 -75 -209.5t-204 -74.5q-130 0 -204.5 74t-74.5 210v283zM294 627l48 185l69 -17l-51 -184z" />
    <glyph glyph-name="Ucircumflex" unicode="&#xdb;" horiz-adv-x="661" 
d="M52 553h78v-284q0 -99 50 -155.5t151 -56.5q100 0 150 56.5t50 155.5v284h79v-283q0 -135 -75 -209.5t-204 -74.5q-130 0 -204.5 74t-74.5 210v283zM448 605l-117 73l-118 -73l-32 41l150 110l150 -110z" />
    <glyph glyph-name="Udieresis" unicode="&#xdc;" horiz-adv-x="661" 
d="M52 553h78v-284q0 -99 50 -155.5t151 -56.5q100 0 150 56.5t50 155.5v284h79v-283q0 -135 -75 -209.5t-204 -74.5q-130 0 -204.5 74t-74.5 210v283zM212 740q25 0 42.5 -17t17.5 -41t-18 -41.5t-42 -17.5t-42 17.5t-18 41.5t17.5 41t42.5 17zM449 740q25 0 42.5 -17
t17.5 -41t-17.5 -41.5t-42.5 -17.5q-24 0 -41.5 17.5t-17.5 41.5t17 41t42 17z" />
    <glyph glyph-name="Yacute" unicode="&#xdd;" horiz-adv-x="671" 
d="M30 553h91l209 -332h15l205 332h91l-267 -415v-138h-78v138zM309 629l48 185l69 -17l-51 -184z" />
    <glyph glyph-name="Thorn" unicode="&#xde;" horiz-adv-x="607" 
d="M57 553h78v-71h227q86 0 146.5 -59.5t60.5 -146.5t-60.5 -145.5t-146.5 -58.5h-227v-72h-78v553zM135 410v-266h222q64 0 98.5 37.5t34.5 94.5q0 58 -34.5 96t-98.5 38h-222z" />
    <glyph glyph-name="agrave" unicode="&#xe0;" horiz-adv-x="731" 
d="M326 482l-136 -320h350l-132 320h-82zM278 553h181l235 -553h-82l-39 90h-413l-39 -90h-84zM355 814l48 -185l-65 -16l-52 184z" />
    <glyph glyph-name="aacute" unicode="&#xe1;" horiz-adv-x="731" 
d="M326 482l-136 -320h350l-132 320h-82zM278 553h181l235 -553h-82l-39 90h-413l-39 -90h-84zM339 630l48 185l69 -17l-51 -184z" />
    <glyph glyph-name="acircumflex" unicode="&#xe2;" horiz-adv-x="731" 
d="M326 482l-136 -320h350l-132 320h-82zM278 553h181l235 -553h-82l-39 90h-413l-39 -90h-84zM482 605l-117 73l-118 -73l-32 41l150 110l150 -110z" />
    <glyph glyph-name="atilde" unicode="&#xe3;" horiz-adv-x="731" 
d="M326 482l-136 -320h350l-132 320h-82zM278 553h181l235 -553h-82l-39 90h-413l-39 -90h-84zM519 719l34 -41q-39 -56 -113 -56q-28 0 -71.5 19t-68.5 19q-52 0 -84 -41l-39 39q46 66 124 66q38 0 78.5 -18t61.5 -18q48 0 78 31z" />
    <glyph glyph-name="adieresis" unicode="&#xe4;" horiz-adv-x="731" 
d="M326 482l-136 -320h350l-132 320h-82zM278 553h181l235 -553h-82l-39 90h-413l-39 -90h-84zM246 740q25 0 42.5 -17t17.5 -41t-18 -41.5t-42 -17.5t-42 17.5t-18 41.5t17.5 41t42.5 17zM483 740q25 0 42.5 -17t17.5 -41t-17.5 -41.5t-42.5 -17.5q-24 0 -41.5 17.5
t-17.5 41.5t17 41t42 17z" />
    <glyph glyph-name="aring" unicode="&#xe5;" horiz-adv-x="731" 
d="M326 482l-136 -320h350l-132 320h-82zM278 553h181l235 -553h-82l-39 90h-413l-39 -90h-84zM495 724q0 -55 -38 -88.5t-93 -33.5t-93 33.5t-38 88.5t38.5 89t92.5 34t92.5 -34t38.5 -89zM295 724q0 -31 19 -48.5t50 -17.5t50 17.5t19 48.5t-19 49t-50 18t-50 -18t-19 -49
z" />
    <glyph glyph-name="ae" unicode="&#xe6;" horiz-adv-x="1101" 
d="M383 553h651v-71h-414v-162h373v-71h-373v-177h434v-72h-513v105h-366l-73 -105h-93zM421 482l-193 -303h313v303h-120z" />
    <glyph glyph-name="ccedilla" unicode="&#xe7;" horiz-adv-x="651" 
d="M614 436l-63 -37q-72 95 -208 95q-102 0 -163 -59.5t-61 -157.5q0 -96 62.5 -158t161.5 -62q133 0 208 97l64 -37q-87 -121 -246 -130v-33q97 -5 97 -86q0 -47 -37.5 -72t-94.5 -25q-44 0 -82 19l17 49q33 -14 68 -14q65 0 65 43q0 35 -51 35h-45l-6 6l8 79
q-120 11 -194 88.5t-74 200.5q0 132 86.5 210.5t219.5 78.5q179 0 268 -130z" />
    <glyph glyph-name="egrave" unicode="&#xe8;" horiz-adv-x="608" 
d="M57 553h488v-71h-410v-163h368v-71h-368v-176h425v-72h-503v553zM314 814l48 -185l-65 -16l-52 184z" />
    <glyph glyph-name="eacute" unicode="&#xe9;" horiz-adv-x="608" 
d="M57 553h488v-71h-410v-163h368v-71h-368v-176h425v-72h-503v553zM276 629l48 185l69 -17l-51 -184z" />
    <glyph glyph-name="ecircumflex" unicode="&#xea;" horiz-adv-x="608" 
d="M57 553h488v-71h-410v-163h368v-71h-368v-176h425v-72h-503v553zM430 605l-117 73l-118 -73l-32 41l150 110l150 -110z" />
    <glyph glyph-name="edieresis" unicode="&#xeb;" horiz-adv-x="608" 
d="M57 553h488v-71h-410v-163h368v-71h-368v-176h425v-72h-503v553zM184 740q25 0 42.5 -17t17.5 -41t-18 -41.5t-42 -17.5t-42 17.5t-18 41.5t17.5 41t42.5 17zM421 740q25 0 42.5 -17t17.5 -41t-17.5 -41.5t-42.5 -17.5q-24 0 -41.5 17.5t-17.5 41.5t17 41t42 17z" />
    <glyph glyph-name="igrave" unicode="&#xec;" horiz-adv-x="192" 
d="M57 553h78v-553h-78v553zM84 814l48 -185l-65 -16l-52 184z" />
    <glyph glyph-name="iacute" unicode="&#xed;" horiz-adv-x="192" 
d="M57 553h78v-553h-78v553zM63 629l48 185l69 -17l-51 -184z" />
    <glyph glyph-name="icircumflex" unicode="&#xee;" horiz-adv-x="192" 
d="M57 553h78v-553h-78v553zM216 605l-117 73l-118 -73l-32 41l150 110l150 -110z" />
    <glyph glyph-name="idieresis" unicode="&#xef;" horiz-adv-x="192" 
d="M57 553h78v-553h-78v553zM-21 740q25 0 42.5 -17t17.5 -41t-17.5 -41.5t-42.5 -17.5t-42.5 17.5t-17.5 41.5t17.5 41t42.5 17zM216 740q25 0 42.5 -17t17.5 -41t-18 -41.5t-42 -17.5t-41.5 17.5t-17.5 41.5t17 41t42 17z" />
    <glyph glyph-name="eth" unicode="&#xf0;" horiz-adv-x="683" 
d="M73 553h273q125 0 211 -75t86 -201q0 -125 -87 -201t-210 -76h-273v253h-63v71h63v229zM152 482v-158h161v-71h-161v-181h189q101 0 162 56t61 149t-61 149t-162 56h-189z" />
    <glyph glyph-name="ntilde" unicode="&#xf1;" horiz-adv-x="679" 
d="M57 553h86l402 -450v450h77v-553h-87l-401 451v-451h-77v553zM493 719l34 -41q-39 -56 -113 -56q-28 0 -71.5 19t-68.5 19q-52 0 -84 -41l-39 39q46 66 124 66q38 0 78.5 -18t61.5 -18q48 0 78 31z" />
    <glyph glyph-name="ograve" unicode="&#xf2;" 
d="M119 276q1 -102 65.5 -161t164.5 -59q99 0 164 59.5t65 160.5t-65 160.5t-164 59.5q-100 0 -164.5 -59t-65.5 -161zM657 276q0 -129 -87.5 -209.5t-220.5 -80.5t-220.5 80.5t-87.5 209.5t87.5 209.5t220.5 80.5t220.5 -80.5t87.5 -209.5zM326 814l48 -185l-65 -16
l-52 184z" />
    <glyph glyph-name="oacute" unicode="&#xf3;" 
d="M119 276q1 -102 65.5 -161t164.5 -59q99 0 164 59.5t65 160.5t-65 160.5t-164 59.5q-100 0 -164.5 -59t-65.5 -161zM657 276q0 -129 -87.5 -209.5t-220.5 -80.5t-220.5 80.5t-87.5 209.5t87.5 209.5t220.5 80.5t220.5 -80.5t87.5 -209.5zM323 629l48 185l69 -17l-51 -184
z" />
    <glyph glyph-name="ocircumflex" unicode="&#xf4;" 
d="M119 276q1 -102 65.5 -161t164.5 -59q99 0 164 59.5t65 160.5t-65 160.5t-164 59.5q-100 0 -164.5 -59t-65.5 -161zM657 276q0 -129 -87.5 -209.5t-220.5 -80.5t-220.5 80.5t-87.5 209.5t87.5 209.5t220.5 80.5t220.5 -80.5t87.5 -209.5zM465 605l-117 73l-118 -73
l-32 41l150 110l150 -110z" />
    <glyph glyph-name="otilde" unicode="&#xf5;" 
d="M119 276q1 -102 65.5 -161t164.5 -59q99 0 164 59.5t65 160.5t-65 160.5t-164 59.5q-100 0 -164.5 -59t-65.5 -161zM657 276q0 -129 -87.5 -209.5t-220.5 -80.5t-220.5 80.5t-87.5 209.5t87.5 209.5t220.5 80.5t220.5 -80.5t87.5 -209.5zM499 723l34 -41
q-39 -56 -113 -56q-28 0 -71.5 19t-68.5 19q-52 0 -84 -41l-39 39q46 66 124 66q38 0 78.5 -18t61.5 -18q48 0 78 31z" />
    <glyph glyph-name="odieresis" unicode="&#xf6;" 
d="M119 276q1 -102 65.5 -161t164.5 -59q99 0 164 59.5t65 160.5t-65 160.5t-164 59.5q-100 0 -164.5 -59t-65.5 -161zM657 276q0 -129 -87.5 -209.5t-220.5 -80.5t-220.5 80.5t-87.5 209.5t87.5 209.5t220.5 80.5t220.5 -80.5t87.5 -209.5zM230 740q25 0 42.5 -17t17.5 -41
t-18 -41.5t-42 -17.5t-42 17.5t-18 41.5t17.5 41t42.5 17zM467 740q25 0 42.5 -17t17.5 -41t-17.5 -41.5t-42.5 -17.5q-24 0 -41.5 17.5t-17.5 41.5t17 41t42 17z" />
    <glyph glyph-name="divide" unicode="&#xf7;" horiz-adv-x="389" 
d="M195 499q27 0 45 -18.5t18 -44.5t-18 -44.5t-45 -18.5q-26 0 -44.5 18.5t-18.5 44.5t18.5 44.5t44.5 18.5zM195 193q27 0 45 -18.5t18 -44.5t-18 -44t-45 -18t-45 17.5t-18 44.5q0 26 18.5 44.5t44.5 18.5zM37 315h315v-67h-315v67z" />
    <glyph glyph-name="oslash" unicode="&#xf8;" horiz-adv-x="692" 
d="M490 589l65 -35l-24 -40q59 -38 92.5 -99.5t33.5 -138.5q0 -129 -87.5 -209t-220.5 -80q-59 0 -112 17l-26 -45l-63 35l23 40q-61 37 -95.5 99.5t-34.5 142.5q0 130 87.5 210t220.5 80q62 0 117 -20zM209 97l220 386q-41 13 -80 13q-100 0 -164.5 -59t-65.5 -161
q0 -118 90 -179zM494 451l-221 -384q34 -10 76 -10q99 0 164 59t65 160q0 114 -84 175z" />
    <glyph glyph-name="ugrave" unicode="&#xf9;" horiz-adv-x="661" 
d="M52 553h78v-284q0 -99 50 -155.5t151 -56.5q100 0 150 56.5t50 155.5v284h79v-283q0 -135 -75 -209.5t-204 -74.5q-130 0 -204.5 74t-74.5 210v283zM317 814l48 -185l-65 -16l-52 184z" />
    <glyph glyph-name="uacute" unicode="&#xfa;" horiz-adv-x="661" 
d="M52 553h78v-284q0 -99 50 -155.5t151 -56.5q100 0 150 56.5t50 155.5v284h79v-283q0 -135 -75 -209.5t-204 -74.5q-130 0 -204.5 74t-74.5 210v283zM290 629l48 185l69 -17l-51 -184z" />
    <glyph glyph-name="ucircumflex" unicode="&#xfb;" horiz-adv-x="661" 
d="M52 553h78v-284q0 -99 50 -155.5t151 -56.5q100 0 150 56.5t50 155.5v284h79v-283q0 -135 -75 -209.5t-204 -74.5q-130 0 -204.5 74t-74.5 210v283zM448 605l-117 73l-118 -73l-32 41l150 110l150 -110z" />
    <glyph glyph-name="udieresis" unicode="&#xfc;" horiz-adv-x="661" 
d="M52 553h78v-284q0 -99 50 -155.5t151 -56.5q100 0 150 56.5t50 155.5v284h79v-283q0 -135 -75 -209.5t-204 -74.5q-130 0 -204.5 74t-74.5 210v283zM212 740q25 0 42.5 -17t17.5 -41t-18 -41.5t-42 -17.5t-42 17.5t-18 41.5t17.5 41t42.5 17zM449 740q25 0 42.5 -17
t17.5 -41t-17.5 -41.5t-42.5 -17.5q-24 0 -41.5 17.5t-17.5 41.5t17 41t42 17z" />
    <glyph glyph-name="yacute" unicode="&#xfd;" horiz-adv-x="671" 
d="M30 553h91l209 -332h15l205 332h91l-267 -415v-138h-78v138zM305 629l48 185l69 -17l-51 -184z" />
    <glyph glyph-name="thorn" unicode="&#xfe;" horiz-adv-x="607" 
d="M57 553h78v-71h227q86 0 146.5 -59.5t60.5 -146.5t-60.5 -145.5t-146.5 -58.5h-227v-72h-78v553zM135 410v-266h222q64 0 98.5 37.5t34.5 94.5q0 58 -34.5 96t-98.5 38h-222z" />
    <glyph glyph-name="ydieresis" unicode="&#xff;" horiz-adv-x="671" 
d="M30 553h91l209 -332h15l205 332h91l-267 -415v-138h-78v138zM216 740q25 0 42.5 -17t17.5 -41t-18 -41.5t-42 -17.5t-42 17.5t-18 41.5t17.5 41t42.5 17zM453 740q25 0 42.5 -17t17.5 -41t-17.5 -41.5t-42.5 -17.5q-24 0 -41.5 17.5t-17.5 41.5t17 41t42 17z" />
    <glyph glyph-name="Amacron" unicode="&#x100;" horiz-adv-x="731" 
d="M326 482l-136 -320h350l-132 320h-82zM278 553h181l235 -553h-82l-39 90h-413l-39 -90h-84zM191 702h348v-66h-348v66z" />
    <glyph glyph-name="amacron" unicode="&#x101;" horiz-adv-x="731" 
d="M326 482l-136 -320h350l-132 320h-82zM278 553h181l235 -553h-82l-39 90h-413l-39 -90h-84zM195 702h348v-66h-348v66z" />
    <glyph glyph-name="Abreve" unicode="&#x102;" horiz-adv-x="731" 
d="M326 482l-136 -320h350l-132 320h-82zM278 553h181l235 -553h-82l-39 90h-413l-39 -90h-84zM473 729l43 -39q-61 -76 -152 -76q-92 0 -151 76l43 39q46 -52 108 -52q63 0 109 52z" />
    <glyph glyph-name="abreve" unicode="&#x103;" horiz-adv-x="731" 
d="M326 482l-136 -320h350l-132 320h-82zM278 553h181l235 -553h-82l-39 90h-413l-39 -90h-84zM473 729l43 -39q-61 -76 -152 -76q-92 0 -151 76l43 39q46 -52 108 -52q63 0 109 52z" />
    <glyph glyph-name="Aogonek" unicode="&#x104;" horiz-adv-x="731" 
d="M279 553h180l235 -553q-25 -28 -25 -70q0 -58 51 -95l-40 -32q-78 35 -78 108q0 54 35 89h-24l-39 90h-414l-40 -90h-83zM324 481l-134 -320h351l-132 320h-85z" />
    <glyph glyph-name="aogonek" unicode="&#x105;" horiz-adv-x="731" 
d="M279 553h180l235 -553q-25 -28 -25 -70q0 -58 51 -95l-40 -32q-78 35 -78 108q0 54 35 89h-24l-39 90h-414l-40 -90h-83zM324 481l-134 -320h351l-132 320h-85z" />
    <glyph glyph-name="Cacute" unicode="&#x106;" horiz-adv-x="651" 
d="M614 436l-63 -37q-72 95 -208 95q-102 0 -163 -59.5t-61 -157.5q0 -96 62.5 -158t161.5 -62q133 0 208 97l64 -37q-92 -131 -269 -131q-135 0 -220.5 79t-85.5 212q0 132 86.5 210.5t219.5 78.5q179 0 268 -130zM309 629l48 185l69 -17l-51 -184z" />
    <glyph glyph-name="cacute" unicode="&#x107;" horiz-adv-x="651" 
d="M614 436l-63 -37q-72 95 -208 95q-102 0 -163 -59.5t-61 -157.5q0 -96 62.5 -158t161.5 -62q133 0 208 97l64 -37q-92 -131 -269 -131q-135 0 -220.5 79t-85.5 212q0 132 86.5 210.5t219.5 78.5q179 0 268 -130zM327 629l48 185l69 -17l-51 -184z" />
    <glyph glyph-name="Ccircumflex" unicode="&#x108;" horiz-adv-x="651" 
d="M614 436l-63 -37q-72 95 -208 95q-102 0 -163 -59.5t-61 -157.5q0 -96 62.5 -158t161.5 -62q133 0 208 97l64 -37q-92 -131 -269 -131q-135 0 -220.5 79t-85.5 212q0 132 86.5 210.5t219.5 78.5q179 0 268 -130zM462 605l-117 73l-118 -73l-32 41l150 110l150 -110z" />
    <glyph glyph-name="ccircumflex" unicode="&#x109;" horiz-adv-x="651" 
d="M614 436l-63 -37q-72 95 -208 95q-102 0 -163 -59.5t-61 -157.5q0 -96 62.5 -158t161.5 -62q133 0 208 97l64 -37q-92 -131 -269 -131q-135 0 -220.5 79t-85.5 212q0 132 86.5 210.5t219.5 78.5q179 0 268 -130zM466 605l-117 73l-118 -73l-32 41l150 110l150 -110z" />
    <glyph glyph-name="Cdotaccent" unicode="&#x10a;" horiz-adv-x="651" 
d="M614 436l-63 -37q-72 95 -208 95q-102 0 -163 -59.5t-61 -157.5q0 -96 62.5 -158t161.5 -62q133 0 208 97l64 -37q-92 -131 -269 -131q-135 0 -220.5 79t-85.5 212q0 132 86.5 210.5t219.5 78.5q179 0 268 -130zM346 743q27 0 45.5 -18.5t18.5 -43.5q0 -26 -18.5 -45
t-45.5 -19q-26 0 -44.5 19t-18.5 45q0 25 18.5 43.5t44.5 18.5z" />
    <glyph glyph-name="cdotaccent" unicode="&#x10b;" horiz-adv-x="651" 
d="M614 436l-63 -37q-72 95 -208 95q-102 0 -163 -59.5t-61 -157.5q0 -96 62.5 -158t161.5 -62q133 0 208 97l64 -37q-92 -131 -269 -131q-135 0 -220.5 79t-85.5 212q0 132 86.5 210.5t219.5 78.5q179 0 268 -130zM352 743q27 0 45.5 -18.5t18.5 -43.5q0 -26 -18.5 -45
t-45.5 -19q-26 0 -44.5 19t-18.5 45q0 25 18.5 43.5t44.5 18.5z" />
    <glyph glyph-name="Ccaron" unicode="&#x10c;" horiz-adv-x="651" 
d="M614 436l-63 -37q-72 95 -208 95q-102 0 -163 -59.5t-61 -157.5q0 -96 62.5 -158t161.5 -62q133 0 208 97l64 -37q-92 -131 -269 -131q-135 0 -220.5 79t-85.5 212q0 132 86.5 210.5t219.5 78.5q179 0 268 -130zM232 759l117 -73l117 73l33 -41l-150 -110l-150 110z" />
    <glyph glyph-name="ccaron" unicode="&#x10d;" horiz-adv-x="651" 
d="M614 436l-63 -37q-72 95 -208 95q-102 0 -163 -59.5t-61 -157.5q0 -96 62.5 -158t161.5 -62q133 0 208 97l64 -37q-92 -131 -269 -131q-135 0 -220.5 79t-85.5 212q0 132 86.5 210.5t219.5 78.5q179 0 268 -130zM238 759l117 -73l117 73l33 -41l-150 -110l-150 110z" />
    <glyph glyph-name="Dcaron" unicode="&#x10e;" horiz-adv-x="666" 
d="M57 553h273q125 0 210.5 -75t85.5 -201q0 -125 -87 -201t-209 -76h-273v553zM135 482v-410h190q101 0 162 56t61 149t-61 149t-162 56h-190zM187 759l117 -73l117 73l33 -41l-150 -110l-150 110z" />
    <glyph glyph-name="dcaron" unicode="&#x10f;" horiz-adv-x="666" 
d="M57 553h273q125 0 210.5 -75t85.5 -201q0 -125 -87 -201t-209 -76h-273v553zM135 482v-410h190q101 0 162 56t61 149t-61 149t-162 56h-190zM187 759l117 -73l117 73l33 -41l-150 -110l-150 110z" />
    <glyph glyph-name="Dcroat" unicode="&#x110;" horiz-adv-x="683" 
d="M73 553h273q125 0 211 -75t86 -201q0 -125 -87 -201t-210 -76h-273v253h-63v71h63v229zM152 482v-158h161v-71h-161v-181h189q101 0 162 56t61 149t-61 149t-162 56h-189z" />
    <glyph glyph-name="dcroat" unicode="&#x111;" horiz-adv-x="683" 
d="M73 553h273q125 0 211 -75t86 -201q0 -125 -87 -201t-210 -76h-273v253h-63v71h63v229zM152 482v-158h161v-71h-161v-181h189q101 0 162 56t61 149t-61 149t-162 56h-189z" />
    <glyph glyph-name="Emacron" unicode="&#x112;" horiz-adv-x="608" 
d="M57 553h488v-71h-410v-163h368v-71h-368v-176h425v-72h-503v553zM135 702h348v-66h-348v66z" />
    <glyph glyph-name="emacron" unicode="&#x113;" horiz-adv-x="608" 
d="M57 553h488v-71h-410v-163h368v-71h-368v-176h425v-72h-503v553zM137 702h348v-66h-348v66z" />
    <glyph glyph-name="Ebreve" unicode="&#x114;" horiz-adv-x="608" 
d="M57 553h488v-71h-410v-163h368v-71h-368v-176h425v-72h-503v553zM424 735l43 -39q-61 -76 -152 -76q-92 0 -151 76l43 39q46 -52 108 -52q63 0 109 52z" />
    <glyph glyph-name="ebreve" unicode="&#x115;" horiz-adv-x="608" 
d="M57 553h488v-71h-410v-163h368v-71h-368v-176h425v-72h-503v553zM420 735l43 -39q-61 -76 -152 -76q-92 0 -151 76l43 39q46 -52 108 -52q63 0 109 52z" />
    <glyph glyph-name="Edotaccent" unicode="&#x116;" horiz-adv-x="608" 
d="M57 553h488v-71h-410v-163h368v-71h-368v-176h425v-72h-503v553zM309 743q27 0 45.5 -18.5t18.5 -43.5q0 -26 -18.5 -45t-45.5 -19q-26 0 -44.5 19t-18.5 45q0 25 18.5 43.5t44.5 18.5z" />
    <glyph glyph-name="edotaccent" unicode="&#x117;" horiz-adv-x="608" 
d="M57 553h488v-71h-410v-163h368v-71h-368v-176h425v-72h-503v553zM309 743q27 0 45.5 -18.5t18.5 -43.5q0 -26 -18.5 -45t-45.5 -19q-26 0 -44.5 19t-18.5 45q0 25 18.5 43.5t44.5 18.5z" />
    <glyph glyph-name="Eogonek" unicode="&#x118;" horiz-adv-x="608" 
d="M57 553h488v-71h-410v-162h368v-72h-368v-176h425v-72q-25 -29 -25 -70q0 -58 51 -95l-40 -33q-78 35 -78 109q0 56 36 89h-447v553z" />
    <glyph glyph-name="eogonek" unicode="&#x119;" horiz-adv-x="608" 
d="M57 553h488v-71h-410v-162h368v-72h-368v-176h425v-72q-25 -29 -25 -70q0 -58 51 -95l-40 -33q-78 35 -78 109q0 56 36 89h-447v553z" />
    <glyph glyph-name="Ecaron" unicode="&#x11a;" horiz-adv-x="608" 
d="M57 553h488v-71h-410v-163h368v-71h-368v-176h425v-72h-503v553zM198 759l117 -73l117 73l33 -41l-150 -110l-150 110z" />
    <glyph glyph-name="ecaron" unicode="&#x11b;" horiz-adv-x="608" 
d="M57 553h488v-71h-410v-163h368v-71h-368v-176h425v-72h-503v553zM198 759l117 -73l117 73l33 -41l-150 -110l-150 110z" />
    <glyph glyph-name="Gcircumflex" unicode="&#x11c;" horiz-adv-x="685" 
d="M401 308h227v-308h-52l-13 60q-87 -74 -217 -74q-135 0 -220.5 79t-85.5 212q0 132 86.5 210.5t219.5 78.5q175 0 268 -126l-63 -37q-71 91 -207 91q-103 0 -164 -59.5t-61 -157.5q0 -96 63 -157.5t162 -61.5q134 0 209 81v98l-152 6v65zM472 605l-117 73l-118 -73
l-32 41l150 110l150 -110z" />
    <glyph glyph-name="gcircumflex" unicode="&#x11d;" horiz-adv-x="685" 
d="M401 308h227v-308h-52l-13 60q-87 -74 -217 -74q-135 0 -220.5 79t-85.5 212q0 132 86.5 210.5t219.5 78.5q175 0 268 -126l-63 -37q-71 91 -207 91q-103 0 -164 -59.5t-61 -157.5q0 -96 63 -157.5t162 -61.5q134 0 209 81v98l-152 6v65zM472 605l-117 73l-118 -73
l-32 41l150 110l150 -110z" />
    <glyph glyph-name="Gbreve" unicode="&#x11e;" horiz-adv-x="685" 
d="M401 308h227v-308h-52l-13 60q-87 -74 -217 -74q-135 0 -220.5 79t-85.5 212q0 132 86.5 210.5t219.5 78.5q175 0 268 -126l-63 -37q-71 91 -207 91q-103 0 -164 -59.5t-61 -157.5q0 -96 63 -157.5t162 -61.5q134 0 209 81v98l-152 6v65zM461 735l43 -39
q-61 -76 -152 -76q-92 0 -151 76l43 39q46 -52 108 -52q63 0 109 52z" />
    <glyph glyph-name="gbreve" unicode="&#x11f;" horiz-adv-x="685" 
d="M401 308h227v-308h-52l-13 60q-87 -74 -217 -74q-135 0 -220.5 79t-85.5 212q0 132 86.5 210.5t219.5 78.5q175 0 268 -126l-63 -37q-71 91 -207 91q-103 0 -164 -59.5t-61 -157.5q0 -96 63 -157.5t162 -61.5q134 0 209 81v98l-152 6v65zM464 735l43 -39
q-61 -76 -152 -76q-92 0 -151 76l43 39q46 -52 108 -52q63 0 109 52z" />
    <glyph glyph-name="Gdotaccent" unicode="&#x120;" horiz-adv-x="685" 
d="M401 308h227v-308h-52l-13 60q-87 -74 -217 -74q-135 0 -220.5 79t-85.5 212q0 132 86.5 210.5t219.5 78.5q175 0 268 -126l-63 -37q-71 91 -207 91q-103 0 -164 -59.5t-61 -157.5q0 -96 63 -157.5t162 -61.5q134 0 209 81v98l-152 6v65zM346 743q27 0 45.5 -18.5
t18.5 -43.5q0 -26 -18.5 -45t-45.5 -19q-26 0 -44.5 19t-18.5 45q0 25 18.5 43.5t44.5 18.5z" />
    <glyph glyph-name="gdotaccent" unicode="&#x121;" horiz-adv-x="685" 
d="M401 308h227v-308h-52l-13 60q-87 -74 -217 -74q-135 0 -220.5 79t-85.5 212q0 132 86.5 210.5t219.5 78.5q175 0 268 -126l-63 -37q-71 91 -207 91q-103 0 -164 -59.5t-61 -157.5q0 -96 63 -157.5t162 -61.5q134 0 209 81v98l-152 6v65zM346 743q27 0 45.5 -18.5
t18.5 -43.5q0 -26 -18.5 -45t-45.5 -19q-26 0 -44.5 19t-18.5 45q0 25 18.5 43.5t44.5 18.5z" />
    <glyph glyph-name="Gcommaaccent" unicode="&#x122;" horiz-adv-x="685" 
d="M401 308h227v-308h-52l-13 60q-87 -74 -217 -74q-135 0 -220.5 79t-85.5 212q0 132 86.5 210.5t219.5 78.5q175 0 268 -126l-63 -37q-71 91 -207 91q-103 0 -164 -59.5t-61 -157.5q0 -96 63 -157.5t162 -61.5q134 0 209 81v98l-152 6v65zM350 -45q27 0 44.5 -18t17.5 -45
q0 -9 -4 -23l-51 -130l-43 10l16 84q-19 6 -31 22.5t-12 36.5q0 26 18.5 44.5t44.5 18.5z" />
    <glyph glyph-name="gcommaaccent" unicode="&#x123;" horiz-adv-x="685" 
d="M401 308h227v-308h-52l-13 60q-87 -74 -217 -74q-135 0 -220.5 79t-85.5 212q0 132 86.5 210.5t219.5 78.5q175 0 268 -126l-63 -37q-71 91 -207 91q-103 0 -164 -59.5t-61 -157.5q0 -96 63 -157.5t162 -61.5q134 0 209 81v98l-152 6v65zM354 -49q27 0 44.5 -18t17.5 -45
q0 -9 -4 -23l-51 -130l-43 10l16 84q-19 6 -31 22.5t-12 36.5q0 26 18.5 44.5t44.5 18.5z" />
    <glyph glyph-name="Hcircumflex" unicode="&#x124;" horiz-adv-x="667" 
d="M57 553h78v-230h397v230h79v-553h-79v251h-397v-251h-78v553zM448 605l-117 73l-118 -73l-32 41l150 110l150 -110z" />
    <glyph glyph-name="hcircumflex" unicode="&#x125;" horiz-adv-x="667" 
d="M57 553h78v-230h397v230h79v-553h-79v251h-397v-251h-78v553zM453 605l-117 73l-118 -73l-32 41l150 110l150 -110z" />
    <glyph glyph-name="Hbar" unicode="&#x126;" horiz-adv-x="664" 
d="M57 553h76v-74h398v74h76v-74h33v-66h-33v-413h-76v247h-398v-247h-76v413h-33v66h33v74zM133 321h398v92h-398v-92z" />
    <glyph glyph-name="hbar" unicode="&#x127;" horiz-adv-x="664" 
d="M57 553h76v-74h398v74h76v-74h33v-66h-33v-413h-76v247h-398v-247h-76v413h-33v66h33v74zM133 321h398v92h-398v-92z" />
    <glyph glyph-name="Itilde" unicode="&#x128;" horiz-adv-x="192" 
d="M57 553h78v-553h-78v553zM253 719l34 -41q-39 -56 -113 -56q-28 0 -71.5 19t-68.5 19q-52 0 -84 -41l-39 39q46 66 124 66q38 0 78.5 -18t61.5 -18q48 0 78 31z" />
    <glyph glyph-name="itilde" unicode="&#x129;" horiz-adv-x="192" 
d="M57 553h78v-553h-78v553zM253 719l34 -41q-39 -56 -113 -56q-28 0 -71.5 19t-68.5 19q-52 0 -84 -41l-39 39q46 66 124 66q38 0 78.5 -18t61.5 -18q48 0 78 31z" />
    <glyph glyph-name="imacron" unicode="&#x12b;" horiz-adv-x="192" 
d="M57 553h78v-553h-78v553zM-77 702h348v-66h-348v66z" />
    <glyph glyph-name="Ibreve" unicode="&#x12c;" horiz-adv-x="192" 
d="M57 553h78v-553h-78v553zM208 735l43 -39q-61 -76 -152 -76q-92 0 -151 76l43 39q46 -52 108 -52q63 0 109 52z" />
    <glyph glyph-name="Iogonek" unicode="&#x12e;" horiz-adv-x="192" 
d="M57 553h78v-553q-22 -31 -22 -70q0 -58 51 -95l-40 -32q-78 35 -78 108q0 55 38 89h-27v553z" />
    <glyph glyph-name="iogonek" unicode="&#x12f;" horiz-adv-x="192" 
d="M57 553h78v-553q-22 -31 -22 -70q0 -58 51 -95l-40 -32q-78 35 -78 108q0 55 38 89h-27v553z" />
    <glyph glyph-name="Idotaccent" unicode="&#x130;" horiz-adv-x="192" 
d="M57 553h78v-553h-78v553zM99 743q27 0 45.5 -18.5t18.5 -43.5q0 -26 -18.5 -45t-45.5 -19q-26 0 -44.5 19t-18.5 45q0 25 18.5 43.5t44.5 18.5z" />
    <glyph glyph-name="dotlessi" unicode="&#x131;" horiz-adv-x="192" 
d="M57 553h78v-553h-78v553z" />
    <glyph glyph-name="Jcircumflex" unicode="&#x134;" horiz-adv-x="597" 
d="M462 553h78v-318q0 -114 -64 -181.5t-197 -67.5q-83 0 -146.5 34.5t-98.5 100.5l67 37q27 -49 74.5 -75t102.5 -26q102 0 143 48t41 141v307zM619 605l-117 73l-118 -73l-32 41l150 110l150 -110z" />
    <glyph glyph-name="jcircumflex" unicode="&#x135;" horiz-adv-x="597" 
d="M462 553h78v-318q0 -114 -64 -181.5t-197 -67.5q-83 0 -146.5 34.5t-98.5 100.5l67 37q27 -49 74.5 -75t102.5 -26q102 0 143 48t41 141v307zM621 605l-117 73l-118 -73l-32 41l150 110l150 -110z" />
    <glyph glyph-name="Kcommaaccent" unicode="&#x136;" horiz-adv-x="639" 
d="M57 553h78v-223h223l154 223h91l-175 -255l190 -298h-93l-164 258h-226v-258h-78v553zM304 1q27 0 44.5 -18t17.5 -45q0 -9 -4 -23l-51 -130l-43 10l16 84q-19 6 -31 22.5t-12 36.5q0 26 18.5 44.5t44.5 18.5z" />
    <glyph glyph-name="kcommaaccent" unicode="&#x137;" horiz-adv-x="639" 
d="M57 553h78v-223h223l154 223h91l-175 -255l190 -298h-93l-164 258h-226v-258h-78v553zM304 1q27 0 44.5 -18t17.5 -45q0 -9 -4 -23l-51 -130l-43 10l16 84q-19 6 -31 22.5t-12 36.5q0 26 18.5 44.5t44.5 18.5z" />
    <glyph glyph-name="Lacute" unicode="&#x139;" horiz-adv-x="578" 
d="M57 553h78v-481h414v-72h-492v553zM71 622l48 185l69 -17l-51 -184z" />
    <glyph glyph-name="lacute" unicode="&#x13a;" horiz-adv-x="578" 
d="M57 553h78v-481h414v-72h-492v553zM71 622l48 185l69 -17l-51 -184z" />
    <glyph glyph-name="Lcommaaccent" unicode="&#x13b;" horiz-adv-x="578" 
d="M57 553h78v-481h414v-72h-492v553zM307 -45q27 0 44.5 -18t17.5 -45q0 -9 -4 -23l-51 -130l-43 10l16 84q-19 6 -31 22.5t-12 36.5q0 26 18.5 44.5t44.5 18.5z" />
    <glyph glyph-name="lcommaaccent" unicode="&#x13c;" horiz-adv-x="578" 
d="M57 553h78v-481h414v-72h-492v553zM307 -45q27 0 44.5 -18t17.5 -45q0 -9 -4 -23l-51 -130l-43 10l16 84q-19 6 -31 22.5t-12 36.5q0 26 18.5 44.5t44.5 18.5z" />
    <glyph glyph-name="Lcaron" unicode="&#x13d;" horiz-adv-x="578" 
d="M57 553h78v-481h414v-72h-492v553zM312 383l17 84q-19 5 -30.5 21.5t-11.5 37.5q0 26 18.5 44t45.5 18q25 0 43.5 -17.5t18.5 -44.5q0 -11 -5 -23l-53 -130z" />
    <glyph glyph-name="lcaron" unicode="&#x13e;" horiz-adv-x="578" 
d="M57 553h78v-481h414v-72h-492v553zM318 383l17 84q-19 5 -30.5 21.5t-11.5 37.5q0 26 18.5 44t45.5 18q25 0 43.5 -17.5t18.5 -44.5q0 -11 -5 -23l-53 -130z" />
    <glyph glyph-name="Ldot" unicode="&#x13f;" horiz-adv-x="578" 
d="M57 553h78v-481h414v-72h-492v553zM308 366q28 0 47 -19.5t19 -46.5q0 -28 -19 -46.5t-47 -18.5q-27 0 -46 18.5t-19 46.5q0 27 19 46.5t46 19.5z" />
    <glyph glyph-name="ldot" unicode="&#x140;" horiz-adv-x="578" 
d="M57 553h78v-481h414v-72h-492v553zM326 366q28 0 47 -19.5t19 -46.5q0 -28 -19 -46.5t-47 -18.5q-27 0 -46 18.5t-19 46.5q0 27 19 46.5t46 19.5z" />
    <glyph glyph-name="Lslash" unicode="&#x141;" horiz-adv-x="604" 
d="M35 230l-28 63l74 33v227h79v-193l109 49l28 -62l-137 -62v-211h415v-74h-494v251z" />
    <glyph glyph-name="lslash" unicode="&#x142;" horiz-adv-x="604" 
d="M35 230l-28 63l74 33v227h79v-193l109 49l28 -62l-137 -62v-211h415v-74h-494v251z" />
    <glyph glyph-name="Nacute" unicode="&#x143;" horiz-adv-x="679" 
d="M57 553h86l402 -450v450h77v-553h-87l-401 451v-451h-77v553zM301 629l48 185l69 -17l-51 -184z" />
    <glyph glyph-name="nacute" unicode="&#x144;" horiz-adv-x="679" 
d="M57 553h86l402 -450v450h77v-553h-87l-401 451v-451h-77v553zM301 629l48 185l69 -17l-51 -184z" />
    <glyph glyph-name="Ncommaaccent" unicode="&#x145;" horiz-adv-x="679" 
d="M57 553h86l402 -450v450h77v-553h-87l-401 451v-451h-77v553zM340 0q27 0 44.5 -18t17.5 -45q0 -9 -4 -23l-51 -130l-43 10l16 84q-19 6 -31 22.5t-12 36.5q0 26 18.5 44.5t44.5 18.5z" />
    <glyph glyph-name="ncommaaccent" unicode="&#x146;" horiz-adv-x="679" 
d="M57 553h86l402 -450v450h77v-553h-87l-401 451v-451h-77v553zM340 0q27 0 44.5 -18t17.5 -45q0 -9 -4 -23l-51 -130l-43 10l16 84q-19 6 -31 22.5t-12 36.5q0 26 18.5 44.5t44.5 18.5z" />
    <glyph glyph-name="Ncaron" unicode="&#x147;" horiz-adv-x="679" 
d="M57 553h86l402 -450v450h77v-553h-87l-401 451v-451h-77v553zM225 759l117 -73l117 73l33 -41l-150 -110l-150 110z" />
    <glyph glyph-name="ncaron" unicode="&#x148;" horiz-adv-x="679" 
d="M57 553h86l402 -450v450h77v-553h-87l-401 451v-451h-77v553zM222 759l117 -73l117 73l33 -41l-150 -110l-150 110z" />
    <glyph glyph-name="napostrophe" unicode="&#x149;" horiz-adv-x="770" 
d="M147 553h86l402 -450v450h77v-553h-87l-401 451v-451h-77v553zM53 708q27 0 44.5 -18t17.5 -45q0 -9 -4 -23l-51 -130l-43 10l16 84q-19 6 -31 22.5t-12 36.5q0 26 18.5 44.5t44.5 18.5z" />
    <glyph glyph-name="Omacron" unicode="&#x14c;" 
d="M119 276q1 -102 65.5 -161t164.5 -59q99 0 164 59.5t65 160.5t-65 160.5t-164 59.5q-100 0 -164.5 -59t-65.5 -161zM657 276q0 -129 -87.5 -209.5t-220.5 -80.5t-220.5 80.5t-87.5 209.5t87.5 209.5t220.5 80.5t220.5 -80.5t87.5 -209.5zM175 702h348v-66h-348v66z" />
    <glyph glyph-name="omacron" unicode="&#x14d;" 
d="M119 276q1 -102 65.5 -161t164.5 -59q99 0 164 59.5t65 160.5t-65 160.5t-164 59.5q-100 0 -164.5 -59t-65.5 -161zM657 276q0 -129 -87.5 -209.5t-220.5 -80.5t-220.5 80.5t-87.5 209.5t87.5 209.5t220.5 80.5t220.5 -80.5t87.5 -209.5zM175 702h348v-66h-348v66z" />
    <glyph glyph-name="Obreve" unicode="&#x14e;" 
d="M119 276q1 -102 65.5 -161t164.5 -59q99 0 164 59.5t65 160.5t-65 160.5t-164 59.5q-100 0 -164.5 -59t-65.5 -161zM657 276q0 -129 -87.5 -209.5t-220.5 -80.5t-220.5 80.5t-87.5 209.5t87.5 209.5t220.5 80.5t220.5 -80.5t87.5 -209.5zM457 735l43 -39
q-61 -76 -152 -76q-92 0 -151 76l43 39q46 -52 108 -52q63 0 109 52z" />
    <glyph glyph-name="obreve" unicode="&#x14f;" 
d="M119 276q1 -102 65.5 -161t164.5 -59q99 0 164 59.5t65 160.5t-65 160.5t-164 59.5q-100 0 -164.5 -59t-65.5 -161zM657 276q0 -129 -87.5 -209.5t-220.5 -80.5t-220.5 80.5t-87.5 209.5t87.5 209.5t220.5 80.5t220.5 -80.5t87.5 -209.5zM457 735l43 -39
q-61 -76 -152 -76q-92 0 -151 76l43 39q46 -52 108 -52q63 0 109 52z" />
    <glyph glyph-name="Ohungarumlaut" unicode="&#x150;" 
d="M119 276q1 -102 65.5 -161t164.5 -59q99 0 164 59.5t65 160.5t-65 160.5t-164 59.5q-100 0 -164.5 -59t-65.5 -161zM657 276q0 -129 -87.5 -209.5t-220.5 -80.5t-220.5 80.5t-87.5 209.5t87.5 209.5t220.5 80.5t220.5 -80.5t87.5 -209.5zM266 629l46 185l69 -17l-49 -184
zM384 629l52 185l69 -17l-55 -184z" />
    <glyph glyph-name="ohungarumlaut" unicode="&#x151;" 
d="M119 276q1 -102 65.5 -161t164.5 -59q99 0 164 59.5t65 160.5t-65 160.5t-164 59.5q-100 0 -164.5 -59t-65.5 -161zM657 276q0 -129 -87.5 -209.5t-220.5 -80.5t-220.5 80.5t-87.5 209.5t87.5 209.5t220.5 80.5t220.5 -80.5t87.5 -209.5zM265 629l46 185l69 -17l-49 -184
zM383 629l52 185l69 -17l-55 -184z" />
    <glyph glyph-name="OE" unicode="&#x152;" horiz-adv-x="1072" 
d="M555 553h453v-71h-375v-162h334v-72h-334v-176h391v-72h-469v69q-80 -83 -214 -83q-129 0 -211 75q-89 82 -89 215t89 215q82 75 211 75q136 0 214 -84v71zM119 276q0 -93 52 -151q63 -69 170 -69t171 69q48 54 48 151t-48 151q-64 69 -171 69t-170 -69q-52 -58 -52 -151
z" />
    <glyph glyph-name="oe" unicode="&#x153;" horiz-adv-x="1072" 
d="M555 553h453v-71h-375v-162h334v-72h-334v-176h391v-72h-469v69q-80 -83 -214 -83q-129 0 -211 75q-89 82 -89 215t89 215q82 75 211 75q136 0 214 -84v71zM119 276q0 -93 52 -151q63 -69 170 -69t171 69q48 54 48 151t-48 151q-64 69 -171 69t-170 -69q-52 -58 -52 -151
z" />
    <glyph glyph-name="Racute" unicode="&#x154;" horiz-adv-x="639" 
d="M57 553h322q95 0 159 -58.5t64 -151.5q0 -67 -33 -115.5t-89 -72.5l88 -155h-86l-75 134h-272v-134h-78v553zM135 481v-275h243q66 0 106 36.5t40 100.5q0 63 -40.5 100.5t-105.5 37.5h-243zM262 629l48 185l69 -17l-51 -184z" />
    <glyph glyph-name="racute" unicode="&#x155;" horiz-adv-x="639" 
d="M57 553h322q95 0 159 -58.5t64 -151.5q0 -67 -33 -115.5t-89 -72.5l88 -155h-86l-75 134h-272v-134h-78v553zM135 481v-275h243q66 0 106 36.5t40 100.5q0 63 -40.5 100.5t-105.5 37.5h-243zM262 629l48 185l69 -17l-51 -184z" />
    <glyph glyph-name="Rcommaaccent" unicode="&#x156;" horiz-adv-x="639" 
d="M57 553h322q95 0 159 -58.5t64 -151.5q0 -67 -33 -115.5t-89 -72.5l88 -155h-86l-75 134h-272v-134h-78v553zM135 481v-275h243q66 0 106 36.5t40 100.5q0 63 -40.5 100.5t-105.5 37.5h-243zM310 3q27 0 44.5 -18t17.5 -45q0 -9 -4 -23l-51 -130l-43 10l16 84
q-19 6 -31 22.5t-12 36.5q0 26 18.5 44.5t44.5 18.5z" />
    <glyph glyph-name="rcommaaccent" unicode="&#x157;" horiz-adv-x="639" 
d="M57 553h322q95 0 159 -58.5t64 -151.5q0 -67 -33 -115.5t-89 -72.5l88 -155h-86l-75 134h-272v-134h-78v553zM135 481v-275h243q66 0 106 36.5t40 100.5q0 63 -40.5 100.5t-105.5 37.5h-243zM306 3q27 0 44.5 -18t17.5 -45q0 -9 -4 -23l-51 -130l-43 10l16 84
q-19 6 -31 22.5t-12 36.5q0 26 18.5 44.5t44.5 18.5z" />
    <glyph glyph-name="Rcaron" unicode="&#x158;" horiz-adv-x="639" 
d="M57 553h322q95 0 159 -58.5t64 -151.5q0 -67 -33 -115.5t-89 -72.5l88 -155h-86l-75 134h-272v-134h-78v553zM135 481v-275h243q66 0 106 36.5t40 100.5q0 63 -40.5 100.5t-105.5 37.5h-243zM188 759l117 -73l117 73l33 -41l-150 -110l-150 110z" />
    <glyph glyph-name="rcaron" unicode="&#x159;" horiz-adv-x="639" 
d="M57 553h322q95 0 159 -58.5t64 -151.5q0 -67 -33 -115.5t-89 -72.5l88 -155h-86l-75 134h-272v-134h-78v553zM135 481v-275h243q66 0 106 36.5t40 100.5q0 63 -40.5 100.5t-105.5 37.5h-243zM186 759l117 -73l117 73l33 -41l-150 -110l-150 110z" />
    <glyph glyph-name="Sacute" unicode="&#x15a;" horiz-adv-x="630" 
d="M568 496l-38 -58q-99 58 -225 58q-173 0 -173 -89q0 -35 25.5 -50t77.5 -21l176 -21q179 -22 179 -157q0 -86 -73.5 -129t-202.5 -43q-160 0 -275 78l39 63q58 -39 116 -55.5t135 -16.5q86 0 135 26t49 75q0 39 -26.5 59.5t-81.5 25.5l-178 20q-83 10 -127.5 43.5
t-44.5 101.5q0 79 70.5 119.5t179.5 40.5q81 0 142.5 -15t120.5 -55zM288 629l48 185l69 -17l-51 -184z" />
    <glyph glyph-name="sacute" unicode="&#x15b;" horiz-adv-x="630" 
d="M568 496l-38 -58q-99 58 -225 58q-173 0 -173 -89q0 -35 25.5 -50t77.5 -21l176 -21q179 -22 179 -157q0 -86 -73.5 -129t-202.5 -43q-160 0 -275 78l39 63q58 -39 116 -55.5t135 -16.5q86 0 135 26t49 75q0 39 -26.5 59.5t-81.5 25.5l-178 20q-83 10 -127.5 43.5
t-44.5 101.5q0 79 70.5 119.5t179.5 40.5q81 0 142.5 -15t120.5 -55zM290 629l48 185l69 -17l-51 -184z" />
    <glyph glyph-name="Scircumflex" unicode="&#x15c;" horiz-adv-x="630" 
d="M568 496l-38 -58q-99 58 -225 58q-173 0 -173 -89q0 -35 25.5 -50t77.5 -21l176 -21q179 -22 179 -157q0 -86 -73.5 -129t-202.5 -43q-160 0 -275 78l39 63q58 -39 116 -55.5t135 -16.5q86 0 135 26t49 75q0 39 -26.5 59.5t-81.5 25.5l-178 20q-83 10 -127.5 43.5
t-44.5 101.5q0 79 70.5 119.5t179.5 40.5q81 0 142.5 -15t120.5 -55zM428 605l-117 73l-118 -73l-32 41l150 110l150 -110z" />
    <glyph glyph-name="scircumflex" unicode="&#x15d;" horiz-adv-x="630" 
d="M568 496l-38 -58q-99 58 -225 58q-173 0 -173 -89q0 -35 25.5 -50t77.5 -21l176 -21q179 -22 179 -157q0 -86 -73.5 -129t-202.5 -43q-160 0 -275 78l39 63q58 -39 116 -55.5t135 -16.5q86 0 135 26t49 75q0 39 -26.5 59.5t-81.5 25.5l-178 20q-83 10 -127.5 43.5
t-44.5 101.5q0 79 70.5 119.5t179.5 40.5q81 0 142.5 -15t120.5 -55zM432 605l-117 73l-118 -73l-32 41l150 110l150 -110z" />
    <glyph glyph-name="Scedilla" unicode="&#x15e;" horiz-adv-x="630" 
d="M568 496l-38 -58q-99 58 -225 58q-173 0 -173 -89q0 -35 25.5 -50t77.5 -21l176 -21q179 -22 179 -157q0 -84 -69.5 -127t-192.5 -45v-31q47 -2 72 -24.5t25 -61.5q0 -48 -37.5 -72.5t-95.5 -24.5q-43 0 -81 19l16 48q30 -13 68 -13q65 0 65 43q0 34 -50 34h-45l-6 6
l8 79q-126 7 -228 76l39 63q105 -72 251 -72q86 0 135 26t49 75q0 39 -26.5 59.5t-81.5 25.5l-178 20q-83 10 -127.5 43.5t-44.5 101.5q0 79 70.5 119.5t179.5 40.5q81 0 142.5 -15t120.5 -55z" />
    <glyph glyph-name="scedilla" unicode="&#x15f;" horiz-adv-x="630" 
d="M568 496l-38 -58q-99 58 -225 58q-173 0 -173 -89q0 -35 25.5 -50t77.5 -21l176 -21q179 -22 179 -157q0 -84 -69.5 -127t-192.5 -45v-31q47 -2 72 -24.5t25 -61.5q0 -48 -37.5 -72.5t-95.5 -24.5q-43 0 -81 19l16 48q30 -13 68 -13q65 0 65 43q0 34 -50 34h-45l-6 6
l8 79q-126 7 -228 76l39 63q105 -72 251 -72q86 0 135 26t49 75q0 39 -26.5 59.5t-81.5 25.5l-178 20q-83 10 -127.5 43.5t-44.5 101.5q0 79 70.5 119.5t179.5 40.5q81 0 142.5 -15t120.5 -55z" />
    <glyph glyph-name="Scaron" unicode="&#x160;" horiz-adv-x="630" 
d="M568 496l-38 -58q-99 58 -225 58q-173 0 -173 -89q0 -35 25.5 -50t77.5 -21l176 -21q179 -22 179 -157q0 -86 -73.5 -129t-202.5 -43q-160 0 -275 78l39 63q58 -39 116 -55.5t135 -16.5q86 0 135 26t49 75q0 39 -26.5 59.5t-81.5 25.5l-178 20q-83 10 -127.5 43.5
t-44.5 101.5q0 79 70.5 119.5t179.5 40.5q81 0 142.5 -15t120.5 -55zM199 759l117 -73l117 73l33 -41l-150 -110l-150 110z" />
    <glyph glyph-name="scaron" unicode="&#x161;" horiz-adv-x="630" 
d="M568 496l-38 -58q-99 58 -225 58q-173 0 -173 -89q0 -35 25.5 -50t77.5 -21l176 -21q179 -22 179 -157q0 -86 -73.5 -129t-202.5 -43q-160 0 -275 78l39 63q58 -39 116 -55.5t135 -16.5q86 0 135 26t49 75q0 39 -26.5 59.5t-81.5 25.5l-178 20q-83 10 -127.5 43.5
t-44.5 101.5q0 79 70.5 119.5t179.5 40.5q81 0 142.5 -15t120.5 -55zM200 759l117 -73l117 73l33 -41l-150 -110l-150 110z" />
    <glyph glyph-name="Tcommaaccent" unicode="&#x162;" horiz-adv-x="629" 
d="M30 553h569v-72h-245v-481h-79v481h-245v72zM314 -39q27 0 44.5 -18t17.5 -45q0 -9 -4 -23l-51 -130l-43 10l16 84q-19 6 -31 22.5t-12 36.5q0 26 18.5 44.5t44.5 18.5z" />
    <glyph glyph-name="tcommaaccent" unicode="&#x163;" horiz-adv-x="629" 
d="M30 553h569v-72h-245v-481h-79v481h-245v72zM314 -39q27 0 44.5 -18t17.5 -45q0 -9 -4 -23l-51 -130l-43 10l16 84q-19 6 -31 22.5t-12 36.5q0 26 18.5 44.5t44.5 18.5z" />
    <glyph glyph-name="Tcaron" unicode="&#x164;" horiz-adv-x="629" 
d="M30 553h569v-72h-245v-481h-79v481h-245v72zM196 759l117 -73l117 73l33 -41l-150 -110l-150 110z" />
    <glyph glyph-name="tcaron" unicode="&#x165;" horiz-adv-x="629" 
d="M30 553h569v-72h-245v-481h-79v481h-245v72zM197 759l117 -73l117 73l33 -41l-150 -110l-150 110z" />
    <glyph glyph-name="Tbar" unicode="&#x166;" horiz-adv-x="629" 
d="M30 553h569v-72h-245v-164h123v-67h-123v-250h-79v250h-123v67h123v164h-245v72z" />
    <glyph glyph-name="tbar" unicode="&#x167;" horiz-adv-x="629" 
d="M30 553h569v-72h-245v-164h123v-67h-123v-250h-79v250h-123v67h123v164h-245v72z" />
    <glyph glyph-name="Utilde" unicode="&#x168;" horiz-adv-x="661" 
d="M52 553h78v-284q0 -99 50 -155.5t151 -56.5q100 0 150 56.5t50 155.5v284h79v-283q0 -135 -75 -209.5t-204 -74.5q-130 0 -204.5 74t-74.5 210v283zM481 719l34 -41q-39 -56 -113 -56q-28 0 -71.5 19t-68.5 19q-52 0 -84 -41l-39 39q46 66 124 66q38 0 78.5 -18t61.5 -18
q48 0 78 31z" />
    <glyph glyph-name="utilde" unicode="&#x169;" horiz-adv-x="661" 
d="M52 553h78v-284q0 -99 50 -155.5t151 -56.5q100 0 150 56.5t50 155.5v284h79v-283q0 -135 -75 -209.5t-204 -74.5q-130 0 -204.5 74t-74.5 210v283zM485 719l34 -41q-39 -56 -113 -56q-28 0 -71.5 19t-68.5 19q-52 0 -84 -41l-39 39q46 66 124 66q38 0 78.5 -18t61.5 -18
q48 0 78 31z" />
    <glyph glyph-name="Umacron" unicode="&#x16a;" horiz-adv-x="661" 
d="M52 553h78v-284q0 -99 50 -155.5t151 -56.5q100 0 150 56.5t50 155.5v284h79v-283q0 -135 -75 -209.5t-204 -74.5q-130 0 -204.5 74t-74.5 210v283zM157 702h348v-66h-348v66z" />
    <glyph glyph-name="umacron" unicode="&#x16b;" horiz-adv-x="661" 
d="M52 553h78v-284q0 -99 50 -155.5t151 -56.5q100 0 150 56.5t50 155.5v284h79v-283q0 -135 -75 -209.5t-204 -74.5q-130 0 -204.5 74t-74.5 210v283zM157 702h348v-66h-348v66z" />
    <glyph glyph-name="Ubreve" unicode="&#x16c;" horiz-adv-x="661" 
d="M52 553h78v-284q0 -99 50 -155.5t151 -56.5q100 0 150 56.5t50 155.5v284h79v-283q0 -135 -75 -209.5t-204 -74.5q-130 0 -204.5 74t-74.5 210v283zM439 735l43 -39q-61 -76 -152 -76q-92 0 -151 76l43 39q46 -52 108 -52q63 0 109 52z" />
    <glyph glyph-name="ubreve" unicode="&#x16d;" horiz-adv-x="661" 
d="M52 553h78v-284q0 -99 50 -155.5t151 -56.5q100 0 150 56.5t50 155.5v284h79v-283q0 -135 -75 -209.5t-204 -74.5q-130 0 -204.5 74t-74.5 210v283zM439 735l43 -39q-61 -76 -152 -76q-92 0 -151 76l43 39q46 -52 108 -52q63 0 109 52z" />
    <glyph glyph-name="Uring" unicode="&#x16e;" horiz-adv-x="661" 
d="M52 553h78v-284q0 -99 50 -155.5t151 -56.5q100 0 150 56.5t50 155.5v284h79v-283q0 -135 -75 -209.5t-204 -74.5q-130 0 -204.5 74t-74.5 210v283zM463 724q0 -55 -38 -88.5t-93 -33.5t-93 33.5t-38 88.5t38.5 89t92.5 34t92.5 -34t38.5 -89zM263 724q0 -31 19 -48.5
t50 -17.5t50 17.5t19 48.5t-19 49t-50 18t-50 -18t-19 -49z" />
    <glyph glyph-name="uring" unicode="&#x16f;" horiz-adv-x="661" 
d="M52 553h78v-284q0 -99 50 -155.5t151 -56.5q100 0 150 56.5t50 155.5v284h79v-283q0 -135 -75 -209.5t-204 -74.5q-130 0 -204.5 74t-74.5 210v283zM461 724q0 -55 -38 -88.5t-93 -33.5t-93 33.5t-38 88.5t38.5 89t92.5 34t92.5 -34t38.5 -89zM261 724q0 -31 19 -48.5
t50 -17.5t50 17.5t19 48.5t-19 49t-50 18t-50 -18t-19 -49z" />
    <glyph glyph-name="Uhungarumlaut" unicode="&#x170;" horiz-adv-x="661" 
d="M52 553h78v-284q0 -99 50 -155.5t151 -56.5q100 0 150 56.5t50 155.5v284h79v-283q0 -135 -75 -209.5t-204 -74.5q-130 0 -204.5 74t-74.5 210v283zM221 629l46 185l69 -17l-49 -184zM339 629l52 185l69 -17l-55 -184z" />
    <glyph glyph-name="uhungarumlaut" unicode="&#x171;" horiz-adv-x="661" 
d="M52 553h78v-284q0 -99 50 -155.5t151 -56.5q100 0 150 56.5t50 155.5v284h79v-283q0 -135 -75 -209.5t-204 -74.5q-130 0 -204.5 74t-74.5 210v283zM235 629l46 185l69 -17l-49 -184zM353 629l52 185l69 -17l-55 -184z" />
    <glyph glyph-name="Uogonek" unicode="&#x172;" horiz-adv-x="661" 
d="M52 553h78v-284q0 -99 50 -155.5t151 -56.5q100 0 150 56.5t50 155.5v284h79v-283q0 -128 -68 -201.5t-186 -81.5q-14 -25 -14 -57q0 -58 51 -95l-40 -32q-78 35 -78 108q0 48 23 76q-115 9 -180.5 82.5t-65.5 200.5v283z" />
    <glyph glyph-name="uogonek" unicode="&#x173;" horiz-adv-x="661" 
d="M52 553h78v-284q0 -99 50 -155.5t151 -56.5q100 0 150 56.5t50 155.5v284h79v-283q0 -128 -68 -201.5t-186 -81.5q-14 -25 -14 -57q0 -58 51 -95l-40 -32q-78 35 -78 108q0 48 23 76q-115 9 -180.5 82.5t-65.5 200.5v283z" />
    <glyph glyph-name="Wcircumflex" unicode="&#x174;" horiz-adv-x="1008" 
d="M30 553h84l161 -482h27l141 482h118l146 -482h28l161 482h82l-194 -553h-133l-140 471h-19l-137 -471h-132zM620 605l-117 73l-118 -73l-32 41l150 110l150 -110z" />
    <glyph glyph-name="wcircumflex" unicode="&#x175;" horiz-adv-x="1008" 
d="M30 553h84l161 -482h27l141 482h118l146 -482h28l161 482h82l-194 -553h-133l-140 471h-19l-137 -471h-132zM620 605l-117 73l-118 -73l-32 41l150 110l150 -110z" />
    <glyph glyph-name="Ycircumflex" unicode="&#x176;" horiz-adv-x="671" 
d="M30 553h91l209 -332h15l205 332h91l-267 -415v-138h-78v138zM455 605l-117 73l-118 -73l-32 41l150 110l150 -110z" />
    <glyph glyph-name="ycircumflex" unicode="&#x177;" horiz-adv-x="671" 
d="M30 553h91l209 -332h15l205 332h91l-267 -415v-138h-78v138zM452 605l-117 73l-118 -73l-32 41l150 110l150 -110z" />
    <glyph glyph-name="Ydieresis" unicode="&#x178;" horiz-adv-x="671" 
d="M30 553h91l209 -332h15l205 332h91l-267 -415v-138h-78v138zM216 740q25 0 42.5 -17t17.5 -41t-18 -41.5t-42 -17.5t-42 17.5t-18 41.5t17.5 41t42.5 17zM453 740q25 0 42.5 -17t17.5 -41t-17.5 -41.5t-42.5 -17.5q-24 0 -41.5 17.5t-17.5 41.5t17 41t42 17z" />
    <glyph glyph-name="Zacute" unicode="&#x179;" horiz-adv-x="605" 
d="M53 553h499v-71l-412 -414l214 4h211v-72h-525v72l416 412l-196 -3h-207v72zM263 629l48 185l69 -17l-51 -184z" />
    <glyph glyph-name="zacute" unicode="&#x17a;" horiz-adv-x="605" 
d="M53 553h499v-71l-412 -414l214 4h211v-72h-525v72l416 412l-196 -3h-207v72zM263 629l48 185l69 -17l-51 -184z" />
    <glyph glyph-name="Zdotaccent" unicode="&#x17b;" horiz-adv-x="605" 
d="M53 553h499v-71l-412 -414l214 4h211v-72h-525v72l416 412l-196 -3h-207v72zM302 743q27 0 45.5 -18.5t18.5 -43.5q0 -26 -18.5 -45t-45.5 -19q-26 0 -44.5 19t-18.5 45q0 25 18.5 43.5t44.5 18.5z" />
    <glyph glyph-name="zdotaccent" unicode="&#x17c;" horiz-adv-x="605" 
d="M53 553h499v-71l-412 -414l214 4h211v-72h-525v72l416 412l-196 -3h-207v72zM302 743q27 0 45.5 -18.5t18.5 -43.5q0 -26 -18.5 -45t-45.5 -19q-26 0 -44.5 19t-18.5 45q0 25 18.5 43.5t44.5 18.5z" />
    <glyph glyph-name="Zcaron" unicode="&#x17d;" horiz-adv-x="605" 
d="M53 553h499v-71l-412 -414l214 4h211v-72h-525v72l416 412l-196 -3h-207v72zM185 759l117 -73l117 73l33 -41l-150 -110l-150 110z" />
    <glyph glyph-name="zcaron" unicode="&#x17e;" horiz-adv-x="605" 
d="M53 553h499v-71l-412 -414l214 4h211v-72h-525v72l416 412l-196 -3h-207v72zM185 759l117 -73l117 73l33 -41l-150 -110l-150 110z" />
    <glyph glyph-name="AEacute" unicode="&#x1fc;" horiz-adv-x="1101" 
d="M383 553h651v-71h-414v-162h373v-71h-373v-177h434v-72h-513v105h-366l-73 -105h-93zM421 482l-193 -303h313v303h-120zM551 629l48 185l69 -17l-51 -184z" />
    <glyph glyph-name="aeacute" unicode="&#x1fd;" horiz-adv-x="1101" 
d="M383 553h651v-71h-414v-162h373v-71h-373v-177h434v-72h-513v105h-366l-73 -105h-93zM421 482l-193 -303h313v303h-120zM548 629l48 185l69 -17l-51 -184z" />
    <glyph glyph-name="Oslashacute" unicode="&#x1fe;" 
d="M490 589l65 -35l-24 -40q59 -38 92.5 -99.5t33.5 -138.5q0 -129 -87.5 -209t-220.5 -80q-59 0 -112 17l-26 -45l-63 35l23 40q-61 37 -95.5 99.5t-34.5 142.5q0 130 87.5 210t220.5 80q62 0 117 -20zM209 97l220 386q-41 13 -80 13q-100 0 -164.5 -59t-65.5 -161
q0 -118 90 -179zM494 451l-221 -384q34 -10 76 -10q99 0 164 59t65 160q0 114 -84 175zM331 629l48 185l69 -17l-51 -184z" />
    <glyph glyph-name="oslashacute" unicode="&#x1ff;" horiz-adv-x="692" 
d="M490 589l65 -35l-24 -40q59 -38 92.5 -99.5t33.5 -138.5q0 -129 -87.5 -209t-220.5 -80q-59 0 -112 17l-26 -45l-63 35l23 40q-61 37 -95.5 99.5t-34.5 142.5q0 130 87.5 210t220.5 80q62 0 117 -20zM209 97l220 386q-41 13 -80 13q-100 0 -164.5 -59t-65.5 -161
q0 -118 90 -179zM494 451l-221 -384q34 -10 76 -10q99 0 164 59t65 160q0 114 -84 175zM335 629l48 185l69 -17l-51 -184z" />
    <glyph glyph-name="uni0200" unicode="&#x200;" horiz-adv-x="731" 
d="M326 482l-136 -320h350l-132 320h-82zM278 553h181l235 -553h-82l-39 90h-413l-39 -90h-84zM408 814l46 -185l-66 -16l-49 184zM285 814l51 -185l-66 -16l-55 184z" />
    <glyph glyph-name="uni0201" unicode="&#x201;" horiz-adv-x="731" 
d="M326 482l-136 -320h350l-132 320h-82zM278 553h181l235 -553h-82l-39 90h-413l-39 -90h-84zM408 814l46 -185l-66 -16l-49 184zM285 814l51 -185l-66 -16l-55 184z" />
    <glyph glyph-name="uni0202" unicode="&#x202;" horiz-adv-x="731" 
d="M326 482l-136 -320h350l-132 320h-82zM278 553h181l235 -553h-82l-39 90h-413l-39 -90h-84zM482 599l-117 73l-118 -73l-32 41l150 110l150 -110z" />
    <glyph glyph-name="uni0203" unicode="&#x203;" horiz-adv-x="731" 
d="M326 482l-136 -320h350l-132 320h-82zM278 553h181l235 -553h-82l-39 90h-413l-39 -90h-84zM485 605l-117 73l-118 -73l-32 41l150 110l150 -110z" />
    <glyph glyph-name="uni0204" unicode="&#x204;" horiz-adv-x="608" 
d="M57 553h488v-71h-410v-163h368v-71h-368v-176h425v-72h-503v553zM359 814l46 -185l-66 -16l-49 184zM236 814l51 -185l-66 -16l-55 184z" />
    <glyph glyph-name="uni0205" unicode="&#x205;" horiz-adv-x="608" 
d="M57 553h488v-71h-410v-163h368v-71h-368v-176h425v-72h-503v553zM357 814l46 -185l-66 -16l-49 184zM234 814l51 -185l-66 -16l-55 184z" />
    <glyph glyph-name="uni0206" unicode="&#x206;" horiz-adv-x="608" 
d="M57 553h488v-71h-410v-163h368v-71h-368v-176h425v-72h-503v553zM420 602l-117 73l-118 -73l-32 41l150 110l150 -110z" />
    <glyph glyph-name="uni0207" unicode="&#x207;" horiz-adv-x="608" 
d="M57 553h488v-71h-410v-163h368v-71h-368v-176h425v-72h-503v553zM420 602l-117 73l-118 -73l-32 41l150 110l150 -110z" />
    <glyph glyph-name="uni0208" unicode="&#x208;" horiz-adv-x="192" 
d="M57 553h78v-553h-78v553zM148 814l46 -185l-66 -16l-49 184zM25 814l51 -185l-66 -16l-55 184z" />
    <glyph glyph-name="uni0209" unicode="&#x209;" horiz-adv-x="192" 
d="M57 553h78v-553h-78v553zM146 814l46 -185l-66 -16l-49 184zM23 814l51 -185l-66 -16l-55 184z" />
    <glyph glyph-name="uni020A" unicode="&#x20a;" horiz-adv-x="192" 
d="M57 553h78v-553h-78v553zM214 605l-117 73l-118 -73l-32 41l150 110l150 -110z" />
    <glyph glyph-name="uni020B" unicode="&#x20b;" horiz-adv-x="192" 
d="M57 553h78v-553h-78v553zM214 609l-117 73l-118 -73l-32 41l150 110l150 -110z" />
    <glyph glyph-name="uni020C" unicode="&#x20c;" 
d="M119 276q1 -102 65.5 -161t164.5 -59q99 0 164 59.5t65 160.5t-65 160.5t-164 59.5q-100 0 -164.5 -59t-65.5 -161zM657 276q0 -129 -87.5 -209.5t-220.5 -80.5t-220.5 80.5t-87.5 209.5t87.5 209.5t220.5 80.5t220.5 -80.5t87.5 -209.5zM389 814l46 -185l-66 -16
l-49 184zM266 814l51 -185l-66 -16l-55 184z" />
    <glyph glyph-name="uni020D" unicode="&#x20d;" 
d="M119 276q1 -102 65.5 -161t164.5 -59q99 0 164 59.5t65 160.5t-65 160.5t-164 59.5q-100 0 -164.5 -59t-65.5 -161zM657 276q0 -129 -87.5 -209.5t-220.5 -80.5t-220.5 80.5t-87.5 209.5t87.5 209.5t220.5 80.5t220.5 -80.5t87.5 -209.5zM391 814l46 -185l-66 -16
l-49 184zM268 814l51 -185l-66 -16l-55 184z" />
    <glyph glyph-name="uni020E" unicode="&#x20e;" 
d="M119 276q1 -102 65.5 -161t164.5 -59q99 0 164 59.5t65 160.5t-65 160.5t-164 59.5q-100 0 -164.5 -59t-65.5 -161zM657 276q0 -129 -87.5 -209.5t-220.5 -80.5t-220.5 80.5t-87.5 209.5t87.5 209.5t220.5 80.5t220.5 -80.5t87.5 -209.5zM465 605l-117 73l-118 -73
l-32 41l150 110l150 -110z" />
    <glyph glyph-name="uni020F" unicode="&#x20f;" 
d="M119 276q1 -102 65.5 -161t164.5 -59q99 0 164 59.5t65 160.5t-65 160.5t-164 59.5q-100 0 -164.5 -59t-65.5 -161zM657 276q0 -129 -87.5 -209.5t-220.5 -80.5t-220.5 80.5t-87.5 209.5t87.5 209.5t220.5 80.5t220.5 -80.5t87.5 -209.5zM465 605l-117 73l-118 -73
l-32 41l150 110l150 -110z" />
    <glyph glyph-name="uni0210" unicode="&#x210;" horiz-adv-x="639" 
d="M57 553h322q95 0 159 -58.5t64 -151.5q0 -67 -33 -115.5t-89 -72.5l88 -155h-86l-75 134h-272v-134h-78v553zM135 481v-275h243q66 0 106 36.5t40 100.5q0 63 -40.5 100.5t-105.5 37.5h-243zM349 814l46 -185l-66 -16l-49 184zM226 814l51 -185l-66 -16l-55 184z" />
    <glyph glyph-name="uni0211" unicode="&#x211;" horiz-adv-x="639" 
d="M57 553h322q95 0 159 -58.5t64 -151.5q0 -67 -33 -115.5t-89 -72.5l88 -155h-86l-75 134h-272v-134h-78v553zM135 481v-275h243q66 0 106 36.5t40 100.5q0 63 -40.5 100.5t-105.5 37.5h-243zM346 814l46 -185l-66 -16l-49 184zM223 814l51 -185l-66 -16l-55 184z" />
    <glyph glyph-name="uni0212" unicode="&#x212;" horiz-adv-x="639" 
d="M57 553h322q95 0 159 -58.5t64 -151.5q0 -67 -33 -115.5t-89 -72.5l88 -155h-86l-75 134h-272v-134h-78v553zM135 481v-275h243q66 0 106 36.5t40 100.5q0 63 -40.5 100.5t-105.5 37.5h-243zM422 605l-117 73l-118 -73l-32 41l150 110l150 -110z" />
    <glyph glyph-name="uni0213" unicode="&#x213;" horiz-adv-x="639" 
d="M57 553h322q95 0 159 -58.5t64 -151.5q0 -67 -33 -115.5t-89 -72.5l88 -155h-86l-75 134h-272v-134h-78v553zM135 481v-275h243q66 0 106 36.5t40 100.5q0 63 -40.5 100.5t-105.5 37.5h-243zM419 605l-117 73l-118 -73l-32 41l150 110l150 -110z" />
    <glyph glyph-name="uni0214" unicode="&#x214;" horiz-adv-x="661" 
d="M52 553h78v-284q0 -99 50 -155.5t151 -56.5q100 0 150 56.5t50 155.5v284h79v-283q0 -135 -75 -209.5t-204 -74.5q-130 0 -204.5 74t-74.5 210v283zM375 814l46 -185l-66 -16l-49 184zM252 814l51 -185l-66 -16l-55 184z" />
    <glyph glyph-name="uni0215" unicode="&#x215;" horiz-adv-x="661" 
d="M52 553h78v-284q0 -99 50 -155.5t151 -56.5q100 0 150 56.5t50 155.5v284h79v-283q0 -135 -75 -209.5t-204 -74.5q-130 0 -204.5 74t-74.5 210v283zM375 814l46 -185l-66 -16l-49 184zM252 814l51 -185l-66 -16l-55 184z" />
    <glyph glyph-name="uni0216" unicode="&#x216;" horiz-adv-x="661" 
d="M52 553h78v-284q0 -99 50 -155.5t151 -56.5q100 0 150 56.5t50 155.5v284h79v-283q0 -135 -75 -209.5t-204 -74.5q-130 0 -204.5 74t-74.5 210v283zM448 605l-117 73l-118 -73l-32 41l150 110l150 -110z" />
    <glyph glyph-name="uni0217" unicode="&#x217;" horiz-adv-x="661" 
d="M52 553h78v-284q0 -99 50 -155.5t151 -56.5q100 0 150 56.5t50 155.5v284h79v-283q0 -135 -75 -209.5t-204 -74.5q-130 0 -204.5 74t-74.5 210v283zM448 605l-117 73l-118 -73l-32 41l150 110l150 -110z" />
    <glyph glyph-name="Scommaaccent" unicode="&#x218;" horiz-adv-x="630" 
d="M568 496l-38 -58q-99 58 -225 58q-173 0 -173 -89q0 -35 25.5 -50t77.5 -21l176 -21q179 -22 179 -157q0 -86 -73.5 -129t-202.5 -43q-160 0 -275 78l39 63q58 -39 116 -55.5t135 -16.5q86 0 135 26t49 75q0 39 -26.5 59.5t-81.5 25.5l-178 20q-83 10 -127.5 43.5
t-44.5 101.5q0 79 70.5 119.5t179.5 40.5q81 0 142.5 -15t120.5 -55zM312 -39q27 0 44.5 -18t17.5 -45q0 -9 -4 -23l-51 -130l-43 10l16 84q-19 6 -31 22.5t-12 36.5q0 26 18.5 44.5t44.5 18.5z" />
    <glyph glyph-name="scommaaccent" unicode="&#x219;" horiz-adv-x="630" 
d="M568 496l-38 -58q-99 58 -225 58q-173 0 -173 -89q0 -35 25.5 -50t77.5 -21l176 -21q179 -22 179 -157q0 -86 -73.5 -129t-202.5 -43q-160 0 -275 78l39 63q58 -39 116 -55.5t135 -16.5q86 0 135 26t49 75q0 39 -26.5 59.5t-81.5 25.5l-178 20q-83 10 -127.5 43.5
t-44.5 101.5q0 79 70.5 119.5t179.5 40.5q81 0 142.5 -15t120.5 -55zM312 -39q27 0 44.5 -18t17.5 -45q0 -9 -4 -23l-51 -130l-43 10l16 84q-19 6 -31 22.5t-12 36.5q0 26 18.5 44.5t44.5 18.5z" />
    <glyph glyph-name="uni021A" unicode="&#x21a;" horiz-adv-x="629" 
d="M30 553h569v-72h-245v-481h-79v481h-245v72zM315 -39q27 0 44.5 -18t17.5 -45q0 -9 -4 -23l-51 -130l-43 10l16 84q-19 6 -31 22.5t-12 36.5q0 26 18.5 44.5t44.5 18.5z" />
    <glyph glyph-name="uni021B" unicode="&#x21b;" horiz-adv-x="629" 
d="M30 553h569v-72h-245v-481h-79v481h-245v72zM315 -39q27 0 44.5 -18t17.5 -45q0 -9 -4 -23l-51 -130l-43 10l16 84q-19 6 -31 22.5t-12 36.5q0 26 18.5 44.5t44.5 18.5z" />
    <glyph glyph-name="dotlessj" unicode="&#x237;" horiz-adv-x="597" 
d="M462 553h78v-318q0 -114 -64 -181.5t-197 -67.5q-83 0 -146.5 34.5t-98.5 100.5l67 37q27 -49 74.5 -75t102.5 -26q102 0 143 48t41 141v307z" />
    <glyph glyph-name="circumflex" unicode="&#x2c6;" horiz-adv-x="351" 
d="M293 605l-117 73l-118 -73l-32 41l150 110l150 -110z" />
    <glyph glyph-name="caron" unicode="&#x2c7;" horiz-adv-x="351" 
d="M59 759l117 -73l117 73l33 -41l-150 -110l-150 110z" />
    <glyph glyph-name="breve" unicode="&#x2d8;" horiz-adv-x="380" 
d="M298 735l43 -39q-61 -76 -152 -76q-92 0 -151 76l43 39q46 -52 108 -52q63 0 109 52z" />
    <glyph glyph-name="dotaccent" unicode="&#x2d9;" horiz-adv-x="224" 
d="M112 743q27 0 45.5 -18.5t18.5 -43.5q0 -26 -18.5 -45t-45.5 -19q-26 0 -44.5 19t-18.5 45q0 25 18.5 43.5t44.5 18.5z" />
    <glyph glyph-name="ring" unicode="&#x2da;" horiz-adv-x="334" 
d="M298 724q0 -55 -38 -88.5t-93 -33.5t-93 33.5t-38 88.5t38.5 89t92.5 34t92.5 -34t38.5 -89zM98 724q0 -31 19 -48.5t50 -17.5t50 17.5t19 48.5t-19 49t-50 18t-50 -18t-19 -49z" />
    <glyph glyph-name="ogonek" unicode="&#x2db;" horiz-adv-x="380" 
d="M169 11l48 -3q-27 -37 -27 -78q0 -58 51 -95l-40 -32q-78 35 -78 108q0 62 46 100z" />
    <glyph glyph-name="tilde" unicode="&#x2dc;" horiz-adv-x="409" 
d="M357 719l34 -41q-39 -56 -113 -56q-28 0 -71.5 19t-68.5 19q-52 0 -84 -41l-39 39q46 66 124 66q38 0 78.5 -18t61.5 -18q48 0 78 31z" />
    <glyph glyph-name="hungarumlaut" unicode="&#x2dd;" horiz-adv-x="310" 
d="M34 629l46 185l69 -17l-49 -184zM152 629l52 185l69 -17l-55 -184z" />
    <glyph glyph-name="uni0400" unicode="&#x400;" horiz-adv-x="608" 
d="M57 553h488v-71h-410v-163h368v-71h-368v-176h425v-72h-503v553zM303 814l48 -185l-65 -16l-52 184z" />
    <glyph glyph-name="afii10023" unicode="&#x401;" horiz-adv-x="608" 
d="M57 553h488v-71h-410v-163h368v-71h-368v-176h425v-72h-503v553zM184 740q25 0 42.5 -17t17.5 -41t-18 -41.5t-42 -17.5t-42 17.5t-18 41.5t17.5 41t42.5 17zM421 740q25 0 42.5 -17t17.5 -41t-17.5 -41.5t-42.5 -17.5q-24 0 -41.5 17.5t-17.5 41.5t17 41t42 17z" />
    <glyph glyph-name="afii10051" unicode="&#x402;" horiz-adv-x="783" 
d="M30 553h557v-70h-249v-106h154q126 0 189.5 -67t63.5 -187q0 -74 -30 -153t-83 -135l-55 45q90 109 90 239q0 105 -45 146.5t-158 41.5h-126v-307h-79v483h-229v70z" />
    <glyph glyph-name="afii10052" unicode="&#x403;" horiz-adv-x="584" 
d="M57 553h497v-72h-419v-481h-78v553zM282 629l48 185l69 -17l-51 -184z" />
    <glyph glyph-name="afii10053" unicode="&#x404;" horiz-adv-x="654" 
d="M406 317v-69h-286q8 -84 69.5 -137t153.5 -53q132 0 210 96l61 -37q-92 -131 -268 -131q-135 0 -221 79t-86 212q0 132 86.5 210.5t219.5 78.5q177 0 268 -130l-62 -35q-71 93 -208 93q-91 0 -150.5 -47.5t-70.5 -129.5h284z" />
    <glyph glyph-name="afii10054" unicode="&#x405;" horiz-adv-x="630" 
d="M568 496l-38 -58q-99 58 -225 58q-173 0 -173 -89q0 -35 25.5 -50t77.5 -21l176 -21q179 -22 179 -157q0 -86 -73.5 -129t-202.5 -43q-160 0 -275 78l39 63q58 -39 116 -55.5t135 -16.5q86 0 135 26t49 75q0 39 -26.5 59.5t-81.5 25.5l-178 20q-83 10 -127.5 43.5
t-44.5 101.5q0 79 70.5 119.5t179.5 40.5q81 0 142.5 -15t120.5 -55z" />
    <glyph glyph-name="afii10055" unicode="&#x406;" horiz-adv-x="192" 
d="M57 553h78v-553h-78v553z" />
    <glyph glyph-name="afii10056" unicode="&#x407;" horiz-adv-x="192" 
d="M57 553h78v-553h-78v553zM-22 740q25 0 42.5 -17t17.5 -41t-18 -41.5t-42 -17.5t-42 17.5t-18 41.5t17.5 41t42.5 17zM215 740q25 0 42.5 -17t17.5 -41t-17.5 -41.5t-42.5 -17.5q-24 0 -41.5 17.5t-17.5 41.5t17 41t42 17z" />
    <glyph glyph-name="afii10057" unicode="&#x408;" horiz-adv-x="597" 
d="M462 553h78v-318q0 -114 -64 -181.5t-197 -67.5q-83 0 -146.5 34.5t-98.5 100.5l67 37q27 -49 74.5 -75t102.5 -26q102 0 143 48t41 141v307z" />
    <glyph glyph-name="afii10058" unicode="&#x409;" horiz-adv-x="1062" 
d="M219 553h398v-140h192q95 0 157 -56t62 -149q0 -94 -62 -151t-157 -57h-271v481h-254l-65 -347q-12 -66 -53 -100t-105 -34h-42v76h36q75 0 86 66zM617 341v-269h185q68 0 107.5 36t39.5 100t-39.5 98.5t-107.5 34.5h-185z" />
    <glyph glyph-name="afii10059" unicode="&#x40a;" horiz-adv-x="1024" 
d="M57 553h78v-230h363v230h79v-140h192q95 0 157 -56t62 -149q0 -94 -62 -151t-157 -57h-271v251h-363v-251h-78v553zM577 341v-269h186q68 0 107 36t39 100t-39 98.5t-107 34.5h-186z" />
    <glyph glyph-name="afii10060" unicode="&#x40b;" horiz-adv-x="783" 
d="M30 553h557v-71h-249v-105h154q126 0 189.5 -67t63.5 -187v-123h-78v123q0 101 -45 142.5t-152 41.5h-132v-307h-79v482h-229v71z" />
    <glyph glyph-name="afii10061" unicode="&#x40c;" horiz-adv-x="639" 
d="M57 553h78v-223h223l154 223h91l-175 -255l190 -298h-93l-164 258h-226v-258h-78v553zM275 623l48 185l69 -17l-51 -184z" />
    <glyph glyph-name="uni040D" unicode="&#x40d;" horiz-adv-x="680" 
d="M57 553h78v-451l408 451h80v-553h-78v448l-407 -448h-81v553zM312 814l48 -185l-65 -16l-52 184z" />
    <glyph glyph-name="afii10062" unicode="&#x40e;" horiz-adv-x="653" 
d="M27 553h81l88 -244q19 -51 76 -51h178l96 295h79l-146 -445q-16 -49 -55.5 -78.5t-92.5 -29.5h-141v69h134q65 0 83 52l23 65h-164q-52 0 -90.5 29t-56.5 80zM441 729l43 -39q-61 -76 -152 -76q-92 0 -151 76l43 39q46 -52 108 -52q63 0 109 52z" />
    <glyph glyph-name="afii10145" unicode="&#x40f;" horiz-adv-x="648" 
d="M57 553h78v-482h378v482h79v-553h-222l-10 -118h-64l-9 118h-230v553z" />
    <glyph glyph-name="afii10017" unicode="&#x410;" horiz-adv-x="731" 
d="M326 482l-136 -320h350l-132 320h-82zM278 553h181l235 -553h-82l-39 90h-413l-39 -90h-84z" />
    <glyph glyph-name="afii10018" unicode="&#x411;" horiz-adv-x="627" 
d="M57 553h465v-72h-387v-127h270q81 0 135 -49t54 -125q0 -75 -55 -127.5t-134 -52.5h-348v553zM135 283v-211h260q60 0 90 29.5t30 78.5q0 47 -30 75t-91 28h-259z" />
    <glyph glyph-name="afii10019" unicode="&#x412;" horiz-adv-x="648" 
d="M57 553h350q74 0 120.5 -38t46.5 -100q0 -72 -51 -108q43 -17 67 -53.5t24 -85.5q0 -71 -51 -119.5t-134 -48.5h-372v553zM135 481v-155h284q37 0 57.5 22t20.5 54q0 79 -97 79h-265zM135 256v-184h290q54 0 82.5 27t28.5 68t-26 65t-69 24h-306z" />
    <glyph glyph-name="afii10020" unicode="&#x413;" horiz-adv-x="584" 
d="M57 553h497v-72h-419v-481h-78v553z" />
    <glyph glyph-name="afii10021" unicode="&#x414;" horiz-adv-x="727" 
d="M206 553h420v-481h69v-187h-65l-8 115h-516l-9 -115h-65v187h73zM269 483l-80 -411h359v411h-279z" />
    <glyph glyph-name="afii10022" unicode="&#x415;" horiz-adv-x="608" 
d="M57 553h488v-71h-410v-163h368v-71h-368v-176h425v-72h-503v553z" />
    <glyph glyph-name="afii10024" unicode="&#x416;" horiz-adv-x="917" 
d="M41 553h89l135 -227h154v227h78v-227h155l135 227h89l-155 -256l174 -297h-92l-147 255h-159v-255h-78v255h-158l-148 -255h-91l174 297z" />
    <glyph glyph-name="afii10025" unicode="&#x417;" horiz-adv-x="653" 
d="M211 334h205q86 0 86 70q0 92 -186 92q-124 0 -224 -60l-34 61q116 69 258 69q119 0 190 -38q75 -40 75 -120q0 -68 -59 -98q46 -14 71 -50t25 -85q0 -78 -70 -132q-76 -57 -236 -57q-161 0 -281 74l36 62q111 -65 252 -65q103 0 161.5 30.5t58.5 89.5q0 87 -116 87h-212
v70z" />
    <glyph glyph-name="afii10026" unicode="&#x418;" horiz-adv-x="680" 
d="M57 553h78v-451l408 451h80v-553h-78v448l-407 -448h-81v553z" />
    <glyph glyph-name="afii10027" unicode="&#x419;" horiz-adv-x="680" 
d="M57 553h78v-451l408 451h80v-553h-78v448l-407 -448h-81v553zM448 713l43 -39q-61 -76 -152 -76q-92 0 -151 76l43 39q46 -52 108 -52q63 0 109 52z" />
    <glyph glyph-name="afii10028" unicode="&#x41a;" horiz-adv-x="639" 
d="M57 553h78v-223h223l154 223h91l-175 -255l190 -298h-93l-164 258h-226v-258h-78v553z" />
    <glyph glyph-name="afii10029" unicode="&#x41b;" horiz-adv-x="698" 
d="M216 553h425v-553h-78v481h-282l-65 -347q-12 -66 -53 -100t-105 -34h-46v76h40q75 0 86 66z" />
    <glyph glyph-name="afii10030" unicode="&#x41c;" horiz-adv-x="845" 
d="M56 553h130l237 -467h5l232 467h128v-553h-79v466h-15l-232 -466h-77l-237 466h-15v-466h-77v553z" />
    <glyph glyph-name="afii10031" unicode="&#x41d;" horiz-adv-x="667" 
d="M57 553h78v-230h397v230h79v-553h-79v251h-397v-251h-78v553z" />
    <glyph glyph-name="afii10032" unicode="&#x41e;" 
d="M119 276q1 -102 65.5 -161t164.5 -59q99 0 164 59.5t65 160.5t-65 160.5t-164 59.5q-100 0 -164.5 -59t-65.5 -161zM657 276q0 -129 -87.5 -209.5t-220.5 -80.5t-220.5 80.5t-87.5 209.5t87.5 209.5t220.5 80.5t220.5 -80.5t87.5 -209.5z" />
    <glyph glyph-name="afii10033" unicode="&#x41f;" horiz-adv-x="648" 
d="M57 553h535v-553h-78v482h-379v-482h-78v553z" />
    <glyph glyph-name="afii10034" unicode="&#x420;" horiz-adv-x="636" 
d="M57 553h322q95 0 159 -58.5t64 -151.5q0 -94 -64 -151.5t-159 -57.5h-244v-134h-78v553zM135 481v-275h243q66 0 106 36.5t40 100.5q0 63 -40.5 100.5t-105.5 37.5h-243z" />
    <glyph glyph-name="afii10035" unicode="&#x421;" horiz-adv-x="651" 
d="M614 436l-63 -37q-72 95 -208 95q-102 0 -163 -59.5t-61 -157.5q0 -96 62.5 -158t161.5 -62q133 0 208 97l64 -37q-92 -131 -269 -131q-135 0 -220.5 79t-85.5 212q0 132 86.5 210.5t219.5 78.5q179 0 268 -130z" />
    <glyph glyph-name="afii10036" unicode="&#x422;" horiz-adv-x="629" 
d="M30 553h569v-72h-245v-481h-79v481h-245v72z" />
    <glyph glyph-name="afii10037" unicode="&#x423;" horiz-adv-x="653" 
d="M27 553h81l88 -244q19 -51 76 -51h178l96 295h79l-146 -445q-16 -49 -55.5 -78.5t-92.5 -29.5h-141v69h134q65 0 83 52l23 65h-164q-52 0 -90.5 29t-56.5 80z" />
    <glyph glyph-name="afii10038" unicode="&#x424;" horiz-adv-x="863" 
d="M393 488v65h78v-65h136q95 0 157.5 -59t62.5 -153q0 -93 -62.5 -150.5t-157.5 -57.5h-136v-68h-78v68h-137q-95 0 -157 57.5t-62 150.5q0 94 62 153t157 59h137zM393 416h-132q-68 0 -107 -36.5t-39 -102.5q0 -64 40.5 -100.5t105.5 -36.5h132v276zM471 416v-276h131
q65 0 105.5 36.5t40.5 100.5q0 66 -39 102.5t-107 36.5h-131z" />
    <glyph glyph-name="afii10039" unicode="&#x425;" horiz-adv-x="659" 
d="M48 553h92l160 -232h58l163 232h89l-187 -261l207 -292h-93l-175 248h-65l-176 -248h-92l207 289z" />
    <glyph glyph-name="afii10040" unicode="&#x426;" horiz-adv-x="675" 
d="M57 553h78v-481h375v481h79v-481h63v-187h-65l-9 115h-521v553z" />
    <glyph glyph-name="afii10041" unicode="&#x427;" horiz-adv-x="638" 
d="M50 553h79v-198q0 -75 38.5 -113t111.5 -38h222v349h79v-553h-79v132h-243q-93 0 -150.5 58t-57.5 153v210z" />
    <glyph glyph-name="afii10042" unicode="&#x428;" horiz-adv-x="896" 
d="M57 553h77v-481h275v481h78v-481h275v481h78v-553h-783v553z" />
    <glyph glyph-name="afii10043" unicode="&#x429;" horiz-adv-x="926" 
d="M829 0h-772v553h77v-481h275v481h78v-481h275v481h78v-481h63v-187h-65z" />
    <glyph glyph-name="afii10044" unicode="&#x42a;" horiz-adv-x="723" 
d="M24 553h220v-139h226q95 0 157 -56.5t62 -149.5q0 -94 -62 -151t-157 -57h-304v481l-142 6v66zM244 341v-269h221q65 0 105 36.5t40 99.5t-39.5 98t-105.5 35h-221z" />
    <glyph glyph-name="afii10045" unicode="&#x42b;" horiz-adv-x="792" 
d="M657 553h78v-553h-78v553zM57 553h78v-140h229q95 0 157 -56t62 -149q0 -94 -62 -151t-157 -57h-307v553zM135 341v-269h223q68 0 107 36t39 100t-39 98.5t-107 34.5h-223z" />
    <glyph glyph-name="afii10046" unicode="&#x42c;" horiz-adv-x="618" 
d="M57 553h78v-140h229q95 0 157 -56t62 -149q0 -94 -62 -151t-157 -57h-307v553zM135 341v-269h223q68 0 107 36t39 100t-39 98.5t-107 34.5h-223z" />
    <glyph glyph-name="afii10047" unicode="&#x42d;" horiz-adv-x="654" 
d="M250 317h284q-11 82 -70.5 129.5t-150.5 47.5q-135 0 -207 -94l-62 36q90 130 268 130q133 0 219.5 -78.5t86.5 -210.5q0 -133 -86 -212t-221 -79q-177 0 -269 131l63 37q77 -96 208 -96q92 0 153.5 53t69.5 137h-286v69z" />
    <glyph glyph-name="afii10048" unicode="&#x42e;" horiz-adv-x="889" 
d="M57 553h76v-225h122q16 115 97.5 176.5t198.5 61.5q131 0 215 -75.5t84 -214.5t-84 -214.5t-215 -75.5q-125 0 -208.5 69.5t-90.5 199.5h-119v-255h-76v553zM329 276q0 -101 57.5 -160.5t164.5 -59.5t164.5 59.5t57.5 160.5t-57.5 160.5t-164.5 59.5t-164.5 -59.5
t-57.5 -160.5z" />
    <glyph glyph-name="afii10049" unicode="&#x42f;" horiz-adv-x="639" 
d="M582 553v-553h-78v137h-276l-77 -137h-87l87 157q-114 54 -114 184q0 94 62.5 153t156.5 59h326zM504 481h-242q-66 0 -106 -38.5t-40 -101.5t39.5 -97t106.5 -34h242v271z" />
    <glyph glyph-name="afii10065" unicode="&#x430;" horiz-adv-x="731" 
d="M326 482l-136 -320h350l-132 320h-82zM278 553h181l235 -553h-82l-39 90h-413l-39 -90h-84z" />
    <glyph glyph-name="afii10066" unicode="&#x431;" horiz-adv-x="627" 
d="M57 553h465v-72h-387v-127h270q81 0 135 -49t54 -125q0 -75 -55 -127.5t-134 -52.5h-348v553zM135 283v-211h260q60 0 90 29.5t30 78.5q0 47 -30 75t-91 28h-259z" />
    <glyph glyph-name="afii10067" unicode="&#x432;" horiz-adv-x="648" 
d="M57 553h350q74 0 120.5 -38t46.5 -100q0 -72 -51 -108q43 -17 67 -53.5t24 -85.5q0 -71 -51 -119.5t-134 -48.5h-372v553zM135 481v-155h284q37 0 57.5 22t20.5 54q0 79 -97 79h-265zM135 256v-184h290q54 0 82.5 27t28.5 68t-26 65t-69 24h-306z" />
    <glyph glyph-name="afii10068" unicode="&#x433;" horiz-adv-x="584" 
d="M57 553h497v-72h-419v-481h-78v553z" />
    <glyph glyph-name="afii10069" unicode="&#x434;" horiz-adv-x="727" 
d="M206 553h420v-481h69v-187h-65l-8 115h-516l-9 -115h-65v187h73zM269 483l-80 -411h359v411h-279z" />
    <glyph glyph-name="afii10070" unicode="&#x435;" horiz-adv-x="608" 
d="M57 553h488v-71h-410v-163h368v-71h-368v-176h425v-72h-503v553z" />
    <glyph glyph-name="afii10072" unicode="&#x436;" horiz-adv-x="917" 
d="M41 553h89l135 -227h154v227h78v-227h155l135 227h89l-155 -256l174 -297h-92l-147 255h-159v-255h-78v255h-158l-148 -255h-91l174 297z" />
    <glyph glyph-name="afii10073" unicode="&#x437;" horiz-adv-x="653" 
d="M211 334h205q86 0 86 70q0 92 -186 92q-124 0 -224 -60l-34 61q116 69 258 69q119 0 190 -38q75 -40 75 -120q0 -68 -59 -98q46 -14 71 -50t25 -85q0 -78 -70 -132q-76 -57 -236 -57q-161 0 -281 74l36 62q111 -65 252 -65q103 0 161.5 30.5t58.5 89.5q0 87 -116 87h-212
v70z" />
    <glyph glyph-name="afii10074" unicode="&#x438;" horiz-adv-x="680" 
d="M57 553h78v-451l408 451h80v-553h-78v448l-407 -448h-81v553z" />
    <glyph glyph-name="afii10075" unicode="&#x439;" horiz-adv-x="680" 
d="M57 553h78v-451l408 451h80v-553h-78v448l-407 -448h-81v553zM446 722l43 -39q-61 -76 -152 -76q-92 0 -151 76l43 39q46 -52 108 -52q63 0 109 52z" />
    <glyph glyph-name="afii10076" unicode="&#x43a;" horiz-adv-x="639" 
d="M57 553h78v-223h223l154 223h91l-175 -255l190 -298h-93l-164 258h-226v-258h-78v553z" />
    <glyph glyph-name="afii10077" unicode="&#x43b;" horiz-adv-x="698" 
d="M216 553h425v-553h-78v481h-282l-65 -347q-12 -66 -53 -100t-105 -34h-46v76h40q75 0 86 66z" />
    <glyph glyph-name="afii10078" unicode="&#x43c;" horiz-adv-x="845" 
d="M56 553h130l237 -467h5l232 467h128v-553h-79v466h-15l-232 -466h-77l-237 466h-15v-466h-77v553z" />
    <glyph glyph-name="afii10079" unicode="&#x43d;" horiz-adv-x="667" 
d="M57 553h78v-230h397v230h79v-553h-79v251h-397v-251h-78v553z" />
    <glyph glyph-name="afii10080" unicode="&#x43e;" 
d="M119 276q1 -102 65.5 -161t164.5 -59q99 0 164 59.5t65 160.5t-65 160.5t-164 59.5q-100 0 -164.5 -59t-65.5 -161zM657 276q0 -129 -87.5 -209.5t-220.5 -80.5t-220.5 80.5t-87.5 209.5t87.5 209.5t220.5 80.5t220.5 -80.5t87.5 -209.5z" />
    <glyph glyph-name="afii10081" unicode="&#x43f;" horiz-adv-x="648" 
d="M57 553h535v-553h-78v482h-379v-482h-78v553z" />
    <glyph glyph-name="afii10082" unicode="&#x440;" horiz-adv-x="637" 
d="M57 553h322q95 0 159 -58.5t64 -151.5q0 -94 -64 -151.5t-159 -57.5h-244v-134h-78v553zM135 481v-275h243q66 0 106 36.5t40 100.5q0 63 -40.5 100.5t-105.5 37.5h-243z" />
    <glyph glyph-name="afii10083" unicode="&#x441;" horiz-adv-x="651" 
d="M614 436l-63 -37q-72 95 -208 95q-102 0 -163 -59.5t-61 -157.5q0 -96 62.5 -158t161.5 -62q133 0 208 97l64 -37q-92 -131 -269 -131q-135 0 -220.5 79t-85.5 212q0 132 86.5 210.5t219.5 78.5q179 0 268 -130z" />
    <glyph glyph-name="afii10084" unicode="&#x442;" horiz-adv-x="629" 
d="M30 553h569v-72h-245v-481h-79v481h-245v72z" />
    <glyph glyph-name="afii10085" unicode="&#x443;" horiz-adv-x="653" 
d="M27 553h81l88 -244q19 -51 76 -51h178l96 295h79l-146 -445q-16 -49 -55.5 -78.5t-92.5 -29.5h-141v69h134q65 0 83 52l23 65h-164q-52 0 -90.5 29t-56.5 80z" />
    <glyph glyph-name="afii10086" unicode="&#x444;" horiz-adv-x="863" 
d="M393 488v65h78v-65h136q95 0 157.5 -59t62.5 -153q0 -93 -62.5 -150.5t-157.5 -57.5h-136v-68h-78v68h-137q-95 0 -157 57.5t-62 150.5q0 94 62 153t157 59h137zM393 416h-132q-68 0 -107 -36.5t-39 -102.5q0 -64 40.5 -100.5t105.5 -36.5h132v276zM471 416v-276h131
q65 0 105.5 36.5t40.5 100.5q0 66 -39 102.5t-107 36.5h-131z" />
    <glyph glyph-name="afii10087" unicode="&#x445;" horiz-adv-x="659" 
d="M48 553h92l160 -232h58l163 232h89l-187 -261l207 -292h-93l-175 248h-65l-176 -248h-92l207 289z" />
    <glyph glyph-name="afii10088" unicode="&#x446;" horiz-adv-x="675" 
d="M57 553h78v-481h375v481h79v-481h63v-187h-65l-9 115h-521v553z" />
    <glyph glyph-name="afii10089" unicode="&#x447;" horiz-adv-x="638" 
d="M50 553h79v-198q0 -75 38.5 -113t111.5 -38h222v349h79v-553h-79v132h-243q-93 0 -150.5 58t-57.5 153v210z" />
    <glyph glyph-name="afii10090" unicode="&#x448;" horiz-adv-x="896" 
d="M57 553h77v-481h275v481h78v-481h275v481h78v-553h-783v553z" />
    <glyph glyph-name="afii10091" unicode="&#x449;" horiz-adv-x="926" 
d="M829 0h-772v553h77v-481h275v481h78v-481h275v481h78v-481h63v-187h-65z" />
    <glyph glyph-name="afii10092" unicode="&#x44a;" horiz-adv-x="723" 
d="M24 553h220v-139h226q95 0 157 -56.5t62 -149.5q0 -94 -62 -151t-157 -57h-304v481l-142 6v66zM244 341v-269h221q65 0 105 36.5t40 99.5t-39.5 98t-105.5 35h-221z" />
    <glyph glyph-name="afii10093" unicode="&#x44b;" horiz-adv-x="792" 
d="M657 553h78v-553h-78v553zM57 553h78v-140h229q95 0 157 -56t62 -149q0 -94 -62 -151t-157 -57h-307v553zM135 341v-269h223q68 0 107 36t39 100t-39 98.5t-107 34.5h-223z" />
    <glyph glyph-name="afii10094" unicode="&#x44c;" horiz-adv-x="618" 
d="M57 553h78v-140h229q95 0 157 -56t62 -149q0 -94 -62 -151t-157 -57h-307v553zM135 341v-269h223q68 0 107 36t39 100t-39 98.5t-107 34.5h-223z" />
    <glyph glyph-name="afii10095" unicode="&#x44d;" horiz-adv-x="654" 
d="M250 317h284q-11 82 -70.5 129.5t-150.5 47.5q-135 0 -207 -94l-62 36q90 130 268 130q133 0 219.5 -78.5t86.5 -210.5q0 -133 -86 -212t-221 -79q-177 0 -269 131l63 37q77 -96 208 -96q92 0 153.5 53t69.5 137h-286v69z" />
    <glyph glyph-name="afii10096" unicode="&#x44e;" horiz-adv-x="889" 
d="M57 553h76v-225h122q16 115 97.5 176.5t198.5 61.5q131 0 215 -75.5t84 -214.5t-84 -214.5t-215 -75.5q-125 0 -208.5 69.5t-90.5 199.5h-119v-255h-76v553zM329 276q0 -101 57.5 -160.5t164.5 -59.5t164.5 59.5t57.5 160.5t-57.5 160.5t-164.5 59.5t-164.5 -59.5
t-57.5 -160.5z" />
    <glyph glyph-name="afii10097" unicode="&#x44f;" horiz-adv-x="639" 
d="M582 553v-553h-78v137h-276l-77 -137h-87l87 157q-114 54 -114 184q0 94 62.5 153t156.5 59h326zM504 481h-242q-66 0 -106 -38.5t-40 -101.5t39.5 -97t106.5 -34h242v271z" />
    <glyph glyph-name="uni0450" unicode="&#x450;" horiz-adv-x="608" 
d="M57 553h488v-71h-410v-163h368v-71h-368v-176h425v-72h-503v553zM303 814l48 -185l-65 -16l-52 184z" />
    <glyph glyph-name="afii10071" unicode="&#x451;" horiz-adv-x="608" 
d="M57 553h488v-71h-410v-163h368v-71h-368v-176h425v-72h-503v553zM183 740q25 0 42.5 -17t17.5 -41t-17.5 -41.5t-42.5 -17.5t-42.5 17.5t-17.5 41.5t17.5 41t42.5 17zM420 740q25 0 42.5 -17t17.5 -41t-18 -41.5t-42 -17.5t-41.5 17.5t-17.5 41.5t17 41t42 17z" />
    <glyph glyph-name="afii10099" unicode="&#x452;" horiz-adv-x="783" 
d="M30 553h557v-70h-249v-106h154q126 0 189.5 -67t63.5 -187q0 -74 -30 -153t-83 -135l-55 45q90 109 90 239q0 105 -45 146.5t-158 41.5h-126v-307h-79v483h-229v70z" />
    <glyph glyph-name="afii10100" unicode="&#x453;" horiz-adv-x="584" 
d="M57 553h497v-72h-419v-481h-78v553zM268 629l48 185l69 -17l-51 -184z" />
    <glyph glyph-name="afii10101" unicode="&#x454;" horiz-adv-x="654" 
d="M406 317v-69h-286q8 -84 69.5 -137t153.5 -53q132 0 210 96l61 -37q-92 -131 -268 -131q-135 0 -221 79t-86 212q0 132 86.5 210.5t219.5 78.5q177 0 268 -130l-62 -35q-71 93 -208 93q-91 0 -150.5 -47.5t-70.5 -129.5h284z" />
    <glyph glyph-name="afii10102" unicode="&#x455;" horiz-adv-x="630" 
d="M568 496l-38 -58q-99 58 -225 58q-173 0 -173 -89q0 -35 25.5 -50t77.5 -21l176 -21q179 -22 179 -157q0 -86 -73.5 -129t-202.5 -43q-160 0 -275 78l39 63q58 -39 116 -55.5t135 -16.5q86 0 135 26t49 75q0 39 -26.5 59.5t-81.5 25.5l-178 20q-83 10 -127.5 43.5
t-44.5 101.5q0 79 70.5 119.5t179.5 40.5q81 0 142.5 -15t120.5 -55z" />
    <glyph glyph-name="afii10103" unicode="&#x456;" horiz-adv-x="192" 
d="M57 553h78v-553h-78v553z" />
    <glyph glyph-name="afii10104" unicode="&#x457;" horiz-adv-x="192" 
d="M57 553h78v-553h-78v553zM-22 740q25 0 42.5 -17t17.5 -41t-18 -41.5t-42 -17.5t-42 17.5t-18 41.5t17.5 41t42.5 17zM215 740q25 0 42.5 -17t17.5 -41t-17.5 -41.5t-42.5 -17.5q-24 0 -41.5 17.5t-17.5 41.5t17 41t42 17z" />
    <glyph glyph-name="afii10105" unicode="&#x458;" horiz-adv-x="597" 
d="M462 553h78v-318q0 -114 -64 -181.5t-197 -67.5q-83 0 -146.5 34.5t-98.5 100.5l67 37q27 -49 74.5 -75t102.5 -26q102 0 143 48t41 141v307z" />
    <glyph glyph-name="afii10106" unicode="&#x459;" horiz-adv-x="1062" 
d="M219 553h398v-140h192q95 0 157 -56t62 -149q0 -94 -62 -151t-157 -57h-271v481h-254l-65 -347q-12 -66 -53 -100t-105 -34h-42v76h36q75 0 86 66zM617 341v-269h185q68 0 107.5 36t39.5 100t-39.5 98.5t-107.5 34.5h-185z" />
    <glyph glyph-name="afii10107" unicode="&#x45a;" horiz-adv-x="1024" 
d="M57 553h78v-230h363v230h79v-140h192q95 0 157 -56t62 -149q0 -94 -62 -151t-157 -57h-271v251h-363v-251h-78v553zM577 341v-269h186q68 0 107 36t39 100t-39 98.5t-107 34.5h-186z" />
    <glyph glyph-name="afii10108" unicode="&#x45b;" horiz-adv-x="783" 
d="M30 553h557v-71h-249v-105h154q126 0 189.5 -67t63.5 -187v-123h-78v123q0 101 -45 142.5t-152 41.5h-132v-307h-79v482h-229v71z" />
    <glyph glyph-name="afii10109" unicode="&#x45c;" horiz-adv-x="639" 
d="M57 553h78v-223h223l154 223h91l-175 -255l190 -298h-93l-164 258h-226v-258h-78v553zM275 623l48 185l69 -17l-51 -184z" />
    <glyph glyph-name="uni045D" unicode="&#x45d;" horiz-adv-x="679" 
d="M311 814l48 -185l-66 -16l-52 184zM53 553h79v-451l407 451h81v-553h-78v448l-407 -448h-82v553z" />
    <glyph glyph-name="afii10110" unicode="&#x45e;" horiz-adv-x="653" 
d="M27 553h81l88 -244q19 -51 76 -51h178l96 295h79l-146 -445q-16 -49 -55.5 -78.5t-92.5 -29.5h-141v69h134q65 0 83 52l23 65h-164q-52 0 -90.5 29t-56.5 80zM441 729l43 -39q-61 -76 -152 -76q-92 0 -151 76l43 39q46 -52 108 -52q63 0 109 52z" />
    <glyph glyph-name="afii10193" unicode="&#x45f;" horiz-adv-x="648" 
d="M57 553h78v-482h378v482h79v-553h-222l-10 -118h-64l-9 118h-230v553z" />
    <glyph glyph-name="afii10147" unicode="&#x472;" 
d="M41 276q0 130 87.5 210t220.5 80t220.5 -80t87.5 -210q0 -129 -87.5 -209t-220.5 -80t-220.5 80t-87.5 209zM122 239q13 -85 75 -133.5t152 -48.5q96 0 160 55.5t68 151.5q-50 -41 -133 -41q-38 0 -106 27t-99 27q-70 0 -117 -38zM121 303q48 37 125 37q46 0 107.5 -25
t94.5 -25q75 0 124 38q-16 79 -77 123.5t-146 44.5q-92 0 -155.5 -51.5t-72.5 -141.5z" />
    <glyph glyph-name="afii10195" unicode="&#x473;" 
d="M41 276q0 130 87.5 210t220.5 80t220.5 -80t87.5 -210q0 -129 -87.5 -209t-220.5 -80t-220.5 80t-87.5 209zM122 239q13 -85 75 -133.5t152 -48.5q96 0 160 55.5t68 151.5q-50 -41 -133 -41q-38 0 -106 27t-99 27q-70 0 -117 -38zM121 303q48 37 125 37q46 0 107.5 -25
t94.5 -25q75 0 124 38q-16 79 -77 123.5t-146 44.5q-92 0 -155.5 -51.5t-72.5 -141.5z" />
    <glyph glyph-name="afii10050" unicode="&#x490;" horiz-adv-x="587" 
d="M57 553h423l12 119h62v-191h-419v-481h-78v553z" />
    <glyph glyph-name="afii10098" unicode="&#x491;" horiz-adv-x="587" 
d="M57 553h423l12 119h62v-191h-419v-481h-78v553z" />
    <glyph glyph-name="uni04D8" unicode="&#x4d8;" horiz-adv-x="683" 
d="M38 322h524q-12 82 -73.5 128t-153.5 46q-122 0 -190 -71l-48 53q88 88 238 88q134 0 222 -77.5t88 -212.5q0 -132 -84.5 -211t-218.5 -79q-132 0 -218 78t-86 212v46zM565 253h-447q6 -90 66 -143.5t158 -53.5q96 0 155 50.5t68 146.5z" />
    <glyph glyph-name="afii10846" unicode="&#x4d9;" horiz-adv-x="683" 
d="M38 322h524q-12 82 -73.5 128t-153.5 46q-122 0 -190 -71l-48 53q88 88 238 88q134 0 222 -77.5t88 -212.5q0 -132 -84.5 -211t-218.5 -79q-132 0 -218 78t-86 212v46zM565 253h-447q6 -90 66 -143.5t158 -53.5q96 0 155 50.5t68 146.5z" />
    <glyph glyph-name="Wgrave" unicode="&#x1e80;" horiz-adv-x="1008" 
d="M30 553h84l161 -482h27l141 482h118l146 -482h28l161 482h82l-194 -553h-133l-140 471h-19l-137 -471h-132zM489 814l48 -185l-65 -16l-52 184z" />
    <glyph glyph-name="wgrave" unicode="&#x1e81;" horiz-adv-x="1008" 
d="M30 553h84l161 -482h27l141 482h118l146 -482h28l161 482h82l-194 -553h-133l-140 471h-19l-137 -471h-132zM489 814l48 -185l-65 -16l-52 184z" />
    <glyph glyph-name="Wacute" unicode="&#x1e82;" horiz-adv-x="1008" 
d="M30 553h84l161 -482h27l141 482h118l146 -482h28l161 482h82l-194 -553h-133l-140 471h-19l-137 -471h-132zM469 629l48 185l69 -17l-51 -184z" />
    <glyph glyph-name="wacute" unicode="&#x1e83;" horiz-adv-x="1008" 
d="M30 553h84l161 -482h27l141 482h118l146 -482h28l161 482h82l-194 -553h-133l-140 471h-19l-137 -471h-132zM471 629l48 185l69 -17l-51 -184z" />
    <glyph glyph-name="Wdieresis" unicode="&#x1e84;" horiz-adv-x="1008" 
d="M30 553h84l161 -482h27l141 482h118l146 -482h28l161 482h82l-194 -553h-133l-140 471h-19l-137 -471h-132zM385 740q25 0 42.5 -17t17.5 -41t-17.5 -41.5t-42.5 -17.5t-42.5 17.5t-17.5 41.5t17.5 41t42.5 17zM622 740q25 0 42.5 -17t17.5 -41t-18 -41.5t-42 -17.5
t-41.5 17.5t-17.5 41.5t17 41t42 17z" />
    <glyph glyph-name="wdieresis" unicode="&#x1e85;" horiz-adv-x="1008" 
d="M30 553h84l161 -482h27l141 482h118l146 -482h28l161 482h82l-194 -553h-133l-140 471h-19l-137 -471h-132zM385 740q25 0 42.5 -17t17.5 -41t-17.5 -41.5t-42.5 -17.5t-42.5 17.5t-17.5 41.5t17.5 41t42.5 17zM622 740q25 0 42.5 -17t17.5 -41t-18 -41.5t-42 -17.5
t-41.5 17.5t-17.5 41.5t17 41t42 17z" />
    <glyph glyph-name="Ygrave" unicode="&#x1ef2;" horiz-adv-x="671" 
d="M30 553h91l209 -332h15l205 332h91l-267 -415v-138h-78v138zM326 814l48 -185l-65 -16l-52 184z" />
    <glyph glyph-name="ygrave" unicode="&#x1ef3;" horiz-adv-x="671" 
d="M30 553h91l209 -332h15l205 332h91l-267 -415v-138h-78v138zM327 814l48 -185l-65 -16l-52 184z" />
    <glyph glyph-name="endash" unicode="&#x2013;" horiz-adv-x="488" 
d="M40 318h408v-70h-408v70z" />
    <glyph glyph-name="emdash" unicode="&#x2014;" horiz-adv-x="568" 
d="M40 318h488v-70h-488v70z" />
    <glyph glyph-name="quoteleft" unicode="&#x2018;" horiz-adv-x="218" 
d="M141 599l-17 -84q19 -5 30.5 -21.5t11.5 -37.5q0 -26 -18.5 -43.5t-45.5 -17.5q-25 0 -43.5 17.5t-18.5 44.5q0 10 5 22l53 130z" />
    <glyph glyph-name="quoteright" unicode="&#x2019;" horiz-adv-x="203" 
d="M65 389l17 84q-19 5 -30.5 21.5t-11.5 37.5q0 26 18.5 44t45.5 18q25 0 43.5 -17.5t18.5 -44.5q0 -11 -5 -23l-53 -130z" />
    <glyph glyph-name="quotesinglbase" unicode="&#x201a;" horiz-adv-x="207" 
d="M65 -93l17 84q-19 5 -30.5 21.5t-11.5 37.5q0 26 18.5 44t45.5 18q25 0 43.5 -17.5t18.5 -44.5q0 -11 -5 -23l-53 -130z" />
    <glyph glyph-name="quotedblleft" unicode="&#x201c;" horiz-adv-x="345" 
d="M275 580l-12 -69q19 -5 31 -21.5t12 -37.5q0 -26 -18 -43.5t-45 -17.5q-26 0 -44 17.5t-18 44.5q0 10 5 22l48 115zM135 595l-17 -84q19 -5 30.5 -21.5t11.5 -37.5q0 -26 -18.5 -43.5t-45.5 -17.5q-25 0 -43.5 17.5t-18.5 44.5q0 10 5 22l53 130z" />
    <glyph glyph-name="quotedblright" unicode="&#x201d;" horiz-adv-x="346" 
d="M65 396l12 69q-19 5 -31 21.5t-12 37.5q0 26 18.5 43.5t45.5 17.5q25 0 43.5 -17.5t18.5 -44.5q0 -10 -5 -22l-48 -115zM206 381l17 84q-19 5 -30.5 21.5t-11.5 37.5q0 26 18 43.5t45 17.5q26 0 44 -17.5t18 -44.5q0 -10 -5 -22l-53 -130z" />
    <glyph glyph-name="quotedblbase" unicode="&#x201e;" horiz-adv-x="341" 
d="M65 -82l12 69q-19 5 -31 21.5t-12 37.5q0 26 18.5 43.5t45.5 17.5q25 0 43.5 -17.5t18.5 -44.5q0 -10 -5 -22l-48 -115zM206 -97l17 84q-19 5 -30.5 21.5t-11.5 37.5q0 26 18 43.5t45 17.5q26 0 44 -17.5t18 -44.5q0 -10 -5 -22l-53 -130z" />
    <glyph glyph-name="bullet" unicode="&#x2022;" horiz-adv-x="246" 
d="M122 387q36 0 61 -25.5t25 -61.5q0 -37 -25 -61.5t-61 -24.5q-37 0 -62 24.5t-25 61.5q0 36 25 61.5t62 25.5z" />
    <glyph glyph-name="ellipsis" unicode="&#x2026;" horiz-adv-x="629" 
d="M106 126q29 0 49 -20t20 -49q0 -28 -20 -47.5t-49 -19.5t-49.5 19.5t-20.5 47.5q0 29 20.5 49t49.5 20zM311 126q29 0 49 -20t20 -49q0 -28 -20 -47.5t-49 -19.5t-49.5 19.5t-20.5 47.5q0 29 20.5 49t49.5 20zM516 126q29 0 49 -20t20 -49q0 -28 -20 -47.5t-49 -19.5
t-49 19.5t-20 47.5q0 29 20 49t49 20z" />
    <glyph glyph-name="perthousand" unicode="&#x2030;" horiz-adv-x="1071" 
d="M501 557l60 -27l-319 -555l-60 27zM558 -9q-63 0 -106 40t-43 103t43 103.5t106 40.5q64 0 106.5 -40t42.5 -104t-42.5 -103.5t-106.5 -39.5zM558 51q37 0 60.5 22.5t23.5 60.5t-23.5 60.5t-60.5 22.5t-61 -22.5t-24 -60.5t24.5 -60.5t60.5 -22.5zM179 254
q-63 0 -106 40.5t-43 103.5t43 103.5t106 40.5q64 0 106.5 -40t42.5 -104t-42.5 -104t-106.5 -40zM179 315q37 0 60.5 22.5t23.5 60.5t-23.5 60.5t-60.5 22.5q-38 0 -61.5 -22.5t-23.5 -60.5t24 -60.5t61 -22.5zM890 -9q-63 0 -106 40t-43 103t43 103.5t106 40.5
q64 0 106.5 -40t42.5 -104t-42.5 -103.5t-106.5 -39.5zM890 51q37 0 60.5 22.5t23.5 60.5t-23.5 60.5t-60.5 22.5t-61 -22.5t-24 -60.5t24.5 -60.5t60.5 -22.5z" />
    <glyph glyph-name="guilsinglleft" unicode="&#x2039;" horiz-adv-x="261" 
d="M192 435l41 -41l-106 -126l106 -125l-41 -41l-168 166z" />
    <glyph glyph-name="guilsinglright" unicode="&#x203a;" horiz-adv-x="261" 
d="M69 435l168 -167l-168 -166l-42 41l106 125l-106 126z" />
    <glyph glyph-name="Euro" unicode="&#x20ac;" horiz-adv-x="651" 
d="M4 365h47q27 94 106.5 147.5t188.5 53.5q179 0 268 -130l-63 -37q-72 96 -208 96q-76 0 -130.5 -34.5t-77.5 -95.5h279v-63h-410v63zM4 253h410v-63h-278q24 -62 78 -97.5t129 -35.5q133 0 208 97l64 -37q-92 -131 -269 -131q-110 0 -189.5 54.5t-105.5 149.5h-47v63z
" />
    <glyph glyph-name="afii61352" unicode="&#x2116;" horiz-adv-x="986" 
d="M693 154h241v-60h-241v60zM813 202q-59 0 -99.5 36.5t-40.5 95.5t40.5 95.5t99.5 36.5q60 0 100 -36.5t40 -95.5t-40 -95.5t-100 -36.5zM813 260q33 0 54 20t21 54t-20.5 53.5t-54.5 19.5t-55 -19.5t-21 -53.5t21 -54t55 -20zM57 553h86l402 -450v450h77v-553h-87
l-401 451v-451h-77v553z" />
    <glyph glyph-name="trademark" unicode="&#x2122;" horiz-adv-x="653" 
d="M20 553h324l93 -185l94 185h74v-266h-56v186l-93 -186h-38l-94 186v-186h-55v215h-89v-215h-57v215h-103v51z" />
    <glyph glyph-name="minus" unicode="&#x2212;" horiz-adv-x="395" 
d="M40 318h315v-70h-315v70z" />
    <glyph glyph-name="percent" horiz-adv-x="740" 
d="M501 557l60 -27l-319 -555l-60 27zM558 -9q-63 0 -106 40t-43 103t43 103.5t106 40.5q64 0 106.5 -40t42.5 -104t-42.5 -103.5t-106.5 -39.5zM558 51q37 0 60.5 22.5t23.5 60.5t-23.5 60.5t-60.5 22.5t-61 -22.5t-24 -60.5t24.5 -60.5t60.5 -22.5zM179 254
q-63 0 -106 40.5t-43 103.5t43 103.5t106 40.5q64 0 106.5 -40t42.5 -104t-42.5 -104t-106.5 -40zM179 315q37 0 60.5 22.5t23.5 60.5t-23.5 60.5t-60.5 22.5q-38 0 -61.5 -22.5t-23.5 -60.5t24 -60.5t61 -22.5z" />
    <glyph glyph-name="cyrbreve" horiz-adv-x="380" 
d="M298 740l43 -39q-61 -76 -152 -76q-92 0 -151 76l43 39q46 -52 108 -52q63 0 109 52z" />
    <glyph glyph-name="commaaccent" horiz-adv-x="217" 
d="M105 -39q27 0 44.5 -18t17.5 -45q0 -9 -4 -23l-51 -130l-43 10l16 84q-19 6 -31 22.5t-12 36.5q0 26 18.5 44.5t44.5 18.5z" />
    <glyph glyph-name="dblgrave" horiz-adv-x="310" 
d="M227 814l46 -185l-66 -16l-49 184zM104 814l51 -185l-66 -16l-55 184z" />
    <glyph glyph-name="Imacron" horiz-adv-x="192" 
d="M57 553h78v-553h-78v553zM-77 702h348v-66h-348v66z" />
    <glyph glyph-name="ibreve" horiz-adv-x="192" 
d="M57 553h78v-553h-78v553zM208 735l43 -39q-61 -76 -152 -76q-92 0 -151 76l43 39q46 -52 108 -52q63 0 109 52z" />
    </font>
</defs>
</svg>
