<?xml version="1.0" standalone="no"?>
<!DOCTYPE svg PUBLIC "-//W3C//DTD SVG 1.1//EN" "http://www.w3.org/Graphics/SVG/1.1/DTD/svg11.dtd" >
<svg xmlns="http://www.w3.org/2000/svg" xmlns:xlink="http://www.w3.org/1999/xlink" version="1.1">
<metadata>
Created by FontForge 20201107 at Mon Oct  1 05:55:58 2012
 By 
Copyright (c) 2011 by Glenjan. All rights reserved.
</metadata>
<defs>
<font id="RoadRadio-Thin" horiz-adv-x="694" >
  <font-face 
    font-family="RoadRadio"
    font-weight="100"
    font-stretch="normal"
    units-per-em="1000"
    panose-1="2 0 0 0 0 0 0 0 0 0"
    ascent="800"
    descent="-200"
    x-height="553"
    cap-height="553"
    bbox="-98 -258 1057 847"
    underline-thickness="50"
    underline-position="-200"
    unicode-range="U+0020-2212"
  />
<missing-glyph horiz-adv-x="329" 
d="M50 553h145q44 0 72.5 -27t28.5 -69q0 -58 -47 -82l37 -68h-59l-30 56h-91v-56h-56v246zM106 503v-90h87q47 0 47 44q0 21 -13 33.5t-34 12.5h-87zM50 246h145q44 0 72.5 -27t28.5 -69q0 -58 -47 -82l37 -68h-59l-30 56h-91v-56h-56v246zM106 196v-90h87q47 0 47 44
q0 21 -13 33.5t-34 12.5h-87z" />
    <glyph glyph-name=".notdef" horiz-adv-x="329" 
d="M50 553h145q44 0 72.5 -27t28.5 -69q0 -58 -47 -82l37 -68h-59l-30 56h-91v-56h-56v246zM106 503v-90h87q47 0 47 44q0 21 -13 33.5t-34 12.5h-87zM50 246h145q44 0 72.5 -27t28.5 -69q0 -58 -47 -82l37 -68h-59l-30 56h-91v-56h-56v246zM106 196v-90h87q47 0 47 44
q0 21 -13 33.5t-34 12.5h-87z" />
    <glyph glyph-name=".null" horiz-adv-x="0" 
 />
    <glyph glyph-name="nonmarkingreturn" horiz-adv-x="333" 
 />
    <glyph glyph-name="space" unicode=" " horiz-adv-x="332" 
 />
    <glyph glyph-name="exclam" unicode="!" horiz-adv-x="194" 
d="M70 159v472h54v-472h-54zM97 103q24 0 40.5 -16.5t16.5 -40.5t-16.5 -40t-40.5 -16t-40.5 16t-16.5 40t16.5 40.5t40.5 16.5z" />
    <glyph glyph-name="quotedbl" unicode="&#x22;" horiz-adv-x="228" 
d="M35 553h54v-77l-13 -109h-41v186zM139 553h54v-77l-13 -109h-41v186z" />
    <glyph glyph-name="numbersign" unicode="#" horiz-adv-x="395" 
d="M40 253h76l9 76h-85v51h91l10 81h51l-10 -81h76l10 81h51l-10 -81h76v-51h-82l-9 -76h91v-51h-97l-10 -86h-51l10 86h-76l-10 -86h-51l10 86h-70v51zM176 329l-9 -76h76l9 76h-76z" />
    <glyph glyph-name="dollar" unicode="$" horiz-adv-x="620" 
d="M291 -96l-6 82q-140 4 -245 73l29 46q111 -69 256 -69q95 0 147.5 29.5t52.5 86.5q0 89 -131 103l-174 19q-167 18 -167 138q0 74 65.5 113t169.5 41l4 74h45l3 -75q123 -5 214 -63l-27 -39q-102 53 -227 53q-192 0 -192 -103q0 -42 29.5 -60t88.5 -25l181 -22
q83 -10 128 -48.5t45 -103.5q0 -79 -62 -120.5t-175 -46.5l-7 -83h-45z" />
    <glyph glyph-name="uni0025" unicode="%" horiz-adv-x="710" 
d="M498 554l47 -21l-320 -556l-47 21zM533 -7q-61 0 -103.5 38.5t-42.5 99.5t42.5 99.5t103.5 38.5q63 0 105 -38t42 -100t-42 -100t-105 -38zM533 40q42 0 67.5 25t25.5 66t-25.5 66t-67.5 25t-68 -25t-26 -66q0 -40 26.5 -65.5t67.5 -25.5zM176 260q-61 0 -103.5 38.5
t-42.5 99.5t42.5 99.5t103.5 38.5q63 0 105 -38t42 -100t-42 -100t-105 -38zM176 307q42 0 67.5 25t25.5 66t-25.5 66t-67.5 25t-68 -25t-26 -66q0 -40 26.5 -65.5t67.5 -25.5z" />
    <glyph glyph-name="ampersand" unicode="&#x26;" horiz-adv-x="695" 
d="M645 321v-34l-70 -17l64 -270h-30l-40 57q-113 -71 -253 -71q-123 0 -200 39q-78 47 -78 139q0 45 26 83t73 56q-56 34 -56 108q0 59 43 95q68 60 220 60q133 0 239 -53l-26 -45q-93 47 -215 47q-204 0 -204 -107q0 -87 86 -87h421zM310 37q127 0 248 69l-41 165h-296
q-56 0 -90.5 -29.5t-34.5 -74.5q0 -66 56.5 -98t157.5 -32z" />
    <glyph glyph-name="quotesingle" unicode="'" horiz-adv-x="124" 
d="M35 553h54v-77l-13 -109h-41v186z" />
    <glyph glyph-name="parenleft" unicode="(" horiz-adv-x="201" 
d="M114 604l47 -12q-56 -163 -56 -315t56 -315l-47 -12q-63 158 -63 327t63 327z" />
    <glyph glyph-name="parenright" unicode=")" horiz-adv-x="201" 
d="M40 592l47 12q63 -158 63 -327t-63 -327l-47 12q56 163 56 315t-56 315z" />
    <glyph glyph-name="asterisk" unicode="*" horiz-adv-x="340" 
d="M145 486l6 104h37l5 -105l94 49l18 -33l-87 -57l87 -56l-19 -32l-93 48l-5 -104h-37l-6 103l-91 -47l-19 31l87 57l-87 57l18 32z" />
    <glyph glyph-name="plus" unicode="+" horiz-adv-x="405" 
d="M40 309h136v132h51v-132h138v-51h-138v-132h-51v132h-136v51z" />
    <glyph glyph-name="comma" unicode="," horiz-adv-x="193" 
d="M68 -96l16 87q-20 4 -32 19t-12 36q0 24 16 40t40 16t40.5 -16t16.5 -40q0 -9 -4 -21l-51 -129z" />
    <glyph glyph-name="hyphen" unicode="-" horiz-adv-x="395" 
d="M40 309h315v-51h-315v51z" />
    <glyph glyph-name="period" unicode="." horiz-adv-x="194" 
d="M97 103q24 0 40.5 -16.5t16.5 -40.5t-16.5 -40t-40.5 -16t-40.5 16t-16.5 40t16.5 40.5t40.5 16.5z" />
    <glyph glyph-name="slash" unicode="/" horiz-adv-x="296" 
d="M224 593l52 -16l-204 -613l-52 16z" />
    <glyph glyph-name="zero" unicode="0" horiz-adv-x="654" 
d="M96 276q0 -110 66.5 -174t164.5 -64t164.5 64t66.5 174t-66.5 174t-164.5 64t-164.5 -64t-66.5 -174zM614 276q0 -130 -81.5 -210t-205.5 -80t-205.5 80t-81.5 210t81.5 210t205.5 80t205.5 -80t81.5 -210z" />
    <glyph glyph-name="one" unicode="1" horiz-adv-x="258" 
d="M29 553h169v-553h-56v501h-113v52z" />
    <glyph glyph-name="two" unicode="2" horiz-adv-x="559" 
d="M514 53v-53h-461v67l345 201q76 45 76 118q0 60 -46.5 94t-140.5 34q-122 0 -210 -77l-32 38q100 91 242 91q111 0 176.5 -45t65.5 -135q0 -100 -100 -159l-300 -174h385z" />
    <glyph glyph-name="three" unicode="3" horiz-adv-x="624" 
d="M215 327h188q96 0 96 83q0 54 -47 80.5t-150 26.5q-114 0 -217 -61l-25 45q111 65 243 65q107 0 170 -32q81 -41 81 -119q0 -72 -67 -105q50 -11 77.5 -48.5t27.5 -87.5q0 -76 -68 -130q-74 -58 -228 -58q-148 0 -266 69l26 47q63 -35 117.5 -50t129.5 -15q111 0 172 36
t61 101q0 51 -27 77t-96 26h-198v50z" />
    <glyph glyph-name="four" unicode="4" horiz-adv-x="621" 
d="M383 553h141v-404h66v-51h-66v-98h-55v98h-439v56zM406 504l-312 -355h375v355h-63z" />
    <glyph glyph-name="five" unicode="5" horiz-adv-x="592" 
d="M126 271l-49 4l17 278h413v-51h-365l-12 -180q79 36 189 36q108 0 170.5 -48t62.5 -131q0 -91 -73.5 -142t-197.5 -51q-149 0 -256 66l27 46q60 -34 111 -47.5t129 -13.5q103 0 154 40.5t51 101.5q0 130 -198 130q-94 0 -173 -38z" />
    <glyph glyph-name="six" unicode="6" horiz-adv-x="630" 
d="M554 519l-25 -46q-51 24 -89 33t-95 9q-105 0 -170 -58.5t-72 -169.5q59 34 110 47.5t130 13.5q102 0 169.5 -43.5t67.5 -133.5q0 -85 -69.5 -135.5t-188.5 -50.5q-134 0 -203 78t-69 214q0 127 83 208t212 81q109 0 209 -47zM106 237q8 -105 64.5 -152.5t164.5 -47.5
q92 0 140.5 37t48.5 98q0 66 -46.5 95.5t-150.5 29.5q-72 0 -120 -14t-101 -46z" />
    <glyph glyph-name="seven" unicode="7" horiz-adv-x="555" 
d="M222 0h-63l301 502h-425v51h490v-47z" />
    <glyph glyph-name="eight" unicode="8" horiz-adv-x="643" 
d="M322 566q122 0 179 -42.5t57 -106.5q0 -80 -72 -115q117 -30 117 -142q0 -81 -74.5 -127.5t-206.5 -46.5q-134 0 -208 46.5t-74 132.5q0 48 31 89t84 59q-69 29 -69 107q0 74 68.5 110t167.5 36zM443 261l-238 26q-52 -12 -80 -45.5t-28 -75.5q0 -60 54.5 -94.5
t170.5 -34.5q112 0 168.5 35t56.5 93q0 85 -104 96zM242 335l195 -20q66 39 66 96q0 105 -181 105t-181 -97q0 -39 24 -57.5t77 -26.5z" />
    <glyph glyph-name="nine" unicode="9" horiz-adv-x="630" 
d="M76 32l23 48q50 -26 89 -35t97 -9q110 0 172.5 58t69.5 170q-61 -35 -112 -50t-128 -15q-107 0 -172 43t-65 135q0 85 69.5 137t188.5 52q134 0 203 -78t69 -214q0 -128 -80 -208.5t-215 -80.5q-115 0 -209 47zM524 314q-8 105 -63.5 153.5t-162.5 48.5
q-91 0 -141.5 -39.5t-50.5 -100.5q0 -65 48 -95t149 -30q70 0 118.5 15t102.5 48z" />
    <glyph glyph-name="colon" unicode=":" horiz-adv-x="194" 
d="M97 408q24 0 40.5 -16.5t16.5 -40.5t-16.5 -40t-40.5 -16t-40.5 16t-16.5 40t16.5 40.5t40.5 16.5zM97 103q24 0 40.5 -16.5t16.5 -40.5t-16.5 -40t-40.5 -16t-40.5 16t-16.5 40t16.5 40.5t40.5 16.5z" />
    <glyph glyph-name="semicolon" unicode=";" horiz-adv-x="193" 
d="M97 408q24 0 40.5 -16.5t16.5 -40.5t-16.5 -40t-40.5 -16t-40.5 16t-16.5 40t16.5 40.5t40.5 16.5zM68 -96l16 87q-20 4 -32 19t-12 36q0 24 16 40t40 16t40.5 -16t16.5 -40q0 -9 -4 -21l-51 -129z" />
    <glyph glyph-name="less" unicode="&#x3c;" horiz-adv-x="247" 
d="M182 442l35 -33l-119 -134l119 -134l-35 -33l-162 167z" />
    <glyph glyph-name="equal" unicode="=" horiz-adv-x="375" 
d="M40 366h295v-51h-295v51zM40 246h295v-51h-295v51z" />
    <glyph glyph-name="greater" unicode="&#x3e;" horiz-adv-x="247" 
d="M65 442l162 -167l-162 -167l-35 33l119 134l-119 134z" />
    <glyph glyph-name="question" unicode="?" horiz-adv-x="575" 
d="M298 103q24 0 40.5 -16.5t16.5 -40.5t-16.5 -40t-40.5 -16t-40.5 16t-16.5 40t16.5 40.5t40.5 16.5zM270 159v65q0 31 20.5 59.5t58.5 39.5l44 13q59 17 83.5 49.5t24.5 82.5q0 136 -186 136q-141 0 -229 -75l-28 42q98 85 256 85q113 0 178 -47.5t65 -143.5
q0 -59 -33 -105t-98 -65l-48 -13q-53 -15 -53 -64v-59h-55z" />
    <glyph glyph-name="at" unicode="@" horiz-adv-x="705" 
d="M455 288v73q-38 28 -98 28q-48 0 -75 -26t-27 -72q0 -45 27.5 -69.5t71.5 -24.5q42 0 71.5 23.5t29.5 67.5zM507 384v-113q0 -72 51 -72q30 0 46.5 26t16.5 70q0 115 -66.5 183.5t-196.5 68.5q-114 0 -187 -69t-73 -183q0 -116 75 -187.5t202 -71.5q89 0 162 37l22 -43
q-79 -44 -185 -44q-154 0 -242.5 85t-88.5 224q0 136 91.5 219t223.5 83q144 0 230 -84.5t86 -217.5q0 -64 -33.5 -105t-87.5 -41q-55 0 -80 57q-43 -61 -121 -61q-66 0 -109 40t-43 106q0 65 44 106.5t111 41.5q87 0 152 -55z" />
    <glyph glyph-name="A" unicode="A" horiz-adv-x="727" 
d="M314 502l-151 -356h401l-148 356h-102zM282 553h170l235 -553h-58l-40 93h-448l-41 -93h-60z" />
    <glyph glyph-name="B" unicode="B" horiz-adv-x="648" 
d="M60 553h347q74 0 119.5 -36.5t45.5 -96.5q0 -77 -55 -115q45 -16 70.5 -53.5t25.5 -85.5q0 -70 -50.5 -118t-135.5 -48h-367v553zM116 501v-182h308q45 0 69 25.5t24 63.5q0 93 -117 93h-284zM116 268v-216h307q66 0 100 32t34 80q0 49 -30 76.5t-81 27.5h-330z" />
    <glyph glyph-name="C" unicode="C" horiz-adv-x="643" 
d="M606 445l-46 -28q-74 96 -219 96q-111 0 -177.5 -64.5t-66.5 -171.5q0 -104 68 -171.5t176 -67.5q138 0 220 99l47 -29q-96 -122 -264 -122q-134 0 -219 79t-85 212q0 132 85.5 210.5t218.5 78.5q171 0 262 -121z" />
    <glyph glyph-name="D" unicode="D" horiz-adv-x="663" 
d="M60 553h267q128 0 212 -74t84 -202q0 -127 -85.5 -202t-210.5 -75h-267v553zM116 502v-451h204q114 0 180.5 61t66.5 165t-66.5 164.5t-180.5 60.5h-204z" />
    <glyph glyph-name="E" unicode="E" horiz-adv-x="607" 
d="M60 553h481v-51h-425v-192h382v-51h-382v-208h441v-51h-497v553z" />
    <glyph glyph-name="F" unicode="F" horiz-adv-x="590" 
d="M60 0v553h481v-51h-425v-208h382v-51h-382v-243h-56z" />
    <glyph glyph-name="G" unicode="G" horiz-adv-x="682" 
d="M414 301h210v-301h-39l-12 68q-87 -82 -228 -82q-136 0 -220.5 79t-84.5 212q0 132 86 210.5t219 78.5q171 0 262 -119l-45 -27q-75 94 -220 94q-111 0 -178 -65t-67 -172q0 -103 69.5 -171t175.5 -68q149 0 229 95v116l-157 6v46z" />
    <glyph glyph-name="H" unicode="H" horiz-adv-x="670" 
d="M60 553h56v-239h438v239h56v-553h-56v262h-438v-262h-56v553z" />
    <glyph glyph-name="I" unicode="I" horiz-adv-x="176" 
d="M60 553h56v-553h-56v553z" />
    <glyph glyph-name="J" unicode="J" horiz-adv-x="597" 
d="M480 553h56v-322q0 -114 -61.5 -179.5t-193.5 -65.5q-167 0 -241 125l47 29q31 -51 82.5 -77t109.5 -26q112 0 156.5 51.5t44.5 153.5v311z" />
    <glyph glyph-name="K" unicode="K" horiz-adv-x="632" 
d="M60 553h56v-232h254l160 232h65l-174 -255l190 -298h-66l-173 270h-256v-270h-56v553z" />
    <glyph glyph-name="L" unicode="L" horiz-adv-x="576" 
d="M60 553h56v-501h430v-52h-486v553z" />
    <glyph glyph-name="M" unicode="M" horiz-adv-x="853" 
d="M60 553h112l257 -499h6l247 499h111v-553h-56v505h-20l-254 -505h-64l-264 505h-20v-505h-55v553z" />
    <glyph glyph-name="N" unicode="N" horiz-adv-x="682" 
d="M60 553h70l437 -488v488h55v-553h-71l-436 490v-490h-55v553z" />
    <glyph glyph-name="O" unicode="O" 
d="M96 276q1 -111 71.5 -174.5t179.5 -63.5t180 63.5t71 174.5t-71 174.5t-180 63.5t-179.5 -63.5t-71.5 -174.5zM654 276q0 -130 -86.5 -210t-220.5 -80t-220.5 80t-86.5 210t86.5 210t220.5 80t220.5 -80t86.5 -210z" />
    <glyph glyph-name="P" unicode="P" horiz-adv-x="636" 
d="M60 553h321q93 0 156.5 -57.5t63.5 -149.5q0 -93 -63.5 -150t-156.5 -57h-265v-139h-56v553zM116 501v-310h265q74 0 119.5 42t45.5 113t-45.5 113t-119.5 42h-265z" />
    <glyph glyph-name="Q" unicode="Q" 
d="M645 22l-36 -37l-63 62q-83 -61 -199 -61q-134 0 -220.5 80t-86.5 210t86.5 210t220.5 80t220.5 -80t86.5 -210q0 -116 -70 -194zM480 187l66 -66q52 61 52 155q0 111 -71 174.5t-180 63.5t-180 -63.5t-71 -174.5t71 -174.5t180 -63.5q95 0 160 47l-64 65z" />
    <glyph glyph-name="R" unicode="R" horiz-adv-x="641" 
d="M60 553h321q93 0 156.5 -57.5t63.5 -149.5q0 -69 -35 -118.5t-94 -71.5l89 -156h-62l-79 139h-304v-139h-56v553zM116 501v-310h265q74 0 119.5 42t45.5 113t-45.5 113t-119.5 42h-265z" />
    <glyph glyph-name="S" unicode="S" horiz-adv-x="620" 
d="M554 502l-27 -42q-102 56 -227 56q-192 0 -192 -103q0 -42 29.5 -60t88.5 -25l181 -22q83 -10 128 -48.5t45 -103.5q0 -85 -71 -126.5t-200 -41.5q-157 0 -269 73l29 46q58 -38 116 -53.5t140 -15.5q95 0 147.5 29.5t52.5 86.5q0 89 -131 103l-174 19q-167 18 -167 138
q0 76 69.5 115t177.5 39q79 0 137.5 -13.5t116.5 -50.5z" />
    <glyph glyph-name="T" unicode="T" horiz-adv-x="626" 
d="M30 553h566v-52h-255v-501h-56v501h-255v52z" />
    <glyph glyph-name="U" unicode="U" horiz-adv-x="664" 
d="M55 553h56v-284q0 -107 55 -169t166 -62q110 0 165.5 62t55.5 169v284h56v-283q0 -136 -74.5 -210t-202.5 -74q-129 0 -203 74t-74 210v283z" />
    <glyph glyph-name="V" unicode="V" horiz-adv-x="689" 
d="M30 553h60l219 -499h66l221 499h63l-248 -553h-138z" />
    <glyph glyph-name="W" unicode="W" horiz-adv-x="1005" 
d="M30 553h61l170 -499h37l151 499h102l158 -499h39l169 499h58l-192 -553h-114l-156 499h-25l-151 -499h-114z" />
    <glyph glyph-name="X" unicode="X" horiz-adv-x="647" 
d="M54 553h67l167 -241h70l171 241h64l-189 -261l213 -292h-68l-186 258h-78l-189 -258h-66l213 289z" />
    <glyph glyph-name="Y" unicode="Y" horiz-adv-x="656" 
d="M30 553h65l225 -350h19l222 350h65l-270 -415v-138h-56v138z" />
    <glyph glyph-name="Z" unicode="Z" horiz-adv-x="602" 
d="M54 553h491v-54l-435 -450l243 4h209v-53h-522v54l438 449l-219 -3h-205v53z" />
    <glyph glyph-name="bracketleft" unicode="[" horiz-adv-x="161" 
d="M40 636h121v-50h-67v-621h67v-49h-121v720z" />
    <glyph glyph-name="backslash" unicode="\" horiz-adv-x="296" 
d="M20 577l52 16l204 -613l-52 -16z" />
    <glyph glyph-name="bracketright" unicode="]" horiz-adv-x="161" 
d="M0 636h121v-720h-121v50h67v621h-67v49z" />
    <glyph glyph-name="asciicircum" unicode="^" horiz-adv-x="350" 
d="M175 584l150 -150l-29 -32l-121 110l-121 -110l-29 32z" />
    <glyph glyph-name="underscore" unicode="_" horiz-adv-x="475" 
d="M10 -68h455v-51h-455v51z" />
    <glyph glyph-name="grave" unicode="`" horiz-adv-x="205" 
d="M103 818l48 -188l-46 -10l-54 186z" />
    <glyph glyph-name="a" unicode="a" horiz-adv-x="727" 
d="M314 502l-151 -356h401l-148 356h-102zM282 553h170l235 -553h-58l-40 93h-448l-41 -93h-60z" />
    <glyph glyph-name="b" unicode="b" horiz-adv-x="648" 
d="M60 553h347q74 0 119.5 -36.5t45.5 -96.5q0 -77 -55 -115q45 -16 70.5 -53.5t25.5 -85.5q0 -70 -50.5 -118t-135.5 -48h-367v553zM116 501v-182h308q45 0 69 25.5t24 63.5q0 93 -117 93h-284zM116 268v-216h307q66 0 100 32t34 80q0 49 -30 76.5t-81 27.5h-330z" />
    <glyph glyph-name="c" unicode="c" horiz-adv-x="643" 
d="M606 445l-46 -28q-74 96 -219 96q-111 0 -177.5 -64.5t-66.5 -171.5q0 -104 68 -171.5t176 -67.5q138 0 220 99l47 -29q-96 -122 -264 -122q-134 0 -219 79t-85 212q0 132 85.5 210.5t218.5 78.5q171 0 262 -121z" />
    <glyph glyph-name="d" unicode="d" horiz-adv-x="663" 
d="M60 553h267q128 0 212 -74t84 -202q0 -127 -85.5 -202t-210.5 -75h-267v553zM116 502v-451h204q114 0 180.5 61t66.5 165t-66.5 164.5t-180.5 60.5h-204z" />
    <glyph glyph-name="e" unicode="e" horiz-adv-x="607" 
d="M60 553h481v-51h-425v-192h382v-51h-382v-208h441v-51h-497v553z" />
    <glyph glyph-name="f" unicode="f" horiz-adv-x="590" 
d="M60 0v553h481v-51h-425v-208h382v-51h-382v-243h-56z" />
    <glyph glyph-name="g" unicode="g" horiz-adv-x="682" 
d="M414 301h210v-301h-39l-12 68q-87 -82 -228 -82q-136 0 -220.5 79t-84.5 212q0 132 86 210.5t219 78.5q171 0 262 -119l-45 -27q-75 94 -220 94q-111 0 -178 -65t-67 -172q0 -103 69.5 -171t175.5 -68q149 0 229 95v116l-157 6v46z" />
    <glyph glyph-name="h" unicode="h" horiz-adv-x="670" 
d="M60 553h56v-239h438v239h56v-553h-56v262h-438v-262h-56v553z" />
    <glyph glyph-name="i" unicode="i" horiz-adv-x="176" 
d="M60 553h56v-553h-56v553z" />
    <glyph glyph-name="j" unicode="j" horiz-adv-x="597" 
d="M480 553h56v-322q0 -114 -61.5 -179.5t-193.5 -65.5q-167 0 -241 125l47 29q31 -51 82.5 -77t109.5 -26q112 0 156.5 51.5t44.5 153.5v311z" />
    <glyph glyph-name="k" unicode="k" horiz-adv-x="632" 
d="M60 553h56v-232h254l160 232h65l-174 -255l190 -298h-66l-173 270h-256v-270h-56v553z" />
    <glyph glyph-name="l" unicode="l" horiz-adv-x="576" 
d="M60 553h56v-501h430v-52h-486v553z" />
    <glyph glyph-name="m" unicode="m" horiz-adv-x="853" 
d="M60 553h112l257 -499h6l247 499h111v-553h-56v505h-20l-254 -505h-64l-264 505h-20v-505h-55v553z" />
    <glyph glyph-name="n" unicode="n" horiz-adv-x="682" 
d="M60 553h70l437 -488v488h55v-553h-71l-436 490v-490h-55v553z" />
    <glyph glyph-name="o" unicode="o" 
d="M96 276q1 -111 71.5 -174.5t179.5 -63.5t180 63.5t71 174.5t-71 174.5t-180 63.5t-179.5 -63.5t-71.5 -174.5zM654 276q0 -130 -86.5 -210t-220.5 -80t-220.5 80t-86.5 210t86.5 210t220.5 80t220.5 -80t86.5 -210z" />
    <glyph glyph-name="p" unicode="p" horiz-adv-x="636" 
d="M60 553h321q93 0 156.5 -57.5t63.5 -149.5q0 -93 -63.5 -150t-156.5 -57h-265v-139h-56v553zM116 501v-310h265q74 0 119.5 42t45.5 113t-45.5 113t-119.5 42h-265z" />
    <glyph glyph-name="q" unicode="q" 
d="M645 22l-36 -37l-63 62q-83 -61 -199 -61q-134 0 -220.5 80t-86.5 210t86.5 210t220.5 80t220.5 -80t86.5 -210q0 -116 -70 -194zM480 187l66 -66q52 61 52 155q0 111 -71 174.5t-180 63.5t-180 -63.5t-71 -174.5t71 -174.5t180 -63.5q95 0 160 47l-64 65z" />
    <glyph glyph-name="r" unicode="r" horiz-adv-x="641" 
d="M60 553h321q93 0 156.5 -57.5t63.5 -149.5q0 -69 -35 -118.5t-94 -71.5l89 -156h-62l-79 139h-304v-139h-56v553zM116 501v-310h265q74 0 119.5 42t45.5 113t-45.5 113t-119.5 42h-265z" />
    <glyph glyph-name="s" unicode="s" horiz-adv-x="620" 
d="M554 502l-27 -42q-102 56 -227 56q-192 0 -192 -103q0 -42 29.5 -60t88.5 -25l181 -22q83 -10 128 -48.5t45 -103.5q0 -85 -71 -126.5t-200 -41.5q-157 0 -269 73l29 46q58 -38 116 -53.5t140 -15.5q95 0 147.5 29.5t52.5 86.5q0 89 -131 103l-174 19q-167 18 -167 138
q0 76 69.5 115t177.5 39q79 0 137.5 -13.5t116.5 -50.5z" />
    <glyph glyph-name="t" unicode="t" horiz-adv-x="626" 
d="M30 553h566v-52h-255v-501h-56v501h-255v52z" />
    <glyph glyph-name="u" unicode="u" horiz-adv-x="664" 
d="M55 553h56v-284q0 -107 55 -169t166 -62q110 0 165.5 62t55.5 169v284h56v-283q0 -136 -74.5 -210t-202.5 -74q-129 0 -203 74t-74 210v283z" />
    <glyph glyph-name="v" unicode="v" horiz-adv-x="689" 
d="M30 553h60l219 -499h66l221 499h63l-248 -553h-138z" />
    <glyph glyph-name="w" unicode="w" horiz-adv-x="1005" 
d="M30 553h61l170 -499h37l151 499h102l158 -499h39l169 499h58l-192 -553h-114l-156 499h-25l-151 -499h-114z" />
    <glyph glyph-name="x" unicode="x" horiz-adv-x="647" 
d="M54 553h67l167 -241h70l171 241h64l-189 -261l213 -292h-68l-186 258h-78l-189 -258h-66l213 289z" />
    <glyph glyph-name="y" unicode="y" horiz-adv-x="656" 
d="M30 553h65l225 -350h19l222 350h65l-270 -415v-138h-56v138z" />
    <glyph glyph-name="z" unicode="z" horiz-adv-x="602" 
d="M54 553h491v-54l-435 -450l243 4h209v-53h-522v54l438 449l-219 -3h-205v53z" />
    <glyph glyph-name="braceleft" unicode="{" horiz-adv-x="231" 
d="M231 -34v-50h-39q-38 0 -67 28.5t-29 72.5v173q0 25 -14 43t-37 18h-25v50h25q23 0 37 18t14 43v173q0 44 29 72.5t67 28.5h39v-50h-29q-50 0 -50 -51v-172q0 -62 -45 -87q45 -25 45 -87v-172q0 -51 50 -51h29z" />
    <glyph glyph-name="bar" unicode="|" horiz-adv-x="177" 
d="M117 586v-620h-57v620h57z" />
    <glyph glyph-name="braceright" unicode="}" horiz-adv-x="231" 
d="M0 -84v50h29q50 0 50 51v172q0 62 45 87q-45 25 -45 87v172q0 51 -50 51h-29v50h39q38 0 67 -28.5t29 -72.5v-173q0 -25 14 -43t37 -18h25v-50h-25q-23 0 -37 -18t-14 -43v-173q0 -44 -29 -72.5t-67 -28.5h-39z" />
    <glyph glyph-name="asciitilde" unicode="~" horiz-adv-x="435" 
d="M370 321l26 -32q-39 -50 -111 -50q-26 0 -70 19t-69 19q-58 0 -92 -43l-30 31q46 59 121 59q38 0 79 -18t62 -18q30 0 48 7t36 26z" />
    <glyph glyph-name="exclamdown" unicode="&#xa1;" horiz-adv-x="194" 
d="M124 394v-472h-54v472h54zM97 450q-24 0 -40.5 16.5t-16.5 40.5t16.5 40t40.5 16t40.5 -16t16.5 -40t-16.5 -40.5t-40.5 -16.5z" />
    <glyph glyph-name="cent" unicode="&#xa2;" horiz-adv-x="622" 
d="M313 612h45l4 -68q143 -10 223 -116l-44 -27q-72 92 -210 92q-108 0 -172 -62t-64 -165q0 -100 66 -164.5t170 -64.5q133 0 211 94l45 -28q-83 -105 -224 -115l-3 -81h-46l-5 80q-120 8 -194.5 83.5t-74.5 195.5q0 121 75 195.5t193 82.5z" />
    <glyph glyph-name="brokenbar" unicode="&#xa6;" horiz-adv-x="177" 
d="M117 299h-57v287h57v-287zM117 -34h-57v287h57v-287z" />
    <glyph glyph-name="section" unicode="&#xa7;" horiz-adv-x="573" 
d="M480 642l-24 -45q-76 39 -157 39q-160 0 -160 -88q0 -35 23.5 -54t72.5 -27l110 -17q87 -13 137.5 -56t50.5 -114q0 -94 -106 -145q38 -18 55 -45.5t17 -72.5q0 -70 -62.5 -105t-164.5 -35q-124 0 -210 47l23 48q86 -46 189 -46q85 0 128.5 26t43.5 69q0 38 -22 55.5
t-73 26.5l-121 20q-190 31 -190 171q0 48 28.5 88t78.5 62q-62 37 -62 107q0 65 64 100t147 35q106 0 184 -44zM357 393l-165 25q-94 -37 -94 -118q0 -102 117 -120l152 -25q109 38 109 121q0 100 -119 117z" />
    <glyph glyph-name="dieresis" unicode="&#xa8;" horiz-adv-x="444" 
d="M103 735q23 0 38.5 -15.5t15.5 -36.5t-15.5 -36.5t-38.5 -15.5q-22 0 -37.5 15.5t-15.5 36.5t15.5 36.5t37.5 15.5zM340 735q23 0 38.5 -15.5t15.5 -36.5t-15.5 -36.5t-38.5 -15.5q-22 0 -37.5 15.5t-15.5 36.5t15.5 36.5t37.5 15.5z" />
    <glyph glyph-name="copyright" unicode="&#xa9;" horiz-adv-x="724" 
d="M25 291q0 142 97.5 233t239.5 91t239.5 -91t97.5 -233t-97.5 -233t-239.5 -91t-239.5 91t-97.5 233zM515 397l-34 -35q-44 48 -114 48q-59 0 -92 -30.5t-33 -87.5q0 -54 33.5 -85.5t91.5 -31.5q71 0 115 48l33 -36q-60 -63 -148 -63q-77 0 -129 46t-52 122q0 77 52 123
t129 46q93 0 148 -64zM644 291q0 120 -79.5 195.5t-202.5 75.5t-202 -75.5t-79 -195.5t79 -195.5t202 -75.5t202.5 75.5t79.5 195.5z" />
    <glyph glyph-name="guillemotleft" unicode="&#xab;" horiz-adv-x="358" 
d="M183 448l31 -30l-115 -134l115 -134l-31 -30l-162 164zM303 438l31 -30l-105 -124l105 -124l-31 -30l-152 154z" />
    <glyph glyph-name="uni00AD" unicode="&#xad;" horiz-adv-x="395" 
d="M40 309h315v-51h-315v51z" />
    <glyph glyph-name="registered" unicode="&#xae;" horiz-adv-x="465" 
d="M77 415q0 -64 44.5 -107t110.5 -43t111 43t45 107t-45.5 107t-110.5 43q-66 0 -110.5 -43t-44.5 -107zM148 509h107q34 0 56 -19.5t22 -47.5q0 -40 -39 -59l35 -54h-48l-27 46h-63v-46h-43v180zM191 471v-58h69q30 0 30 30q0 28 -30 28h-69zM30 415q0 84 58.5 140
t143.5 56q84 0 143.5 -56t59.5 -140t-58.5 -139.5t-144.5 -55.5q-85 0 -143.5 56t-58.5 139z" />
    <glyph glyph-name="macron" unicode="&#xaf;" horiz-adv-x="415" 
d="M40 696h335v-50h-335v50z" />
    <glyph glyph-name="degree" unicode="&#xb0;" horiz-adv-x="340" 
d="M170 299q-59 0 -99.5 36.5t-40.5 95.5t40.5 95.5t99.5 36.5q60 0 100 -36.5t40 -95.5t-40 -95.5t-100 -36.5zM170 345q40 0 63.5 23.5t23.5 62.5t-23.5 62.5t-63.5 23.5t-64.5 -23.5t-24.5 -62.5t24.5 -62.5t64.5 -23.5z" />
    <glyph glyph-name="plusminus" unicode="&#xb1;" horiz-adv-x="405" 
d="M40 381h136v132h51v-132h138v-51h-138v-132h-51v132h-136v51zM45 148h315v-51h-315v51z" />
    <glyph glyph-name="acute" unicode="&#xb4;" horiz-adv-x="205" 
d="M51 630l48 188l52 -12l-54 -186z" />
    <glyph glyph-name="paragraph" unicode="&#xb6;" horiz-adv-x="501" 
d="M472 651l2 -38l-96 -24v-589h-56v594h-64v-594h-56v356q-64 0 -110.5 42t-46.5 106q0 63 46.5 105t110.5 42h270z" />
    <glyph glyph-name="periodcentered" unicode="&#xb7;" horiz-adv-x="194" 
d="M97 356q24 0 40.5 -16.5t16.5 -40.5t-16.5 -40t-40.5 -16t-40.5 16t-16.5 40t16.5 40.5t40.5 16.5z" />
    <glyph glyph-name="cedilla" unicode="&#xb8;" horiz-adv-x="238" 
d="M72 9l52 -5v-52q104 -5 104 -84q0 -47 -37 -71.5t-92 -24.5q-48 0 -85 20l15 43q33 -15 73 -15q72 0 72 48q0 38 -61 38h-45l-6 6z" />
    <glyph glyph-name="guillemotright" unicode="&#xbb;" horiz-adv-x="358" 
d="M144 418l31 30l162 -164l-162 -164l-31 30l115 134zM24 408l31 30l152 -154l-152 -154l-31 30l105 124z" />
    <glyph glyph-name="questiondown" unicode="&#xbf;" horiz-adv-x="575" 
d="M327 450q-24 0 -40.5 16.5t-16.5 40.5t16.5 40t40.5 16t40.5 -16t16.5 -40t-16.5 -40.5t-40.5 -16.5zM355 394v-65q0 -31 -20.5 -59.5t-58.5 -39.5l-44 -13q-59 -17 -83.5 -49.5t-24.5 -82.5q0 -136 186 -136q141 0 229 75l28 -42q-98 -85 -256 -85q-113 0 -178 47.5
t-65 143.5q0 59 33 105t98 65l48 13q53 15 53 64v59h55z" />
    <glyph glyph-name="Agrave" unicode="&#xc0;" horiz-adv-x="727" 
d="M314 502l-151 -356h401l-148 356h-102zM282 553h170l235 -553h-58l-40 93h-448l-41 -93h-60zM345 818l48 -188l-46 -10l-54 186z" />
    <glyph glyph-name="Aacute" unicode="&#xc1;" horiz-adv-x="727" 
d="M314 502l-151 -356h401l-148 356h-102zM282 553h170l235 -553h-58l-40 93h-448l-41 -93h-60zM348 631l48 188l52 -12l-54 -186z" />
    <glyph glyph-name="Acircumflex" unicode="&#xc2;" horiz-adv-x="727" 
d="M314 502l-151 -356h401l-148 356h-102zM282 553h170l235 -553h-58l-40 93h-448l-41 -93h-60zM489 608l-126 78l-126 -78l-24 30l150 110l150 -110z" />
    <glyph glyph-name="Atilde" unicode="&#xc3;" horiz-adv-x="727" 
d="M314 502l-151 -356h401l-148 356h-102zM282 553h170l235 -553h-58l-40 93h-448l-41 -93h-60zM523 700l26 -32q-39 -50 -111 -50q-26 0 -70 19t-69 19q-58 0 -92 -43l-30 31q46 59 121 59q38 0 79 -18t62 -18q30 0 48 7t36 26z" />
    <glyph glyph-name="Adieresis" unicode="&#xc4;" horiz-adv-x="727" 
d="M314 502l-151 -356h401l-148 356h-102zM282 553h170l235 -553h-58l-40 93h-448l-41 -93h-60zM244 735q23 0 38.5 -15.5t15.5 -36.5t-15.5 -36.5t-38.5 -15.5q-22 0 -37.5 15.5t-15.5 36.5t15.5 36.5t37.5 15.5zM481 735q23 0 38.5 -15.5t15.5 -36.5t-15.5 -36.5
t-38.5 -15.5q-22 0 -37.5 15.5t-15.5 36.5t15.5 36.5t37.5 15.5z" />
    <glyph glyph-name="Aring" unicode="&#xc5;" horiz-adv-x="727" 
d="M314 502l-151 -356h401l-148 356h-102zM282 553h170l235 -553h-58l-40 93h-448l-41 -93h-60zM494 726q0 -55 -38 -88t-93 -33t-93 33t-38 88t38 88t93 33t93 -33t38 -88zM283 726q0 -34 22.5 -55t57.5 -21t57.5 21t22.5 55t-22.5 55t-57.5 21t-57.5 -21t-22.5 -55z" />
    <glyph glyph-name="AE" unicode="&#xc6;" horiz-adv-x="1107" 
d="M382 553h654v-51h-427v-192h384v-51h-384v-208h448v-51h-504v109h-402l-76 -109h-66zM409 502l-218 -338h362v338h-144z" />
    <glyph glyph-name="Ccedilla" unicode="&#xc7;" horiz-adv-x="643" 
d="M606 445l-46 -28q-74 96 -219 96q-111 0 -177.5 -64.5t-66.5 -171.5q0 -104 68 -171.5t176 -67.5q138 0 220 99l47 -29q-90 -114 -244 -121v-35q104 -5 104 -84q0 -47 -37 -71.5t-92 -24.5q-48 0 -85 20l15 43q33 -15 73 -15q72 0 72 48q0 38 -61 38h-45l-6 6l8 76
q-121 10 -195.5 87.5t-74.5 201.5q0 132 85.5 210.5t218.5 78.5q171 0 262 -121z" />
    <glyph glyph-name="Egrave" unicode="&#xc8;" horiz-adv-x="607" 
d="M60 553h481v-51h-425v-192h382v-51h-382v-208h441v-51h-497v553zM301 818l48 -188l-46 -10l-54 186z" />
    <glyph glyph-name="Eacute" unicode="&#xc9;" horiz-adv-x="607" 
d="M60 553h481v-51h-425v-192h382v-51h-382v-208h441v-51h-497v553zM288 630l48 188l52 -12l-54 -186z" />
    <glyph glyph-name="Ecircumflex" unicode="&#xca;" horiz-adv-x="607" 
d="M60 553h481v-51h-425v-192h382v-51h-382v-208h441v-51h-497v553zM438 608l-126 78l-126 -78l-24 30l150 110l150 -110z" />
    <glyph glyph-name="Edieresis" unicode="&#xcb;" horiz-adv-x="607" 
d="M60 553h481v-51h-425v-192h382v-51h-382v-208h441v-51h-497v553zM181 735q23 0 38.5 -15.5t15.5 -36.5t-15.5 -36.5t-38.5 -15.5q-22 0 -37.5 15.5t-15.5 36.5t15.5 36.5t37.5 15.5zM418 735q23 0 38.5 -15.5t15.5 -36.5t-15.5 -36.5t-38.5 -15.5q-22 0 -37.5 15.5
t-15.5 36.5t15.5 36.5t37.5 15.5z" />
    <glyph glyph-name="Igrave" unicode="&#xcc;" horiz-adv-x="176" 
d="M60 553h56v-553h-56v553zM65 818l48 -188l-46 -10l-54 186z" />
    <glyph glyph-name="Iacute" unicode="&#xcd;" horiz-adv-x="176" 
d="M60 553h56v-553h-56v553zM64 630l48 188l52 -12l-54 -186z" />
    <glyph glyph-name="Icircumflex" unicode="&#xce;" horiz-adv-x="176" 
d="M60 553h56v-553h-56v553zM214 608l-126 78l-126 -78l-24 30l150 110l150 -110z" />
    <glyph glyph-name="Idieresis" unicode="&#xcf;" horiz-adv-x="176" 
d="M60 553h56v-553h-56v553zM-31 735q23 0 38.5 -15.5t15.5 -36.5t-15.5 -36.5t-38.5 -15.5q-22 0 -37.5 15.5t-15.5 36.5t15.5 36.5t37.5 15.5zM206 735q23 0 38.5 -15.5t15.5 -36.5t-15.5 -36.5t-38.5 -15.5q-22 0 -37.5 15.5t-15.5 36.5t15.5 36.5t37.5 15.5z" />
    <glyph glyph-name="Eth" unicode="&#xd0;" horiz-adv-x="674" 
d="M71 553h267q128 0 212 -74t84 -202q0 -127 -85.5 -202t-210.5 -75h-267v265h-61v51h61v237zM127 502v-186h174v-51h-174v-214h204q114 0 180.5 61t66.5 165t-66.5 164.5t-180.5 60.5h-204z" />
    <glyph glyph-name="Ntilde" unicode="&#xd1;" horiz-adv-x="682" 
d="M60 553h70l437 -488v488h55v-553h-71l-436 490v-490h-55v553zM496 711l26 -32q-39 -50 -111 -50q-26 0 -70 19t-69 19q-58 0 -92 -43l-30 31q46 59 121 59q38 0 79 -18t62 -18q30 0 48 7t36 26z" />
    <glyph glyph-name="Ograve" unicode="&#xd2;" 
d="M96 276q1 -111 71.5 -174.5t179.5 -63.5t180 63.5t71 174.5t-71 174.5t-180 63.5t-179.5 -63.5t-71.5 -174.5zM654 276q0 -130 -86.5 -210t-220.5 -80t-220.5 80t-86.5 210t86.5 210t220.5 80t220.5 -80t86.5 -210zM312 818l48 -188l-46 -10l-54 186z" />
    <glyph glyph-name="Oacute" unicode="&#xd3;" 
d="M96 276q1 -111 71.5 -174.5t179.5 -63.5t180 63.5t71 174.5t-71 174.5t-180 63.5t-179.5 -63.5t-71.5 -174.5zM654 276q0 -130 -86.5 -210t-220.5 -80t-220.5 80t-86.5 210t86.5 210t220.5 80t220.5 -80t86.5 -210zM330 630l48 188l52 -12l-54 -186z" />
    <glyph glyph-name="Ocircumflex" unicode="&#xd4;" 
d="M96 276q1 -111 71.5 -174.5t179.5 -63.5t180 63.5t71 174.5t-71 174.5t-180 63.5t-179.5 -63.5t-71.5 -174.5zM654 276q0 -130 -86.5 -210t-220.5 -80t-220.5 80t-86.5 210t86.5 210t220.5 80t220.5 -80t86.5 -210zM473 608l-126 78l-126 -78l-24 30l150 110l150 -110z
" />
    <glyph glyph-name="Otilde" unicode="&#xd5;" 
d="M96 276q1 -111 71.5 -174.5t179.5 -63.5t180 63.5t71 174.5t-71 174.5t-180 63.5t-179.5 -63.5t-71.5 -174.5zM654 276q0 -130 -86.5 -210t-220.5 -80t-220.5 80t-86.5 210t86.5 210t220.5 80t220.5 -80t86.5 -210zM507 711l26 -32q-39 -50 -111 -50q-26 0 -70 19t-69 19
q-58 0 -92 -43l-30 31q46 59 121 59q38 0 79 -18t62 -18q30 0 48 7t36 26z" />
    <glyph glyph-name="Odieresis" unicode="&#xd6;" 
d="M96 276q1 -111 71.5 -174.5t179.5 -63.5t180 63.5t71 174.5t-71 174.5t-180 63.5t-179.5 -63.5t-71.5 -174.5zM654 276q0 -130 -86.5 -210t-220.5 -80t-220.5 80t-86.5 210t86.5 210t220.5 80t220.5 -80t86.5 -210zM228 735q23 0 38.5 -15.5t15.5 -36.5t-15.5 -36.5
t-38.5 -15.5q-22 0 -37.5 15.5t-15.5 36.5t15.5 36.5t37.5 15.5zM465 735q23 0 38.5 -15.5t15.5 -36.5t-15.5 -36.5t-38.5 -15.5q-22 0 -37.5 15.5t-15.5 36.5t15.5 36.5t37.5 15.5z" />
    <glyph glyph-name="multiply" unicode="&#xd7;" horiz-adv-x="405" 
d="M105 416l97 -97l98 98l36 -36l-98 -98l97 -97l-36 -36l-97 97l-96 -96l-36 36l96 96l-97 97z" />
    <glyph glyph-name="Oslash" unicode="&#xd8;" 
d="M498 588l48 -27l-24 -41q62 -38 97 -101t35 -143q0 -130 -86.5 -210t-220.5 -80q-62 0 -119 19l-25 -45l-48 27l23 40q-65 37 -101.5 101.5t-36.5 147.5q0 130 86.5 210t220.5 80q66 0 126 -22zM205 73l241 424q-46 17 -99 17q-109 0 -179.5 -63.5t-71.5 -174.5
q0 -139 109 -203zM496 474l-241 -422q44 -14 92 -14q109 0 180 63.5t71 174.5q0 132 -102 198z" />
    <glyph glyph-name="Ugrave" unicode="&#xd9;" horiz-adv-x="664" 
d="M55 553h56v-284q0 -107 55 -169t166 -62q110 0 165.5 62t55.5 169v284h56v-283q0 -136 -74.5 -210t-202.5 -74q-129 0 -203 74t-74 210v283zM306 818l48 -188l-46 -10l-54 186z" />
    <glyph glyph-name="Uacute" unicode="&#xda;" horiz-adv-x="664" 
d="M55 553h56v-284q0 -107 55 -169t166 -62q110 0 165.5 62t55.5 169v284h56v-283q0 -136 -74.5 -210t-202.5 -74q-129 0 -203 74t-74 210v283zM301 627l48 188l52 -12l-54 -186z" />
    <glyph glyph-name="Ucircumflex" unicode="&#xdb;" horiz-adv-x="664" 
d="M55 553h56v-284q0 -107 55 -169t166 -62q110 0 165.5 62t55.5 169v284h56v-283q0 -136 -74.5 -210t-202.5 -74q-129 0 -203 74t-74 210v283zM458 608l-126 78l-126 -78l-24 30l150 110l150 -110z" />
    <glyph glyph-name="Udieresis" unicode="&#xdc;" horiz-adv-x="664" 
d="M55 553h56v-284q0 -107 55 -169t166 -62q110 0 165.5 62t55.5 169v284h56v-283q0 -136 -74.5 -210t-202.5 -74q-129 0 -203 74t-74 210v283zM213 735q23 0 38.5 -15.5t15.5 -36.5t-15.5 -36.5t-38.5 -15.5q-22 0 -37.5 15.5t-15.5 36.5t15.5 36.5t37.5 15.5zM450 735
q23 0 38.5 -15.5t15.5 -36.5t-15.5 -36.5t-38.5 -15.5q-22 0 -37.5 15.5t-15.5 36.5t15.5 36.5t37.5 15.5z" />
    <glyph glyph-name="Yacute" unicode="&#xdd;" horiz-adv-x="656" 
d="M30 553h65l225 -350h19l222 350h65l-270 -415v-138h-56v138zM313 630l48 188l52 -12l-54 -186z" />
    <glyph glyph-name="Thorn" unicode="&#xde;" horiz-adv-x="600" 
d="M60 553h56v-75h242q85 0 143.5 -58t58.5 -144t-58.5 -143t-143.5 -57h-242v-76h-56v553zM116 426v-298h237q73 0 112 42t39 106q0 65 -39 107.5t-112 42.5h-237z" />
    <glyph glyph-name="agrave" unicode="&#xe0;" horiz-adv-x="727" 
d="M314 502l-151 -356h401l-148 356h-102zM282 553h170l235 -553h-58l-40 93h-448l-41 -93h-60zM345 818l48 -188l-46 -10l-54 186z" />
    <glyph glyph-name="aacute" unicode="&#xe1;" horiz-adv-x="727" 
d="M314 502l-151 -356h401l-148 356h-102zM282 553h170l235 -553h-58l-40 93h-448l-41 -93h-60zM348 631l48 188l52 -12l-54 -186z" />
    <glyph glyph-name="acircumflex" unicode="&#xe2;" horiz-adv-x="727" 
d="M314 502l-151 -356h401l-148 356h-102zM282 553h170l235 -553h-58l-40 93h-448l-41 -93h-60zM489 608l-126 78l-126 -78l-24 30l150 110l150 -110z" />
    <glyph glyph-name="atilde" unicode="&#xe3;" horiz-adv-x="727" 
d="M314 502l-151 -356h401l-148 356h-102zM282 553h170l235 -553h-58l-40 93h-448l-41 -93h-60zM523 711l26 -32q-39 -50 -111 -50q-26 0 -70 19t-69 19q-58 0 -92 -43l-30 31q46 59 121 59q38 0 79 -18t62 -18q30 0 48 7t36 26z" />
    <glyph glyph-name="adieresis" unicode="&#xe4;" horiz-adv-x="727" 
d="M314 502l-151 -356h401l-148 356h-102zM282 553h170l235 -553h-58l-40 93h-448l-41 -93h-60zM244 735q23 0 38.5 -15.5t15.5 -36.5t-15.5 -36.5t-38.5 -15.5q-22 0 -37.5 15.5t-15.5 36.5t15.5 36.5t37.5 15.5zM481 735q23 0 38.5 -15.5t15.5 -36.5t-15.5 -36.5
t-38.5 -15.5q-22 0 -37.5 15.5t-15.5 36.5t15.5 36.5t37.5 15.5z" />
    <glyph glyph-name="aring" unicode="&#xe5;" horiz-adv-x="727" 
d="M314 502l-151 -356h401l-148 356h-102zM282 553h170l235 -553h-58l-40 93h-448l-41 -93h-60zM494 726q0 -55 -38 -88t-93 -33t-93 33t-38 88t38 88t93 33t93 -33t38 -88zM283 726q0 -34 22.5 -55t57.5 -21t57.5 21t22.5 55t-22.5 55t-57.5 21t-57.5 -21t-22.5 -55z" />
    <glyph glyph-name="ae" unicode="&#xe6;" horiz-adv-x="1107" 
d="M382 553h654v-51h-427v-192h384v-51h-384v-208h448v-51h-504v109h-402l-76 -109h-66zM409 502l-218 -338h362v338h-144z" />
    <glyph glyph-name="ccedilla" unicode="&#xe7;" horiz-adv-x="643" 
d="M606 445l-46 -28q-74 96 -219 96q-111 0 -177.5 -64.5t-66.5 -171.5q0 -104 68 -171.5t176 -67.5q138 0 220 99l47 -29q-90 -114 -244 -121v-35q104 -5 104 -84q0 -47 -37 -71.5t-92 -24.5q-48 0 -85 20l15 43q33 -15 73 -15q72 0 72 48q0 38 -61 38h-45l-6 6l8 76
q-121 10 -195.5 87.5t-74.5 201.5q0 132 85.5 210.5t218.5 78.5q171 0 262 -121z" />
    <glyph glyph-name="egrave" unicode="&#xe8;" horiz-adv-x="607" 
d="M60 553h481v-51h-425v-192h382v-51h-382v-208h441v-51h-497v553zM301 818l48 -188l-46 -10l-54 186z" />
    <glyph glyph-name="eacute" unicode="&#xe9;" horiz-adv-x="607" 
d="M60 553h481v-51h-425v-192h382v-51h-382v-208h441v-51h-497v553zM288 630l48 188l52 -12l-54 -186z" />
    <glyph glyph-name="ecircumflex" unicode="&#xea;" horiz-adv-x="607" 
d="M60 553h481v-51h-425v-192h382v-51h-382v-208h441v-51h-497v553zM438 608l-126 78l-126 -78l-24 30l150 110l150 -110z" />
    <glyph glyph-name="edieresis" unicode="&#xeb;" horiz-adv-x="607" 
d="M60 553h481v-51h-425v-192h382v-51h-382v-208h441v-51h-497v553zM181 735q23 0 38.5 -15.5t15.5 -36.5t-15.5 -36.5t-38.5 -15.5q-22 0 -37.5 15.5t-15.5 36.5t15.5 36.5t37.5 15.5zM418 735q23 0 38.5 -15.5t15.5 -36.5t-15.5 -36.5t-38.5 -15.5q-22 0 -37.5 15.5
t-15.5 36.5t15.5 36.5t37.5 15.5z" />
    <glyph glyph-name="igrave" unicode="&#xec;" horiz-adv-x="176" 
d="M60 553h56v-553h-56v553zM65 818l48 -188l-46 -10l-54 186z" />
    <glyph glyph-name="iacute" unicode="&#xed;" horiz-adv-x="176" 
d="M60 553h56v-553h-56v553zM64 630l48 188l52 -12l-54 -186z" />
    <glyph glyph-name="icircumflex" unicode="&#xee;" horiz-adv-x="176" 
d="M60 553h56v-553h-56v553zM214 608l-126 78l-126 -78l-24 30l150 110l150 -110z" />
    <glyph glyph-name="idieresis" unicode="&#xef;" horiz-adv-x="176" 
d="M60 553h56v-553h-56v553zM-31 735q23 0 38.5 -15.5t15.5 -36.5t-15.5 -36.5t-38.5 -15.5q-22 0 -37.5 15.5t-15.5 36.5t15.5 36.5t37.5 15.5zM206 735q23 0 38.5 -15.5t15.5 -36.5t-15.5 -36.5t-38.5 -15.5q-22 0 -37.5 15.5t-15.5 36.5t15.5 36.5t37.5 15.5z" />
    <glyph glyph-name="eth" unicode="&#xf0;" horiz-adv-x="674" 
d="M71 553h267q128 0 212 -74t84 -202q0 -127 -85.5 -202t-210.5 -75h-267v265h-61v51h61v237zM127 502v-186h174v-51h-174v-214h204q114 0 180.5 61t66.5 165t-66.5 164.5t-180.5 60.5h-204z" />
    <glyph glyph-name="ntilde" unicode="&#xf1;" horiz-adv-x="682" 
d="M60 553h70l437 -488v488h55v-553h-71l-436 490v-490h-55v553zM501 711l26 -32q-39 -50 -111 -50q-26 0 -70 19t-69 19q-58 0 -92 -43l-30 31q46 59 121 59q38 0 79 -18t62 -18q30 0 48 7t36 26z" />
    <glyph glyph-name="ograve" unicode="&#xf2;" 
d="M96 276q1 -111 71.5 -174.5t179.5 -63.5t180 63.5t71 174.5t-71 174.5t-180 63.5t-179.5 -63.5t-71.5 -174.5zM654 276q0 -130 -86.5 -210t-220.5 -80t-220.5 80t-86.5 210t86.5 210t220.5 80t220.5 -80t86.5 -210zM313 818l48 -188l-46 -10l-54 186z" />
    <glyph glyph-name="oacute" unicode="&#xf3;" 
d="M96 276q1 -111 71.5 -174.5t179.5 -63.5t180 63.5t71 174.5t-71 174.5t-180 63.5t-179.5 -63.5t-71.5 -174.5zM654 276q0 -130 -86.5 -210t-220.5 -80t-220.5 80t-86.5 210t86.5 210t220.5 80t220.5 -80t86.5 -210zM333 630l48 188l52 -12l-54 -186z" />
    <glyph glyph-name="ocircumflex" unicode="&#xf4;" 
d="M96 276q1 -111 71.5 -174.5t179.5 -63.5t180 63.5t71 174.5t-71 174.5t-180 63.5t-179.5 -63.5t-71.5 -174.5zM654 276q0 -130 -86.5 -210t-220.5 -80t-220.5 80t-86.5 210t86.5 210t220.5 80t220.5 -80t86.5 -210zM473 608l-126 78l-126 -78l-24 30l150 110l150 -110z
" />
    <glyph glyph-name="otilde" unicode="&#xf5;" 
d="M96 276q1 -111 71.5 -174.5t179.5 -63.5t180 63.5t71 174.5t-71 174.5t-180 63.5t-179.5 -63.5t-71.5 -174.5zM654 276q0 -130 -86.5 -210t-220.5 -80t-220.5 80t-86.5 210t86.5 210t220.5 80t220.5 -80t86.5 -210zM507 718l26 -32q-39 -50 -111 -50q-26 0 -70 19t-69 19
q-58 0 -92 -43l-30 31q46 59 121 59q38 0 79 -18t62 -18q30 0 48 7t36 26z" />
    <glyph glyph-name="odieresis" unicode="&#xf6;" 
d="M96 276q1 -111 71.5 -174.5t179.5 -63.5t180 63.5t71 174.5t-71 174.5t-180 63.5t-179.5 -63.5t-71.5 -174.5zM654 276q0 -130 -86.5 -210t-220.5 -80t-220.5 80t-86.5 210t86.5 210t220.5 80t220.5 -80t86.5 -210zM228 735q23 0 38.5 -15.5t15.5 -36.5t-15.5 -36.5
t-38.5 -15.5q-22 0 -37.5 15.5t-15.5 36.5t15.5 36.5t37.5 15.5zM465 735q23 0 38.5 -15.5t15.5 -36.5t-15.5 -36.5t-38.5 -15.5q-22 0 -37.5 15.5t-15.5 36.5t15.5 36.5t37.5 15.5z" />
    <glyph glyph-name="divide" unicode="&#xf7;" horiz-adv-x="396" 
d="M198 489q24 0 40.5 -16.5t16.5 -40.5t-16.5 -40t-40.5 -16t-40.5 16t-16.5 40t16.5 40.5t40.5 16.5zM198 191q24 0 40.5 -16.5t16.5 -40.5t-16.5 -40t-40.5 -16t-40.5 16t-16.5 40t16.5 40.5t40.5 16.5zM40 309h316v-51h-316v51z" />
    <glyph glyph-name="oslash" unicode="&#xf8;" 
d="M498 588l48 -27l-24 -41q62 -38 97 -101t35 -143q0 -130 -86.5 -210t-220.5 -80q-62 0 -119 19l-25 -45l-48 27l23 40q-65 37 -101.5 101.5t-36.5 147.5q0 130 86.5 210t220.5 80q66 0 126 -22zM205 73l241 424q-46 17 -99 17q-109 0 -179.5 -63.5t-71.5 -174.5
q0 -139 109 -203zM496 474l-241 -422q44 -14 92 -14q109 0 180 63.5t71 174.5q0 132 -102 198z" />
    <glyph glyph-name="ugrave" unicode="&#xf9;" horiz-adv-x="664" 
d="M55 553h56v-284q0 -107 55 -169t166 -62q110 0 165.5 62t55.5 169v284h56v-283q0 -136 -74.5 -210t-202.5 -74q-129 0 -203 74t-74 210v283zM310 818l48 -188l-46 -10l-54 186z" />
    <glyph glyph-name="uacute" unicode="&#xfa;" horiz-adv-x="664" 
d="M55 553h56v-284q0 -107 55 -169t166 -62q110 0 165.5 62t55.5 169v284h56v-283q0 -136 -74.5 -210t-202.5 -74q-129 0 -203 74t-74 210v283zM300 630l48 188l52 -12l-54 -186z" />
    <glyph glyph-name="ucircumflex" unicode="&#xfb;" horiz-adv-x="664" 
d="M55 553h56v-284q0 -107 55 -169t166 -62q110 0 165.5 62t55.5 169v284h56v-283q0 -136 -74.5 -210t-202.5 -74q-129 0 -203 74t-74 210v283zM458 608l-126 78l-126 -78l-24 30l150 110l150 -110z" />
    <glyph glyph-name="udieresis" unicode="&#xfc;" horiz-adv-x="664" 
d="M55 553h56v-284q0 -107 55 -169t166 -62q110 0 165.5 62t55.5 169v284h56v-283q0 -136 -74.5 -210t-202.5 -74q-129 0 -203 74t-74 210v283zM213 735q23 0 38.5 -15.5t15.5 -36.5t-15.5 -36.5t-38.5 -15.5q-22 0 -37.5 15.5t-15.5 36.5t15.5 36.5t37.5 15.5zM450 735
q23 0 38.5 -15.5t15.5 -36.5t-15.5 -36.5t-38.5 -15.5q-22 0 -37.5 15.5t-15.5 36.5t15.5 36.5t37.5 15.5z" />
    <glyph glyph-name="yacute" unicode="&#xfd;" horiz-adv-x="656" 
d="M30 553h65l225 -350h19l222 350h65l-270 -415v-138h-56v138zM309 630l48 188l52 -12l-54 -186z" />
    <glyph glyph-name="thorn" unicode="&#xfe;" horiz-adv-x="600" 
d="M60 553h56v-75h242q85 0 143.5 -58t58.5 -144t-58.5 -143t-143.5 -57h-242v-76h-56v553zM116 426v-298h237q73 0 112 42t39 106q0 65 -39 107.5t-112 42.5h-237z" />
    <glyph glyph-name="ydieresis" unicode="&#xff;" horiz-adv-x="656" 
d="M30 553h65l225 -350h19l222 350h65l-270 -415v-138h-56v138zM209 735q23 0 38.5 -15.5t15.5 -36.5t-15.5 -36.5t-38.5 -15.5q-22 0 -37.5 15.5t-15.5 36.5t15.5 36.5t37.5 15.5zM446 735q23 0 38.5 -15.5t15.5 -36.5t-15.5 -36.5t-38.5 -15.5q-22 0 -37.5 15.5
t-15.5 36.5t15.5 36.5t37.5 15.5z" />
    <glyph glyph-name="Amacron" unicode="&#x100;" horiz-adv-x="727" 
d="M314 502l-151 -356h401l-148 356h-102zM282 553h170l235 -553h-58l-40 93h-448l-41 -93h-60zM196 696h335v-50h-335v50z" />
    <glyph glyph-name="amacron" unicode="&#x101;" horiz-adv-x="727" 
d="M314 502l-151 -356h401l-148 356h-102zM282 553h170l235 -553h-58l-40 93h-448l-41 -93h-60zM196 696h335v-50h-335v50z" />
    <glyph glyph-name="Abreve" unicode="&#x102;" horiz-adv-x="727" 
d="M314 502l-151 -356h401l-148 356h-102zM282 553h170l235 -553h-58l-40 93h-448l-41 -93h-60zM472 726l35 -26q-51 -80 -144 -80t-144 80l35 26q45 -59 109 -59t109 59z" />
    <glyph glyph-name="abreve" unicode="&#x103;" horiz-adv-x="727" 
d="M314 502l-151 -356h401l-148 356h-102zM282 553h170l235 -553h-58l-40 93h-448l-41 -93h-60zM472 726l35 -26q-51 -80 -144 -80t-144 80l35 26q45 -59 109 -59t109 59z" />
    <glyph glyph-name="Aogonek" unicode="&#x104;" horiz-adv-x="727" 
d="M282 553h170l235 -553q-26 -26 -26 -69q0 -36 14 -58t44 -41l-32 -26q-78 35 -78 108q0 52 31 86h-11l-40 93h-448l-41 -93h-60zM314 502l-151 -356h401l-148 356h-102z" />
    <glyph glyph-name="aogonek" unicode="&#x105;" horiz-adv-x="727" 
d="M282 553h170l235 -553q-26 -26 -26 -69q0 -36 14 -58t44 -41l-32 -26q-78 35 -78 108q0 52 31 86h-11l-40 93h-448l-41 -93h-60zM314 502l-151 -356h401l-148 356h-102z" />
    <glyph glyph-name="Cacute" unicode="&#x106;" horiz-adv-x="643" 
d="M606 445l-46 -28q-74 96 -219 96q-111 0 -177.5 -64.5t-66.5 -171.5q0 -104 68 -171.5t176 -67.5q138 0 220 99l47 -29q-96 -122 -264 -122q-134 0 -219 79t-85 212q0 132 85.5 210.5t218.5 78.5q171 0 262 -121zM333 630l48 188l52 -12l-54 -186z" />
    <glyph glyph-name="cacute" unicode="&#x107;" horiz-adv-x="643" 
d="M606 445l-46 -28q-74 96 -219 96q-111 0 -177.5 -64.5t-66.5 -171.5q0 -104 68 -171.5t176 -67.5q138 0 220 99l47 -29q-96 -122 -264 -122q-134 0 -219 79t-85 212q0 132 85.5 210.5t218.5 78.5q171 0 262 -121zM333 630l48 188l52 -12l-54 -186z" />
    <glyph glyph-name="Ccircumflex" unicode="&#x108;" horiz-adv-x="643" 
d="M606 445l-46 -28q-74 96 -219 96q-111 0 -177.5 -64.5t-66.5 -171.5q0 -104 68 -171.5t176 -67.5q138 0 220 99l47 -29q-96 -122 -264 -122q-134 0 -219 79t-85 212q0 132 85.5 210.5t218.5 78.5q171 0 262 -121zM474 608l-126 78l-126 -78l-24 30l150 110l150 -110z" />
    <glyph glyph-name="ccircumflex" unicode="&#x109;" horiz-adv-x="643" 
d="M606 445l-46 -28q-74 96 -219 96q-111 0 -177.5 -64.5t-66.5 -171.5q0 -104 68 -171.5t176 -67.5q138 0 220 99l47 -29q-96 -122 -264 -122q-134 0 -219 79t-85 212q0 132 85.5 210.5t218.5 78.5q171 0 262 -121zM474 608l-126 78l-126 -78l-24 30l150 110l150 -110z" />
    <glyph glyph-name="Cdotaccent" unicode="&#x10a;" horiz-adv-x="643" 
d="M606 445l-46 -28q-74 96 -219 96q-111 0 -177.5 -64.5t-66.5 -171.5q0 -104 68 -171.5t176 -67.5q138 0 220 99l47 -29q-96 -122 -264 -122q-134 0 -219 79t-85 212q0 132 85.5 210.5t218.5 78.5q171 0 262 -121zM350 739q26 0 43.5 -17t17.5 -41t-17.5 -41.5
t-43.5 -17.5q-25 0 -42 17.5t-17 41.5q0 23 17.5 40.5t41.5 17.5z" />
    <glyph glyph-name="cdotaccent" unicode="&#x10b;" horiz-adv-x="643" 
d="M606 445l-46 -28q-74 96 -219 96q-111 0 -177.5 -64.5t-66.5 -171.5q0 -104 68 -171.5t176 -67.5q138 0 220 99l47 -29q-96 -122 -264 -122q-134 0 -219 79t-85 212q0 132 85.5 210.5t218.5 78.5q171 0 262 -121zM350 739q26 0 43.5 -17t17.5 -41t-17.5 -41.5
t-43.5 -17.5q-25 0 -42 17.5t-17 41.5q0 23 17.5 40.5t41.5 17.5z" />
    <glyph glyph-name="Ccaron" unicode="&#x10c;" horiz-adv-x="643" 
d="M606 445l-46 -28q-74 96 -219 96q-111 0 -177.5 -64.5t-66.5 -171.5q0 -104 68 -171.5t176 -67.5q138 0 220 99l47 -29q-96 -122 -264 -122q-134 0 -219 79t-85 212q0 132 85.5 210.5t218.5 78.5q171 0 262 -121zM228 758l126 -78l126 78l24 -30l-150 -110l-150 110z" />
    <glyph glyph-name="ccaron" unicode="&#x10d;" horiz-adv-x="643" 
d="M606 445l-46 -28q-74 96 -219 96q-111 0 -177.5 -64.5t-66.5 -171.5q0 -104 68 -171.5t176 -67.5q138 0 220 99l47 -29q-96 -122 -264 -122q-134 0 -219 79t-85 212q0 132 85.5 210.5t218.5 78.5q171 0 262 -121zM228 758l126 -78l126 78l24 -30l-150 -110l-150 110z" />
    <glyph glyph-name="Dcaron" unicode="&#x10e;" horiz-adv-x="663" 
d="M60 553h267q128 0 212 -74t84 -202q0 -127 -85.5 -202t-210.5 -75h-267v553zM116 502v-451h204q114 0 180.5 61t66.5 165t-66.5 164.5t-180.5 60.5h-204zM178 758l126 -78l126 78l24 -30l-150 -110l-150 110z" />
    <glyph glyph-name="dcaron" unicode="&#x10f;" horiz-adv-x="663" 
d="M60 553h267q128 0 212 -74t84 -202q0 -127 -85.5 -202t-210.5 -75h-267v553zM116 502v-451h204q114 0 180.5 61t66.5 165t-66.5 164.5t-180.5 60.5h-204zM178 758l126 -78l126 78l24 -30l-150 -110l-150 110z" />
    <glyph glyph-name="Dcroat" unicode="&#x110;" horiz-adv-x="674" 
d="M71 553h267q128 0 212 -74t84 -202q0 -127 -85.5 -202t-210.5 -75h-267v265h-61v51h61v237zM127 502v-186h174v-51h-174v-214h204q114 0 180.5 61t66.5 165t-66.5 164.5t-180.5 60.5h-204z" />
    <glyph glyph-name="dcroat" unicode="&#x111;" horiz-adv-x="674" 
d="M71 553h267q128 0 212 -74t84 -202q0 -127 -85.5 -202t-210.5 -75h-267v265h-61v51h61v237zM127 502v-186h174v-51h-174v-214h204q114 0 180.5 61t66.5 165t-66.5 164.5t-180.5 60.5h-204z" />
    <glyph glyph-name="Emacron" unicode="&#x112;" horiz-adv-x="607" 
d="M60 553h481v-51h-425v-192h382v-51h-382v-208h441v-51h-497v553zM142 696h335v-50h-335v50z" />
    <glyph glyph-name="emacron" unicode="&#x113;" horiz-adv-x="607" 
d="M60 553h481v-51h-425v-192h382v-51h-382v-208h441v-51h-497v553zM142 696h335v-50h-335v50z" />
    <glyph glyph-name="Ebreve" unicode="&#x114;" horiz-adv-x="607" 
d="M60 553h481v-51h-425v-192h382v-51h-382v-208h441v-51h-497v553zM425 732l35 -26q-51 -80 -144 -80t-144 80l35 26q45 -59 109 -59t109 59z" />
    <glyph glyph-name="ebreve" unicode="&#x115;" horiz-adv-x="607" 
d="M60 553h481v-51h-425v-192h382v-51h-382v-208h441v-51h-497v553zM425 732l35 -26q-51 -80 -144 -80t-144 80l35 26q45 -59 109 -59t109 59z" />
    <glyph glyph-name="Edotaccent" unicode="&#x116;" horiz-adv-x="607" 
d="M60 553h481v-51h-425v-192h382v-51h-382v-208h441v-51h-497v553zM306 739q26 0 43.5 -17t17.5 -41t-17.5 -41.5t-43.5 -17.5q-25 0 -42 17.5t-17 41.5q0 23 17.5 40.5t41.5 17.5z" />
    <glyph glyph-name="edotaccent" unicode="&#x117;" horiz-adv-x="607" 
d="M60 553h481v-51h-425v-192h382v-51h-382v-208h441v-51h-497v553zM306 739q26 0 43.5 -17t17.5 -41t-17.5 -41.5t-43.5 -17.5q-25 0 -42 17.5t-17 41.5q0 23 17.5 40.5t41.5 17.5z" />
    <glyph glyph-name="Eogonek" unicode="&#x118;" horiz-adv-x="607" 
d="M60 553h481v-51h-425v-192h382v-51h-382v-208h441v-51q-21 -28 -21 -69q0 -36 14 -58t44 -41l-32 -26q-78 35 -78 108q0 52 31 86h-455v553z" />
    <glyph glyph-name="eogonek" unicode="&#x119;" horiz-adv-x="607" 
d="M60 553h481v-51h-425v-192h382v-51h-382v-208h441v-51q-21 -28 -21 -69q0 -36 14 -58t44 -41l-32 -26q-78 35 -78 108q0 52 31 86h-455v553z" />
    <glyph glyph-name="Ecaron" unicode="&#x11a;" horiz-adv-x="607" 
d="M60 553h481v-51h-425v-192h382v-51h-382v-208h441v-51h-497v553zM189 758l126 -78l126 78l24 -30l-150 -110l-150 110z" />
    <glyph glyph-name="ecaron" unicode="&#x11b;" horiz-adv-x="607" 
d="M60 553h481v-51h-425v-192h382v-51h-382v-208h441v-51h-497v553zM189 758l126 -78l126 78l24 -30l-150 -110l-150 110z" />
    <glyph glyph-name="Gcircumflex" unicode="&#x11c;" horiz-adv-x="682" 
d="M414 301h210v-301h-39l-12 68q-87 -82 -228 -82q-136 0 -220.5 79t-84.5 212q0 132 86 210.5t219 78.5q171 0 262 -119l-45 -27q-75 94 -220 94q-111 0 -178 -65t-67 -172q0 -103 69.5 -171t175.5 -68q149 0 229 95v116l-157 6v46zM485 608l-126 78l-126 -78l-24 30
l150 110l150 -110z" />
    <glyph glyph-name="gcircumflex" unicode="&#x11d;" horiz-adv-x="682" 
d="M414 301h210v-301h-39l-12 68q-87 -82 -228 -82q-136 0 -220.5 79t-84.5 212q0 132 86 210.5t219 78.5q171 0 262 -119l-45 -27q-75 94 -220 94q-111 0 -178 -65t-67 -172q0 -103 69.5 -171t175.5 -68q149 0 229 95v116l-157 6v46zM485 608l-126 78l-126 -78l-24 30
l150 110l150 -110z" />
    <glyph glyph-name="Gbreve" unicode="&#x11e;" horiz-adv-x="682" 
d="M414 301h210v-301h-39l-12 68q-87 -82 -228 -82q-136 0 -220.5 79t-84.5 212q0 132 86 210.5t219 78.5q171 0 262 -119l-45 -27q-75 94 -220 94q-111 0 -178 -65t-67 -172q0 -103 69.5 -171t175.5 -68q149 0 229 95v116l-157 6v46zM465 732l35 -26q-51 -80 -144 -80
t-144 80l35 26q45 -59 109 -59t109 59z" />
    <glyph glyph-name="gbreve" unicode="&#x11f;" horiz-adv-x="682" 
d="M414 301h210v-301h-39l-12 68q-87 -82 -228 -82q-136 0 -220.5 79t-84.5 212q0 132 86 210.5t219 78.5q171 0 262 -119l-45 -27q-75 94 -220 94q-111 0 -178 -65t-67 -172q0 -103 69.5 -171t175.5 -68q149 0 229 95v116l-157 6v46zM465 732l35 -26q-51 -80 -144 -80
t-144 80l35 26q45 -59 109 -59t109 59z" />
    <glyph glyph-name="Gdotaccent" unicode="&#x120;" horiz-adv-x="682" 
d="M414 301h210v-301h-39l-12 68q-87 -82 -228 -82q-136 0 -220.5 79t-84.5 212q0 132 86 210.5t219 78.5q171 0 262 -119l-45 -27q-75 94 -220 94q-111 0 -178 -65t-67 -172q0 -103 69.5 -171t175.5 -68q149 0 229 95v116l-157 6v46zM346 739q26 0 43.5 -17t17.5 -41
t-17.5 -41.5t-43.5 -17.5q-25 0 -42 17.5t-17 41.5q0 23 17.5 40.5t41.5 17.5z" />
    <glyph glyph-name="gdotaccent" unicode="&#x121;" horiz-adv-x="682" 
d="M414 301h210v-301h-39l-12 68q-87 -82 -228 -82q-136 0 -220.5 79t-84.5 212q0 132 86 210.5t219 78.5q171 0 262 -119l-45 -27q-75 94 -220 94q-111 0 -178 -65t-67 -172q0 -103 69.5 -171t175.5 -68q149 0 229 95v116l-157 6v46zM346 739q26 0 43.5 -17t17.5 -41
t-17.5 -41.5t-43.5 -17.5q-25 0 -42 17.5t-17 41.5q0 23 17.5 40.5t41.5 17.5z" />
    <glyph glyph-name="Gcommaaccent" unicode="&#x122;" horiz-adv-x="682" 
d="M414 301h210v-301h-39l-12 68q-87 -82 -228 -82q-136 0 -220.5 79t-84.5 212q0 132 86 210.5t219 78.5q171 0 262 -119l-45 -27q-75 94 -220 94q-111 0 -178 -65t-67 -172q0 -103 69.5 -171t175.5 -68q149 0 229 95v116l-157 6v46zM352 -52q24 0 40.5 -16t16.5 -40
q0 -9 -4 -21l-51 -129l-30 8l16 87q-20 4 -32 19t-12 36q0 24 16 40t40 16z" />
    <glyph glyph-name="gcommaaccent" unicode="&#x123;" horiz-adv-x="682" 
d="M414 301h210v-301h-39l-12 68q-87 -82 -228 -82q-136 0 -220.5 79t-84.5 212q0 132 86 210.5t219 78.5q171 0 262 -119l-45 -27q-75 94 -220 94q-111 0 -178 -65t-67 -172q0 -103 69.5 -171t175.5 -68q149 0 229 95v116l-157 6v46zM352 -52q24 0 40.5 -16t16.5 -40
q0 -9 -4 -21l-51 -129l-30 8l16 87q-20 4 -32 19t-12 36q0 24 16 40t40 16z" />
    <glyph glyph-name="Hcircumflex" unicode="&#x124;" horiz-adv-x="670" 
d="M60 553h56v-239h438v239h56v-553h-56v262h-438v-262h-56v553zM461 608l-126 78l-126 -78l-24 30l150 110l150 -110z" />
    <glyph glyph-name="hcircumflex" unicode="&#x125;" horiz-adv-x="670" 
d="M60 553h56v-239h438v239h56v-553h-56v262h-438v-262h-56v553zM461 608l-126 78l-126 -78l-24 30l150 110l150 -110z" />
    <glyph glyph-name="Hbar" unicode="&#x126;" horiz-adv-x="670" 
d="M60 553h56v-80h438v80h56v-80h35v-50h-35v-423h-56v262h-438v-262h-56v423h-35v50h35v80zM116 314h438v109h-438v-109z" />
    <glyph glyph-name="hbar" unicode="&#x127;" horiz-adv-x="670" 
d="M60 553h56v-80h438v80h56v-80h35v-50h-35v-423h-56v262h-438v-262h-56v423h-35v50h35v80zM116 314h438v109h-438v-109z" />
    <glyph glyph-name="Itilde" unicode="&#x128;" horiz-adv-x="176" 
d="M60 553h56v-553h-56v553zM248 711l26 -32q-39 -50 -111 -50q-26 0 -70 19t-69 19q-58 0 -92 -43l-30 31q46 59 121 59q38 0 79 -18t62 -18q30 0 48 7t36 26z" />
    <glyph glyph-name="itilde" unicode="&#x129;" horiz-adv-x="176" 
d="M60 553h56v-553h-56v553zM248 711l26 -32q-39 -50 -111 -50q-26 0 -70 19t-69 19q-58 0 -92 -43l-30 31q46 59 121 59q38 0 79 -18t62 -18q30 0 48 7t36 26z" />
    <glyph glyph-name="imacron" unicode="&#x12b;" horiz-adv-x="176" 
d="M60 553h56v-553h-56v553zM-79 696h335v-50h-335v50z" />
    <glyph glyph-name="Ibreve" unicode="&#x12c;" horiz-adv-x="176" 
d="M60 553h56v-553h-56v553zM197 732l35 -26q-51 -80 -144 -80t-144 80l35 26q45 -59 109 -59t109 59z" />
    <glyph glyph-name="Iogonek" unicode="&#x12e;" horiz-adv-x="176" 
d="M60 553h56v-553q-22 -32 -22 -69q0 -36 14 -58t44 -41l-32 -26q-78 35 -78 108q0 52 31 86h-13v553z" />
    <glyph glyph-name="iogonek" unicode="&#x12f;" horiz-adv-x="176" 
d="M60 553h56v-553q-22 -32 -22 -69q0 -36 14 -58t44 -41l-32 -26q-78 35 -78 108q0 52 31 86h-13v553z" />
    <glyph glyph-name="Idotaccent" unicode="&#x130;" horiz-adv-x="176" 
d="M60 553h56v-553h-56v553zM87 739q26 0 43.5 -17t17.5 -41t-17.5 -41.5t-43.5 -17.5q-25 0 -42 17.5t-17 41.5q0 23 17 40.5t42 17.5z" />
    <glyph glyph-name="dotlessi" unicode="&#x131;" horiz-adv-x="176" 
d="M60 553h56v-553h-56v553z" />
    <glyph glyph-name="Jcircumflex" unicode="&#x134;" horiz-adv-x="597" 
d="M480 553h56v-322q0 -114 -61.5 -179.5t-193.5 -65.5q-167 0 -241 125l47 29q31 -51 82.5 -77t109.5 -26q112 0 156.5 51.5t44.5 153.5v311zM638 608l-126 78l-126 -78l-24 30l150 110l150 -110z" />
    <glyph glyph-name="jcircumflex" unicode="&#x135;" horiz-adv-x="597" 
d="M480 553h56v-322q0 -114 -61.5 -179.5t-193.5 -65.5q-167 0 -241 125l47 29q31 -51 82.5 -77t109.5 -26q112 0 156.5 51.5t44.5 153.5v311zM638 608l-126 78l-126 -78l-24 30l150 110l150 -110z" />
    <glyph glyph-name="Kcommaaccent" unicode="&#x136;" horiz-adv-x="632" 
d="M60 553h56v-232h254l160 232h65l-174 -255l190 -298h-66l-173 270h-256v-270h-56v553zM302 -2q24 0 40.5 -16t16.5 -40q0 -9 -4 -21l-51 -129l-30 8l16 87q-20 4 -32 19t-12 36q0 24 16 40t40 16z" />
    <glyph glyph-name="kcommaaccent" unicode="&#x137;" horiz-adv-x="632" 
d="M60 553h56v-232h254l160 232h65l-174 -255l190 -298h-66l-173 270h-256v-270h-56v553zM302 -2q24 0 40.5 -16t16.5 -40q0 -9 -4 -21l-51 -129l-30 8l16 87q-20 4 -32 19t-12 36q0 24 16 40t40 16z" />
    <glyph glyph-name="Lacute" unicode="&#x139;" horiz-adv-x="576" 
d="M60 553h56v-501h430v-52h-486v553zM70 617l48 188l52 -12l-54 -186z" />
    <glyph glyph-name="lacute" unicode="&#x13a;" horiz-adv-x="576" 
d="M60 553h56v-501h430v-52h-486v553zM70 617l48 188l52 -12l-54 -186z" />
    <glyph glyph-name="Lcommaaccent" unicode="&#x13b;" horiz-adv-x="576" 
d="M60 553h56v-501h430v-52h-486v553zM305 -52q24 0 40.5 -16t16.5 -40q0 -9 -4 -21l-51 -129l-30 8l16 87q-20 4 -32 19t-12 36q0 24 16 40t40 16z" />
    <glyph glyph-name="lcommaaccent" unicode="&#x13c;" horiz-adv-x="576" 
d="M60 553h56v-501h430v-52h-486v553zM305 -52q24 0 40.5 -16t16.5 -40q0 -9 -4 -21l-51 -129l-30 8l16 87q-20 4 -32 19t-12 36q0 24 16 40t40 16z" />
    <glyph glyph-name="Lcaron" unicode="&#x13d;" horiz-adv-x="576" 
d="M60 553h56v-501h430v-52h-486v553zM315 385l16 87q-20 4 -32 19t-12 36q0 24 16 40t40 16t40.5 -16t16.5 -40q0 -9 -4 -21l-51 -129z" />
    <glyph glyph-name="lcaron" unicode="&#x13e;" horiz-adv-x="576" 
d="M60 553h56v-501h430v-52h-486v553zM315 385l16 87q-20 4 -32 19t-12 36q0 24 16 40t40 16t40.5 -16t16.5 -40q0 -9 -4 -21l-51 -129z" />
    <glyph glyph-name="Ldot" unicode="&#x13f;" horiz-adv-x="576" 
d="M60 553h56v-501h430v-52h-486v553zM308 356q24 0 40.5 -16.5t16.5 -40.5t-16.5 -40t-40.5 -16t-40.5 16t-16.5 40t16.5 40.5t40.5 16.5z" />
    <glyph glyph-name="ldot" unicode="&#x140;" horiz-adv-x="576" 
d="M60 553h56v-501h430v-52h-486v553zM308 356q24 0 40.5 -16.5t16.5 -40.5t-16.5 -40t-40.5 -16t-40.5 16t-16.5 40t16.5 40.5t40.5 16.5z" />
    <glyph glyph-name="Lslash" unicode="&#x141;" horiz-adv-x="597" 
d="M26 238l-20 46l74 33v236h56v-211l111 49l21 -46l-132 -59v-231h431v-55h-487v262z" />
    <glyph glyph-name="lslash" unicode="&#x142;" horiz-adv-x="597" 
d="M26 238l-20 46l74 33v236h56v-211l111 49l21 -46l-132 -59v-231h431v-55h-487v262z" />
    <glyph glyph-name="Nacute" unicode="&#x143;" horiz-adv-x="682" 
d="M60 553h70l437 -488v488h55v-553h-71l-436 490v-490h-55v553zM311 630l48 188l52 -12l-54 -186z" />
    <glyph glyph-name="nacute" unicode="&#x144;" horiz-adv-x="682" 
d="M60 553h70l437 -488v488h55v-553h-71l-436 490v-490h-55v553zM311 630l48 188l52 -12l-54 -186z" />
    <glyph glyph-name="Ncommaaccent" unicode="&#x145;" horiz-adv-x="682" 
d="M60 553h70l437 -488v488h55v-553h-71l-436 490v-490h-55v553zM341 -2q24 0 40.5 -16t16.5 -40q0 -9 -4 -21l-51 -129l-30 8l16 87q-20 4 -32 19t-12 36q0 24 16 40t40 16z" />
    <glyph glyph-name="ncommaaccent" unicode="&#x146;" horiz-adv-x="682" 
d="M60 553h70l437 -488v488h55v-553h-71l-436 490v-490h-55v553zM341 -2q24 0 40.5 -16t16.5 -40q0 -9 -4 -21l-51 -129l-30 8l16 87q-20 4 -32 19t-12 36q0 24 16 40t40 16z" />
    <glyph glyph-name="Ncaron" unicode="&#x147;" horiz-adv-x="682" 
d="M60 553h70l437 -488v488h55v-553h-71l-436 490v-490h-55v553zM215 758l126 -78l126 78l24 -30l-150 -110l-150 110z" />
    <glyph glyph-name="ncaron" unicode="&#x148;" horiz-adv-x="682" 
d="M60 553h70l437 -488v488h55v-553h-71l-436 490v-490h-55v553zM215 758l126 -78l126 78l24 -30l-150 -110l-150 110z" />
    <glyph glyph-name="napostrophe" unicode="&#x149;" horiz-adv-x="753" 
d="M131 553h70l437 -488v488h55v-553h-71l-436 490v-490h-55v553zM37 705q24 0 40.5 -16t16.5 -40q0 -9 -4 -21l-51 -129l-30 8l16 87q-20 4 -32 19t-12 36q0 24 16 40t40 16z" />
    <glyph glyph-name="Omacron" unicode="&#x14c;" 
d="M96 276q1 -111 71.5 -174.5t179.5 -63.5t180 63.5t71 174.5t-71 174.5t-180 63.5t-179.5 -63.5t-71.5 -174.5zM654 276q0 -130 -86.5 -210t-220.5 -80t-220.5 80t-86.5 210t86.5 210t220.5 80t220.5 -80t86.5 -210zM180 696h335v-50h-335v50z" />
    <glyph glyph-name="omacron" unicode="&#x14d;" 
d="M96 276q1 -111 71.5 -174.5t179.5 -63.5t180 63.5t71 174.5t-71 174.5t-180 63.5t-179.5 -63.5t-71.5 -174.5zM654 276q0 -130 -86.5 -210t-220.5 -80t-220.5 80t-86.5 210t86.5 210t220.5 80t220.5 -80t86.5 -210zM180 696h335v-50h-335v50z" />
    <glyph glyph-name="Obreve" unicode="&#x14e;" 
d="M96 276q1 -111 71.5 -174.5t179.5 -63.5t180 63.5t71 174.5t-71 174.5t-180 63.5t-179.5 -63.5t-71.5 -174.5zM654 276q0 -130 -86.5 -210t-220.5 -80t-220.5 80t-86.5 210t86.5 210t220.5 80t220.5 -80t86.5 -210zM456 732l35 -26q-51 -80 -144 -80t-144 80l35 26
q45 -59 109 -59t109 59z" />
    <glyph glyph-name="obreve" unicode="&#x14f;" 
d="M96 276q1 -111 71.5 -174.5t179.5 -63.5t180 63.5t71 174.5t-71 174.5t-180 63.5t-179.5 -63.5t-71.5 -174.5zM654 276q0 -130 -86.5 -210t-220.5 -80t-220.5 80t-86.5 210t86.5 210t220.5 80t220.5 -80t86.5 -210zM456 732l35 -26q-51 -80 -144 -80t-144 80l35 26
q45 -59 109 -59t109 59z" />
    <glyph glyph-name="Ohungarumlaut" unicode="&#x150;" 
d="M96 276q1 -111 71.5 -174.5t179.5 -63.5t180 63.5t71 174.5t-71 174.5t-180 63.5t-179.5 -63.5t-71.5 -174.5zM654 276q0 -130 -86.5 -210t-220.5 -80t-220.5 80t-86.5 210t86.5 210t220.5 80t220.5 -80t86.5 -210zM290 630l44 188l52 -12l-50 -186zM391 630l53 188
l52 -12l-59 -186z" />
    <glyph glyph-name="ohungarumlaut" unicode="&#x151;" 
d="M96 276q1 -111 71.5 -174.5t179.5 -63.5t180 63.5t71 174.5t-71 174.5t-180 63.5t-179.5 -63.5t-71.5 -174.5zM654 276q0 -130 -86.5 -210t-220.5 -80t-220.5 80t-86.5 210t86.5 210t220.5 80t220.5 -80t86.5 -210zM292 630l44 188l52 -12l-50 -186zM393 630l53 188
l52 -12l-59 -186z" />
    <glyph glyph-name="OE" unicode="&#x152;" horiz-adv-x="1071" 
d="M564 553h441v-51h-385v-192h342v-51h-342v-208h401v-51h-457v85q-84 -99 -228 -99q-126 0 -208 75q-88 79 -88 215t88 215q82 75 208 75q148 0 228 -100v87zM96 276q0 -100 56 -162q70 -76 184 -76t184 76q52 58 52 162t-52 162q-70 76 -184 76t-184 -76
q-56 -62 -56 -162z" />
    <glyph glyph-name="oe" unicode="&#x153;" horiz-adv-x="1071" 
d="M564 553h441v-51h-385v-192h342v-51h-342v-208h401v-51h-457v85q-84 -99 -228 -99q-126 0 -208 75q-88 79 -88 215t88 215q82 75 208 75q148 0 228 -100v87zM96 276q0 -100 56 -162q70 -76 184 -76t184 76q52 58 52 162t-52 162q-70 76 -184 76t-184 -76
q-56 -62 -56 -162z" />
    <glyph glyph-name="Racute" unicode="&#x154;" horiz-adv-x="641" 
d="M60 553h321q93 0 156.5 -57.5t63.5 -149.5q0 -69 -35 -118.5t-94 -71.5l89 -156h-62l-79 139h-304v-139h-56v553zM116 501v-310h265q74 0 119.5 42t45.5 113t-45.5 113t-119.5 42h-265zM272 630l48 188l52 -12l-54 -186z" />
    <glyph glyph-name="racute" unicode="&#x155;" horiz-adv-x="641" 
d="M60 553h321q93 0 156.5 -57.5t63.5 -149.5q0 -69 -35 -118.5t-94 -71.5l89 -156h-62l-79 139h-304v-139h-56v553zM116 501v-310h265q74 0 119.5 42t45.5 113t-45.5 113t-119.5 42h-265zM272 630l48 188l52 -12l-54 -186z" />
    <glyph glyph-name="Rcommaaccent" unicode="&#x156;" horiz-adv-x="641" 
d="M60 553h321q93 0 156.5 -57.5t63.5 -149.5q0 -69 -35 -118.5t-94 -71.5l89 -156h-62l-79 139h-304v-139h-56v553zM116 501v-310h265q74 0 119.5 42t45.5 113t-45.5 113t-119.5 42h-265zM305 0q24 0 40.5 -16t16.5 -40q0 -9 -4 -21l-51 -129l-30 8l16 87q-20 4 -32 19
t-12 36q0 24 16 40t40 16z" />
    <glyph glyph-name="rcommaaccent" unicode="&#x157;" horiz-adv-x="641" 
d="M60 553h321q93 0 156.5 -57.5t63.5 -149.5q0 -69 -35 -118.5t-94 -71.5l89 -156h-62l-79 139h-304v-139h-56v553zM116 501v-310h265q74 0 119.5 42t45.5 113t-45.5 113t-119.5 42h-265zM305 0q24 0 40.5 -16t16.5 -40q0 -9 -4 -21l-51 -129l-30 8l16 87q-20 4 -32 19
t-12 36q0 24 16 40t40 16z" />
    <glyph glyph-name="Rcaron" unicode="&#x158;" horiz-adv-x="641" 
d="M60 553h321q93 0 156.5 -57.5t63.5 -149.5q0 -69 -35 -118.5t-94 -71.5l89 -156h-62l-79 139h-304v-139h-56v553zM116 501v-310h265q74 0 119.5 42t45.5 113t-45.5 113t-119.5 42h-265zM173 758l126 -78l126 78l24 -30l-150 -110l-150 110z" />
    <glyph glyph-name="rcaron" unicode="&#x159;" horiz-adv-x="641" 
d="M60 553h321q93 0 156.5 -57.5t63.5 -149.5q0 -69 -35 -118.5t-94 -71.5l89 -156h-62l-79 139h-304v-139h-56v553zM116 501v-310h265q74 0 119.5 42t45.5 113t-45.5 113t-119.5 42h-265zM177 758l126 -78l126 78l24 -30l-150 -110l-150 110z" />
    <glyph glyph-name="Sacute" unicode="&#x15a;" horiz-adv-x="620" 
d="M554 502l-27 -42q-102 56 -227 56q-192 0 -192 -103q0 -42 29.5 -60t88.5 -25l181 -22q83 -10 128 -48.5t45 -103.5q0 -85 -71 -126.5t-200 -41.5q-157 0 -269 73l29 46q58 -38 116 -53.5t140 -15.5q95 0 147.5 29.5t52.5 86.5q0 89 -131 103l-174 19q-167 18 -167 138
q0 76 69.5 115t177.5 39q79 0 137.5 -13.5t116.5 -50.5zM295 630l48 188l52 -12l-54 -186z" />
    <glyph glyph-name="sacute" unicode="&#x15b;" horiz-adv-x="620" 
d="M554 502l-27 -42q-102 56 -227 56q-192 0 -192 -103q0 -42 29.5 -60t88.5 -25l181 -22q83 -10 128 -48.5t45 -103.5q0 -85 -71 -126.5t-200 -41.5q-157 0 -269 73l29 46q58 -38 116 -53.5t140 -15.5q95 0 147.5 29.5t52.5 86.5q0 89 -131 103l-174 19q-167 18 -167 138
q0 76 69.5 115t177.5 39q79 0 137.5 -13.5t116.5 -50.5zM295 630l48 188l52 -12l-54 -186z" />
    <glyph glyph-name="Scircumflex" unicode="&#x15c;" horiz-adv-x="620" 
d="M554 502l-27 -42q-102 56 -227 56q-192 0 -192 -103q0 -42 29.5 -60t88.5 -25l181 -22q83 -10 128 -48.5t45 -103.5q0 -85 -71 -126.5t-200 -41.5q-157 0 -269 73l29 46q58 -38 116 -53.5t140 -15.5q95 0 147.5 29.5t52.5 86.5q0 89 -131 103l-174 19q-167 18 -167 138
q0 76 69.5 115t177.5 39q79 0 137.5 -13.5t116.5 -50.5zM436 608l-126 78l-126 -78l-24 30l150 110l150 -110z" />
    <glyph glyph-name="scircumflex" unicode="&#x15d;" horiz-adv-x="620" 
d="M554 502l-27 -42q-102 56 -227 56q-192 0 -192 -103q0 -42 29.5 -60t88.5 -25l181 -22q83 -10 128 -48.5t45 -103.5q0 -85 -71 -126.5t-200 -41.5q-157 0 -269 73l29 46q58 -38 116 -53.5t140 -15.5q95 0 147.5 29.5t52.5 86.5q0 89 -131 103l-174 19q-167 18 -167 138
q0 76 69.5 115t177.5 39q79 0 137.5 -13.5t116.5 -50.5zM436 608l-126 78l-126 -78l-24 30l150 110l150 -110z" />
    <glyph glyph-name="Scedilla" unicode="&#x15e;" horiz-adv-x="620" 
d="M554 502l-27 -42q-102 56 -227 56q-192 0 -192 -103q0 -42 29.5 -60t88.5 -25l181 -22q83 -10 128 -48.5t45 -103.5q0 -82 -68 -124t-191 -44v-34q104 -5 104 -84q0 -47 -36.5 -71.5t-92.5 -24.5q-48 0 -85 20l15 43q33 -15 73 -15q72 0 72 48q0 38 -61 38h-45l-6 6l8 75
q-129 7 -227 72l29 46q56 -38 115 -53.5t141 -15.5q95 0 147.5 29.5t52.5 86.5q0 89 -131 103l-174 19q-167 18 -167 138q0 76 69.5 115t177.5 39q79 0 137.5 -13.5t116.5 -50.5z" />
    <glyph glyph-name="scedilla" unicode="&#x15f;" horiz-adv-x="620" 
d="M554 502l-27 -42q-102 56 -227 56q-192 0 -192 -103q0 -42 29.5 -60t88.5 -25l181 -22q83 -10 128 -48.5t45 -103.5q0 -82 -68 -124t-191 -44v-34q104 -5 104 -84q0 -47 -36.5 -71.5t-92.5 -24.5q-48 0 -85 20l15 43q33 -15 73 -15q72 0 72 48q0 38 -61 38h-45l-6 6l8 75
q-129 7 -227 72l29 46q56 -38 115 -53.5t141 -15.5q95 0 147.5 29.5t52.5 86.5q0 89 -131 103l-174 19q-167 18 -167 138q0 76 69.5 115t177.5 39q79 0 137.5 -13.5t116.5 -50.5z" />
    <glyph glyph-name="Scaron" unicode="&#x160;" horiz-adv-x="620" 
d="M554 502l-27 -42q-102 56 -227 56q-192 0 -192 -103q0 -42 29.5 -60t88.5 -25l181 -22q83 -10 128 -48.5t45 -103.5q0 -85 -71 -126.5t-200 -41.5q-157 0 -269 73l29 46q58 -38 116 -53.5t140 -15.5q95 0 147.5 29.5t52.5 86.5q0 89 -131 103l-174 19q-167 18 -167 138
q0 76 69.5 115t177.5 39q79 0 137.5 -13.5t116.5 -50.5zM184 758l126 -78l126 78l24 -30l-150 -110l-150 110z" />
    <glyph glyph-name="scaron" unicode="&#x161;" horiz-adv-x="620" 
d="M554 502l-27 -42q-102 56 -227 56q-192 0 -192 -103q0 -42 29.5 -60t88.5 -25l181 -22q83 -10 128 -48.5t45 -103.5q0 -85 -71 -126.5t-200 -41.5q-157 0 -269 73l29 46q58 -38 116 -53.5t140 -15.5q95 0 147.5 29.5t52.5 86.5q0 89 -131 103l-174 19q-167 18 -167 138
q0 76 69.5 115t177.5 39q79 0 137.5 -13.5t116.5 -50.5zM184 758l126 -78l126 78l24 -30l-150 -110l-150 110z" />
    <glyph glyph-name="Tcommaaccent" unicode="&#x162;" horiz-adv-x="626" 
d="M30 553h566v-52h-255v-501h-56v501h-255v52zM313 -42q24 0 40.5 -16t16.5 -40q0 -9 -4 -21l-51 -129l-30 8l16 87q-20 4 -32 19t-12 36q0 24 16 40t40 16z" />
    <glyph glyph-name="tcommaaccent" unicode="&#x163;" horiz-adv-x="626" 
d="M30 553h566v-52h-255v-501h-56v501h-255v52zM313 -42q24 0 40.5 -16t16.5 -40q0 -9 -4 -21l-51 -129l-30 8l16 87q-20 4 -32 19t-12 36q0 24 16 40t40 16z" />
    <glyph glyph-name="Tcaron" unicode="&#x164;" horiz-adv-x="626" 
d="M30 553h566v-52h-255v-501h-56v501h-255v52zM187 758l126 -78l126 78l24 -30l-150 -110l-150 110z" />
    <glyph glyph-name="tcaron" unicode="&#x165;" horiz-adv-x="626" 
d="M30 553h566v-52h-255v-501h-56v501h-255v52zM187 758l126 -78l126 78l24 -30l-150 -110l-150 110z" />
    <glyph glyph-name="Tbar" unicode="&#x166;" horiz-adv-x="626" 
d="M30 553h566v-52h-255v-192h130v-51h-130v-258h-56v258h-130v51h130v192h-255v52z" />
    <glyph glyph-name="tbar" unicode="&#x167;" horiz-adv-x="626" 
d="M30 553h566v-52h-255v-192h130v-51h-130v-258h-56v258h-130v51h130v192h-255v52z" />
    <glyph glyph-name="Utilde" unicode="&#x168;" horiz-adv-x="664" 
d="M55 553h56v-284q0 -107 55 -169t166 -62q110 0 165.5 62t55.5 169v284h56v-283q0 -136 -74.5 -210t-202.5 -74q-129 0 -203 74t-74 210v283zM492 711l26 -32q-39 -50 -111 -50q-26 0 -70 19t-69 19q-58 0 -92 -43l-30 31q46 59 121 59q38 0 79 -18t62 -18q30 0 48 7
t36 26z" />
    <glyph glyph-name="utilde" unicode="&#x169;" horiz-adv-x="664" 
d="M55 553h56v-284q0 -107 55 -169t166 -62q110 0 165.5 62t55.5 169v284h56v-283q0 -136 -74.5 -210t-202.5 -74q-129 0 -203 74t-74 210v283zM492 711l26 -32q-39 -50 -111 -50q-26 0 -70 19t-69 19q-58 0 -92 -43l-30 31q46 59 121 59q38 0 79 -18t62 -18q30 0 48 7
t36 26z" />
    <glyph glyph-name="Umacron" unicode="&#x16a;" horiz-adv-x="664" 
d="M55 553h56v-284q0 -107 55 -169t166 -62q110 0 165.5 62t55.5 169v284h56v-283q0 -136 -74.5 -210t-202.5 -74q-129 0 -203 74t-74 210v283zM165 696h335v-50h-335v50z" />
    <glyph glyph-name="umacron" unicode="&#x16b;" horiz-adv-x="664" 
d="M55 553h56v-284q0 -107 55 -169t166 -62q110 0 165.5 62t55.5 169v284h56v-283q0 -136 -74.5 -210t-202.5 -74q-129 0 -203 74t-74 210v283zM165 696h335v-50h-335v50z" />
    <glyph glyph-name="Ubreve" unicode="&#x16c;" horiz-adv-x="664" 
d="M55 553h56v-284q0 -107 55 -169t166 -62q110 0 165.5 62t55.5 169v284h56v-283q0 -136 -74.5 -210t-202.5 -74q-129 0 -203 74t-74 210v283zM441 732l35 -26q-51 -80 -144 -80t-144 80l35 26q45 -59 109 -59t109 59z" />
    <glyph glyph-name="ubreve" unicode="&#x16d;" horiz-adv-x="664" 
d="M55 553h56v-284q0 -107 55 -169t166 -62q110 0 165.5 62t55.5 169v284h56v-283q0 -136 -74.5 -210t-202.5 -74q-129 0 -203 74t-74 210v283zM441 732l35 -26q-51 -80 -144 -80t-144 80l35 26q45 -59 109 -59t109 59z" />
    <glyph glyph-name="Uring" unicode="&#x16e;" horiz-adv-x="664" 
d="M55 553h56v-284q0 -107 55 -169t166 -62q110 0 165.5 62t55.5 169v284h56v-283q0 -136 -74.5 -210t-202.5 -74q-129 0 -203 74t-74 210v283zM463 726q0 -55 -38 -88t-93 -33t-93 33t-38 88t38 88t93 33t93 -33t38 -88zM252 726q0 -34 22.5 -55t57.5 -21t57.5 21t22.5 55
t-22.5 55t-57.5 21t-57.5 -21t-22.5 -55z" />
    <glyph glyph-name="uring" unicode="&#x16f;" horiz-adv-x="664" 
d="M55 553h56v-284q0 -107 55 -169t166 -62q110 0 165.5 62t55.5 169v284h56v-283q0 -136 -74.5 -210t-202.5 -74q-129 0 -203 74t-74 210v283zM463 726q0 -55 -38 -88t-93 -33t-93 33t-38 88t38 88t93 33t93 -33t38 -88zM252 726q0 -34 22.5 -55t57.5 -21t57.5 21t22.5 55
t-22.5 55t-57.5 21t-57.5 -21t-22.5 -55z" />
    <glyph glyph-name="Uhungarumlaut" unicode="&#x170;" horiz-adv-x="664" 
d="M55 553h56v-284q0 -107 55 -169t166 -62q110 0 165.5 62t55.5 169v284h56v-283q0 -136 -74.5 -210t-202.5 -74q-129 0 -203 74t-74 210v283zM242 630l44 188l52 -12l-50 -186zM343 630l53 188l52 -12l-59 -186z" />
    <glyph glyph-name="uhungarumlaut" unicode="&#x171;" horiz-adv-x="664" 
d="M55 553h56v-284q0 -107 55 -169t166 -62q110 0 165.5 62t55.5 169v284h56v-283q0 -136 -74.5 -210t-202.5 -74q-129 0 -203 74t-74 210v283zM256 630l44 188l52 -12l-50 -186zM357 630l53 188l52 -12l-59 -186z" />
    <glyph glyph-name="Uogonek" unicode="&#x172;" horiz-adv-x="664" 
d="M55 553h56v-284q0 -107 55 -169t166 -62q110 0 165.5 62t55.5 169v284h56v-283q0 -132 -70.5 -205.5t-193.5 -78.5q-13 -28 -13 -55q0 -36 14 -58t44 -41l-32 -26q-78 35 -78 108q0 45 21 73q-116 9 -181 82.5t-65 200.5v283z" />
    <glyph glyph-name="uogonek" unicode="&#x173;" horiz-adv-x="664" 
d="M55 553h56v-284q0 -107 55 -169t166 -62q110 0 165.5 62t55.5 169v284h56v-283q0 -132 -70.5 -205.5t-193.5 -78.5q-13 -28 -13 -55q0 -36 14 -58t44 -41l-32 -26q-78 35 -78 108q0 45 21 73q-116 9 -181 82.5t-65 200.5v283z" />
    <glyph glyph-name="Wcircumflex" unicode="&#x174;" horiz-adv-x="1005" 
d="M30 553h61l170 -499h37l151 499h102l158 -499h39l169 499h58l-192 -553h-114l-156 499h-25l-151 -499h-114zM628 608l-126 78l-126 -78l-24 30l150 110l150 -110z" />
    <glyph glyph-name="wcircumflex" unicode="&#x175;" horiz-adv-x="1005" 
d="M30 553h61l170 -499h37l151 499h102l158 -499h39l169 499h58l-192 -553h-114l-156 499h-25l-151 -499h-114zM628 608l-126 78l-126 -78l-24 30l150 110l150 -110z" />
    <glyph glyph-name="Ycircumflex" unicode="&#x176;" horiz-adv-x="656" 
d="M30 553h65l225 -350h19l222 350h65l-270 -415v-138h-56v138zM454 608l-126 78l-126 -78l-24 30l150 110l150 -110z" />
    <glyph glyph-name="ycircumflex" unicode="&#x177;" horiz-adv-x="656" 
d="M30 553h65l225 -350h19l222 350h65l-270 -415v-138h-56v138zM454 608l-126 78l-126 -78l-24 30l150 110l150 -110z" />
    <glyph glyph-name="Ydieresis" unicode="&#x178;" horiz-adv-x="656" 
d="M30 553h65l225 -350h19l222 350h65l-270 -415v-138h-56v138zM209 735q23 0 38.5 -15.5t15.5 -36.5t-15.5 -36.5t-38.5 -15.5q-22 0 -37.5 15.5t-15.5 36.5t15.5 36.5t37.5 15.5zM446 735q23 0 38.5 -15.5t15.5 -36.5t-15.5 -36.5t-38.5 -15.5q-22 0 -37.5 15.5
t-15.5 36.5t15.5 36.5t37.5 15.5z" />
    <glyph glyph-name="Zacute" unicode="&#x179;" horiz-adv-x="602" 
d="M54 553h491v-54l-435 -450l243 4h209v-53h-522v54l438 449l-219 -3h-205v53zM280 630l48 188l52 -12l-54 -186z" />
    <glyph glyph-name="zacute" unicode="&#x17a;" horiz-adv-x="602" 
d="M54 553h491v-54l-435 -450l243 4h209v-53h-522v54l438 449l-219 -3h-205v53zM280 630l48 188l52 -12l-54 -186z" />
    <glyph glyph-name="Zdotaccent" unicode="&#x17b;" horiz-adv-x="602" 
d="M54 553h491v-54l-435 -450l243 4h209v-53h-522v54l438 449l-219 -3h-205v53zM300 739q26 0 43.5 -17t17.5 -41t-17.5 -41.5t-43.5 -17.5q-25 0 -42 17.5t-17 41.5q0 23 17 40.5t42 17.5z" />
    <glyph glyph-name="zdotaccent" unicode="&#x17c;" horiz-adv-x="602" 
d="M54 553h491v-54l-435 -450l243 4h209v-53h-522v54l438 449l-219 -3h-205v53zM300 739q26 0 43.5 -17t17.5 -41t-17.5 -41.5t-43.5 -17.5q-25 0 -42 17.5t-17 41.5q0 23 17 40.5t42 17.5z" />
    <glyph glyph-name="Zcaron" unicode="&#x17d;" horiz-adv-x="602" 
d="M54 553h491v-54l-435 -450l243 4h209v-53h-522v54l438 449l-219 -3h-205v53zM175 758l126 -78l126 78l24 -30l-150 -110l-150 110z" />
    <glyph glyph-name="zcaron" unicode="&#x17e;" horiz-adv-x="602" 
d="M54 553h491v-54l-435 -450l243 4h209v-53h-522v54l438 449l-219 -3h-205v53zM175 758l126 -78l126 78l24 -30l-150 -110l-150 110z" />
    <glyph glyph-name="AEacute" unicode="&#x1fc;" horiz-adv-x="1107" 
d="M382 553h654v-51h-427v-192h384v-51h-384v-208h448v-51h-504v109h-402l-76 -109h-66zM409 502l-218 -338h362v338h-144zM565 630l48 188l52 -12l-54 -186z" />
    <glyph glyph-name="aeacute" unicode="&#x1fd;" horiz-adv-x="1107" 
d="M382 553h654v-51h-427v-192h384v-51h-384v-208h448v-51h-504v109h-402l-76 -109h-66zM409 502l-218 -338h362v338h-144zM565 630l48 188l52 -12l-54 -186z" />
    <glyph glyph-name="Oslashacute" unicode="&#x1fe;" 
d="M498 588l48 -27l-24 -41q62 -38 97 -101t35 -143q0 -130 -86.5 -210t-220.5 -80q-62 0 -119 19l-25 -45l-48 27l23 40q-65 37 -101.5 101.5t-36.5 147.5q0 130 86.5 210t220.5 80q66 0 126 -22zM205 73l241 424q-46 17 -99 17q-109 0 -179.5 -63.5t-71.5 -174.5
q0 -139 109 -203zM496 474l-241 -422q44 -14 92 -14q109 0 180 63.5t71 174.5q0 132 -102 198zM345 630l48 188l52 -12l-54 -186z" />
    <glyph glyph-name="oslashacute" unicode="&#x1ff;" 
d="M498 588l48 -27l-24 -41q62 -38 97 -101t35 -143q0 -130 -86.5 -210t-220.5 -80q-62 0 -119 19l-25 -45l-48 27l23 40q-65 37 -101.5 101.5t-36.5 147.5q0 130 86.5 210t220.5 80q66 0 126 -22zM205 73l241 424q-46 17 -99 17q-109 0 -179.5 -63.5t-71.5 -174.5
q0 -139 109 -203zM496 474l-241 -422q44 -14 92 -14q109 0 180 63.5t71 174.5q0 132 -102 198zM345 630l48 188l52 -12l-54 -186z" />
    <glyph glyph-name="uni0200" unicode="&#x200;" horiz-adv-x="727" 
d="M314 502l-151 -356h401l-148 356h-102zM282 553h170l235 -553h-58l-40 93h-448l-41 -93h-60zM391 818l44 -188l-46 -10l-50 186zM281 818l53 -188l-46 -10l-59 186z" />
    <glyph glyph-name="uni0201" unicode="&#x201;" horiz-adv-x="727" 
d="M314 502l-151 -356h401l-148 356h-102zM282 553h170l235 -553h-58l-40 93h-448l-41 -93h-60zM391 818l44 -188l-46 -10l-50 186zM281 818l53 -188l-46 -10l-59 186z" />
    <glyph glyph-name="uni0202" unicode="&#x202;" horiz-adv-x="727" 
d="M314 502l-151 -356h401l-148 356h-102zM282 553h170l235 -553h-58l-40 93h-448l-41 -93h-60zM489 608l-126 78l-126 -78l-24 30l150 110l150 -110z" />
    <glyph glyph-name="uni0203" unicode="&#x203;" horiz-adv-x="727" 
d="M314 502l-151 -356h401l-148 356h-102zM282 553h170l235 -553h-58l-40 93h-448l-41 -93h-60zM493 608l-126 78l-126 -78l-24 30l150 110l150 -110z" />
    <glyph glyph-name="uni0204" unicode="&#x204;" horiz-adv-x="607" 
d="M60 553h481v-51h-425v-192h382v-51h-382v-208h441v-51h-497v553zM342 818l44 -188l-46 -10l-50 186zM232 818l53 -188l-46 -10l-59 186z" />
    <glyph glyph-name="uni0205" unicode="&#x205;" horiz-adv-x="607" 
d="M60 553h481v-51h-425v-192h382v-51h-382v-208h441v-51h-497v553zM342 818l44 -188l-46 -10l-50 186zM232 818l53 -188l-46 -10l-59 186z" />
    <glyph glyph-name="uni0206" unicode="&#x206;" horiz-adv-x="607" 
d="M60 553h481v-51h-425v-192h382v-51h-382v-208h441v-51h-497v553zM429 608l-126 78l-126 -78l-24 30l150 110l150 -110z" />
    <glyph glyph-name="uni0207" unicode="&#x207;" horiz-adv-x="607" 
d="M60 553h481v-51h-425v-192h382v-51h-382v-208h441v-51h-497v553zM429 608l-126 78l-126 -78l-24 30l150 110l150 -110z" />
    <glyph glyph-name="uni0208" unicode="&#x208;" horiz-adv-x="176" 
d="M60 553h56v-553h-56v553zM120 818l44 -188l-46 -10l-50 186zM10 818l53 -188l-46 -10l-59 186z" />
    <glyph glyph-name="uni0209" unicode="&#x209;" horiz-adv-x="176" 
d="M60 553h56v-553h-56v553zM120 818l44 -188l-46 -10l-50 186zM10 818l53 -188l-46 -10l-59 186z" />
    <glyph glyph-name="uni020A" unicode="&#x20a;" horiz-adv-x="176" 
d="M60 553h56v-553h-56v553zM214 608l-126 78l-126 -78l-24 30l150 110l150 -110z" />
    <glyph glyph-name="uni020B" unicode="&#x20b;" horiz-adv-x="176" 
d="M60 553h56v-553h-56v553zM214 615l-126 78l-126 -78l-24 30l150 110l150 -110z" />
    <glyph glyph-name="uni020C" unicode="&#x20c;" 
d="M96 276q1 -111 71.5 -174.5t179.5 -63.5t180 63.5t71 174.5t-71 174.5t-180 63.5t-179.5 -63.5t-71.5 -174.5zM654 276q0 -130 -86.5 -210t-220.5 -80t-220.5 80t-86.5 210t86.5 210t220.5 80t220.5 -80t86.5 -210zM375 818l44 -188l-46 -10l-50 186zM265 818l53 -188
l-46 -10l-59 186z" />
    <glyph glyph-name="uni020D" unicode="&#x20d;" 
d="M96 276q1 -111 71.5 -174.5t179.5 -63.5t180 63.5t71 174.5t-71 174.5t-180 63.5t-179.5 -63.5t-71.5 -174.5zM654 276q0 -130 -86.5 -210t-220.5 -80t-220.5 80t-86.5 210t86.5 210t220.5 80t220.5 -80t86.5 -210zM375 818l44 -188l-46 -10l-50 186zM265 818l53 -188
l-46 -10l-59 186z" />
    <glyph glyph-name="uni020E" unicode="&#x20e;" 
d="M96 276q1 -111 71.5 -174.5t179.5 -63.5t180 63.5t71 174.5t-71 174.5t-180 63.5t-179.5 -63.5t-71.5 -174.5zM654 276q0 -130 -86.5 -210t-220.5 -80t-220.5 80t-86.5 210t86.5 210t220.5 80t220.5 -80t86.5 -210zM473 608l-126 78l-126 -78l-24 30l150 110l150 -110z
" />
    <glyph glyph-name="uni020F" unicode="&#x20f;" 
d="M96 276q1 -111 71.5 -174.5t179.5 -63.5t180 63.5t71 174.5t-71 174.5t-180 63.5t-179.5 -63.5t-71.5 -174.5zM654 276q0 -130 -86.5 -210t-220.5 -80t-220.5 80t-86.5 210t86.5 210t220.5 80t220.5 -80t86.5 -210zM473 608l-126 78l-126 -78l-24 30l150 110l150 -110z
" />
    <glyph glyph-name="uni0210" unicode="&#x210;" horiz-adv-x="641" 
d="M60 553h321q93 0 156.5 -57.5t63.5 -149.5q0 -69 -35 -118.5t-94 -71.5l89 -156h-62l-79 139h-304v-139h-56v553zM116 501v-310h265q74 0 119.5 42t45.5 113t-45.5 113t-119.5 42h-265zM332 818l44 -188l-46 -10l-50 186zM222 818l53 -188l-46 -10l-59 186z" />
    <glyph glyph-name="uni0211" unicode="&#x211;" horiz-adv-x="641" 
d="M60 553h321q93 0 156.5 -57.5t63.5 -149.5q0 -69 -35 -118.5t-94 -71.5l89 -156h-62l-79 139h-304v-139h-56v553zM116 501v-310h265q74 0 119.5 42t45.5 113t-45.5 113t-119.5 42h-265zM332 818l44 -188l-46 -10l-50 186zM222 818l53 -188l-46 -10l-59 186z" />
    <glyph glyph-name="uni0212" unicode="&#x212;" horiz-adv-x="641" 
d="M60 553h321q93 0 156.5 -57.5t63.5 -149.5q0 -69 -35 -118.5t-94 -71.5l89 -156h-62l-79 139h-304v-139h-56v553zM116 501v-310h265q74 0 119.5 42t45.5 113t-45.5 113t-119.5 42h-265zM430 608l-126 78l-126 -78l-24 30l150 110l150 -110z" />
    <glyph glyph-name="uni0213" unicode="&#x213;" horiz-adv-x="641" 
d="M60 553h321q93 0 156.5 -57.5t63.5 -149.5q0 -69 -35 -118.5t-94 -71.5l89 -156h-62l-79 139h-304v-139h-56v553zM116 501v-310h265q74 0 119.5 42t45.5 113t-45.5 113t-119.5 42h-265zM430 608l-126 78l-126 -78l-24 30l150 110l150 -110z" />
    <glyph glyph-name="uni0214" unicode="&#x214;" horiz-adv-x="664" 
d="M55 553h56v-284q0 -107 55 -169t166 -62q110 0 165.5 62t55.5 169v284h56v-283q0 -136 -74.5 -210t-202.5 -74q-129 0 -203 74t-74 210v283zM358 818l44 -188l-46 -10l-50 186zM248 818l53 -188l-46 -10l-59 186z" />
    <glyph glyph-name="uni0215" unicode="&#x215;" horiz-adv-x="664" 
d="M55 553h56v-284q0 -107 55 -169t166 -62q110 0 165.5 62t55.5 169v284h56v-283q0 -136 -74.5 -210t-202.5 -74q-129 0 -203 74t-74 210v283zM358 818l44 -188l-46 -10l-50 186zM248 818l53 -188l-46 -10l-59 186z" />
    <glyph glyph-name="uni0216" unicode="&#x216;" horiz-adv-x="664" 
d="M55 553h56v-284q0 -107 55 -169t166 -62q110 0 165.5 62t55.5 169v284h56v-283q0 -136 -74.5 -210t-202.5 -74q-129 0 -203 74t-74 210v283zM458 608l-126 78l-126 -78l-24 30l150 110l150 -110z" />
    <glyph glyph-name="uni0217" unicode="&#x217;" horiz-adv-x="664" 
d="M55 553h56v-284q0 -107 55 -169t166 -62q110 0 165.5 62t55.5 169v284h56v-283q0 -136 -74.5 -210t-202.5 -74q-129 0 -203 74t-74 210v283zM458 608l-126 78l-126 -78l-24 30l150 110l150 -110z" />
    <glyph glyph-name="Scommaaccent" unicode="&#x218;" horiz-adv-x="620" 
d="M554 502l-27 -42q-102 56 -227 56q-192 0 -192 -103q0 -42 29.5 -60t88.5 -25l181 -22q83 -10 128 -48.5t45 -103.5q0 -85 -71 -126.5t-200 -41.5q-157 0 -269 73l29 46q58 -38 116 -53.5t140 -15.5q95 0 147.5 29.5t52.5 86.5q0 89 -131 103l-174 19q-167 18 -167 138
q0 76 69.5 115t177.5 39q79 0 137.5 -13.5t116.5 -50.5zM310 -42q24 0 40.5 -16t16.5 -40q0 -9 -4 -21l-51 -129l-30 8l16 87q-20 4 -32 19t-12 36q0 24 16 40t40 16z" />
    <glyph glyph-name="scommaaccent" unicode="&#x219;" horiz-adv-x="620" 
d="M554 502l-27 -42q-102 56 -227 56q-192 0 -192 -103q0 -42 29.5 -60t88.5 -25l181 -22q83 -10 128 -48.5t45 -103.5q0 -85 -71 -126.5t-200 -41.5q-157 0 -269 73l29 46q58 -38 116 -53.5t140 -15.5q95 0 147.5 29.5t52.5 86.5q0 89 -131 103l-174 19q-167 18 -167 138
q0 76 69.5 115t177.5 39q79 0 137.5 -13.5t116.5 -50.5zM310 -42q24 0 40.5 -16t16.5 -40q0 -9 -4 -21l-51 -129l-30 8l16 87q-20 4 -32 19t-12 36q0 24 16 40t40 16z" />
    <glyph glyph-name="uni021A" unicode="&#x21a;" horiz-adv-x="626" 
d="M30 553h566v-52h-255v-501h-56v501h-255v52zM313 -42q24 0 40.5 -16t16.5 -40q0 -9 -4 -21l-51 -129l-30 8l16 87q-20 4 -32 19t-12 36q0 24 16 40t40 16z" />
    <glyph glyph-name="uni021B" unicode="&#x21b;" horiz-adv-x="626" 
d="M30 553h566v-52h-255v-501h-56v501h-255v52zM313 -42q24 0 40.5 -16t16.5 -40q0 -9 -4 -21l-51 -129l-30 8l16 87q-20 4 -32 19t-12 36q0 24 16 40t40 16z" />
    <glyph glyph-name="dotlessj" unicode="&#x237;" horiz-adv-x="597" 
d="M480 553h56v-322q0 -114 -61.5 -179.5t-193.5 -65.5q-167 0 -241 125l47 29q31 -51 82.5 -77t109.5 -26q112 0 156.5 51.5t44.5 153.5v311z" />
    <glyph glyph-name="circumflex" unicode="&#x2c6;" horiz-adv-x="350" 
d="M301 608l-126 78l-126 -78l-24 30l150 110l150 -110z" />
    <glyph glyph-name="caron" unicode="&#x2c7;" horiz-adv-x="350" 
d="M49 758l126 -78l126 78l24 -30l-150 -110l-150 110z" />
    <glyph glyph-name="breve" unicode="&#x2d8;" horiz-adv-x="380" 
d="M299 732l35 -26q-51 -80 -144 -80t-144 80l35 26q45 -59 109 -59t109 59z" />
    <glyph glyph-name="dotaccent" unicode="&#x2d9;" horiz-adv-x="220" 
d="M109 739q26 0 43.5 -17t17.5 -41t-17.5 -41.5t-43.5 -17.5q-25 0 -42 17.5t-17 41.5q0 23 17 40.5t42 17.5z" />
    <glyph glyph-name="ring" unicode="&#x2da;" horiz-adv-x="334" 
d="M298 726q0 -55 -38 -88t-93 -33t-93 33t-38 88t38 88t93 33t93 -33t38 -88zM87 726q0 -34 22.5 -55t57.5 -21t57.5 21t22.5 55t-22.5 55t-57.5 21t-57.5 -21t-22.5 -55z" />
    <glyph glyph-name="ogonek" unicode="&#x2db;" horiz-adv-x="380" 
d="M172 14l35 -3q-29 -40 -29 -80q0 -36 14 -58t44 -41l-32 -26q-78 35 -78 108q0 61 46 100z" />
    <glyph glyph-name="tilde" unicode="&#x2dc;" horiz-adv-x="401" 
d="M360 711l26 -32q-39 -50 -111 -50q-26 0 -70 19t-69 19q-58 0 -92 -43l-30 31q46 59 121 59q38 0 79 -18t62 -18q30 0 48 7t36 26z" />
    <glyph glyph-name="hungarumlaut" unicode="&#x2dd;" horiz-adv-x="288" 
d="M41 630l44 188l52 -12l-50 -186zM142 630l53 188l52 -12l-59 -186z" />
    <glyph glyph-name="uni0400" unicode="&#x400;" horiz-adv-x="607" 
d="M60 553h481v-51h-425v-192h382v-51h-382v-208h441v-51h-497v553zM290 818l48 -188l-46 -10l-54 186z" />
    <glyph glyph-name="afii10023" unicode="&#x401;" horiz-adv-x="607" 
d="M60 553h481v-51h-425v-192h382v-51h-382v-208h441v-51h-497v553zM184 735q23 0 38.5 -15.5t15.5 -36.5t-15.5 -36.5t-38.5 -15.5q-22 0 -37.5 15.5t-15.5 36.5t15.5 36.5t37.5 15.5zM421 735q23 0 38.5 -15.5t15.5 -36.5t-15.5 -36.5t-38.5 -15.5q-22 0 -37.5 15.5
t-15.5 36.5t15.5 36.5t37.5 15.5z" />
    <glyph glyph-name="afii10051" unicode="&#x402;" horiz-adv-x="788" 
d="M30 553h553v-51h-258v-123h173q125 0 187.5 -67t62.5 -186q0 -74 -28 -152t-78 -134l-40 30q44 55 67 123t23 129q0 113 -50.5 159.5t-172.5 46.5h-144v-328h-56v502h-239v51z" />
    <glyph glyph-name="afii10052" unicode="&#x403;" horiz-adv-x="581" 
d="M60 553h491v-52h-435v-501h-56v553zM292 630l48 188l52 -12l-54 -186z" />
    <glyph glyph-name="afii10053" unicode="&#x404;" horiz-adv-x="648" 
d="M397 308v-50h-299q7 -97 74.5 -158.5t170.5 -61.5q137 0 222 98l43 -28q-96 -122 -262 -122q-134 0 -220 79t-86 212q0 132 86.5 210.5t219.5 78.5q167 0 260 -121l-45 -26q-75 94 -218 94q-103 0 -168.5 -55.5t-75.5 -149.5h298z" />
    <glyph glyph-name="afii10054" unicode="&#x405;" horiz-adv-x="620" 
d="M554 502l-27 -42q-102 56 -227 56q-192 0 -192 -103q0 -42 29.5 -60t88.5 -25l181 -22q83 -10 128 -48.5t45 -103.5q0 -85 -71 -126.5t-200 -41.5q-157 0 -269 73l29 46q58 -38 116 -53.5t140 -15.5q95 0 147.5 29.5t52.5 86.5q0 89 -131 103l-174 19q-167 18 -167 138
q0 76 69.5 115t177.5 39q79 0 137.5 -13.5t116.5 -50.5z" />
    <glyph glyph-name="afii10055" unicode="&#x406;" horiz-adv-x="176" 
d="M60 553h56v-553h-56v553z" />
    <glyph glyph-name="afii10056" unicode="&#x407;" horiz-adv-x="176" 
d="M60 553h56v-553h-56v553zM-31 735q23 0 38.5 -15.5t15.5 -36.5t-15.5 -36.5t-38.5 -15.5q-22 0 -37.5 15.5t-15.5 36.5t15.5 36.5t37.5 15.5zM206 735q23 0 38.5 -15.5t15.5 -36.5t-15.5 -36.5t-38.5 -15.5q-22 0 -37.5 15.5t-15.5 36.5t15.5 36.5t37.5 15.5z" />
    <glyph glyph-name="afii10057" unicode="&#x408;" horiz-adv-x="597" 
d="M480 553h56v-322q0 -114 -61.5 -179.5t-193.5 -65.5q-167 0 -241 125l47 29q31 -51 82.5 -77t109.5 -26q112 0 156.5 51.5t44.5 153.5v311z" />
    <glyph glyph-name="afii10058" unicode="&#x409;" horiz-adv-x="1065" 
d="M226 553h382v-147h207q93 0 154 -55.5t61 -147.5t-61 -147.5t-154 -55.5h-263v501h-280l-69 -371q-12 -63 -52 -96.5t-100 -33.5h-36v57h29q89 0 103 78zM608 354v-302h202q74 0 118.5 40.5t44.5 110.5q0 71 -44 111t-119 40h-202z" />
    <glyph glyph-name="afii10059" unicode="&#x40a;" horiz-adv-x="1027" 
d="M60 553h56v-239h398v239h56v-147h207q93 0 154 -55.5t61 -147.5t-61 -147.5t-154 -55.5h-263v262h-398v-262h-56v553zM570 354v-302h202q74 0 118.5 40.5t44.5 110.5q0 71 -44 111t-119 40h-202z" />
    <glyph glyph-name="afii10060" unicode="&#x40b;" horiz-adv-x="788" 
d="M30 553h553v-52h-258v-122h173q125 0 187.5 -67t62.5 -186v-126h-56v126q0 109 -50.5 155.5t-164.5 46.5h-152v-328h-56v501h-239v52z" />
    <glyph glyph-name="afii10061" unicode="&#x40c;" horiz-adv-x="632" 
d="M60 553h56v-232h254l160 232h65l-174 -255l190 -298h-66l-173 270h-256v-270h-56v553zM282 620l48 188l52 -12l-54 -186z" />
    <glyph glyph-name="uni040D" unicode="&#x40d;" horiz-adv-x="683" 
d="M60 553h56v-484l446 484h61v-553h-56v481l-445 -481h-62v553zM299 818l48 -188l-46 -10l-54 186z" />
    <glyph glyph-name="afii10062" unicode="&#x40e;" horiz-adv-x="647" 
d="M30 553h58l92 -250q22 -61 91 -61h191l100 311h55l-145 -448q-15 -48 -53 -76.5t-90 -28.5h-134v51h127q77 0 98 60l28 79h-183q-48 0 -86.5 29t-55.5 77zM442 722l35 -26q-51 -80 -144 -80t-144 80l35 26q45 -59 109 -59t109 59z" />
    <glyph glyph-name="afii10145" unicode="&#x40f;" horiz-adv-x="650" 
d="M60 553h56v-501h418v501h56v-553h-230l-10 -123h-43l-9 123h-238v553z" />
    <glyph glyph-name="afii10017" unicode="&#x410;" horiz-adv-x="727" 
d="M314 502l-151 -356h401l-148 356h-102zM282 553h170l235 -553h-58l-40 93h-448l-41 -93h-60z" />
    <glyph glyph-name="afii10018" unicode="&#x411;" horiz-adv-x="627" 
d="M60 553h459v-52h-403v-155h290q79 0 132.5 -47.5t53.5 -122.5q0 -74 -54 -125t-132 -51h-346v553zM116 295v-243h280q70 0 105 34t35 90q0 55 -35.5 87t-105.5 32h-279z" />
    <glyph glyph-name="afii10019" unicode="&#x412;" horiz-adv-x="648" 
d="M60 553h347q74 0 119.5 -36.5t45.5 -96.5q0 -77 -55 -115q45 -16 70.5 -53.5t25.5 -85.5q0 -70 -50.5 -118t-135.5 -48h-367v553zM116 501v-182h308q45 0 69 25.5t24 63.5q0 93 -117 93h-284zM116 268v-216h307q66 0 100 32t34 80q0 49 -30 76.5t-81 27.5h-330z" />
    <glyph glyph-name="afii10020" unicode="&#x413;" horiz-adv-x="581" 
d="M60 553h491v-52h-435v-501h-56v553z" />
    <glyph glyph-name="afii10021" unicode="&#x414;" horiz-adv-x="724" 
d="M213 553h410v-501h71v-172h-45l-7 120h-559l-9 -120h-44v172h75zM257 502l-91 -450h401v450h-310z" />
    <glyph glyph-name="afii10022" unicode="&#x415;" horiz-adv-x="607" 
d="M60 553h481v-51h-425v-192h382v-51h-382v-208h441v-51h-497v553z" />
    <glyph glyph-name="afii10024" unicode="&#x416;" horiz-adv-x="899" 
d="M40 553h63l141 -236h178v236h55v-236h178l141 236h63l-154 -256l174 -297h-66l-154 266h-182v-266h-55v266h-182l-154 -266h-66l174 297z" />
    <glyph glyph-name="afii10025" unicode="&#x417;" horiz-adv-x="647" 
d="M215 328h198q49 0 77.5 20.5t28.5 61.5q0 105 -207 105q-124 0 -227 -60l-25 46q116 65 253 65q111 0 180 -32q81 -38 81 -119q0 -72 -67 -105q50 -11 77.5 -48.5t27.5 -87.5q0 -77 -68 -129q-79 -59 -238 -59q-158 0 -276 69l26 47q115 -64 257 -64q112 0 177.5 35.5
t65.5 100.5q0 103 -133 103h-208v51z" />
    <glyph glyph-name="afii10026" unicode="&#x418;" horiz-adv-x="683" 
d="M60 553h56v-484l446 484h61v-553h-56v481l-445 -481h-62v553z" />
    <glyph glyph-name="afii10027" unicode="&#x419;" horiz-adv-x="683" 
d="M60 553h56v-484l446 484h61v-553h-56v481l-445 -481h-62v553zM450 712l35 -26q-51 -80 -144 -80t-144 80l35 26q45 -59 109 -59t109 59z" />
    <glyph glyph-name="afii10028" unicode="&#x41a;" horiz-adv-x="632" 
d="M60 553h56v-232h254l160 232h65l-174 -255l190 -298h-66l-173 270h-256v-270h-56v553z" />
    <glyph glyph-name="afii10029" unicode="&#x41b;" horiz-adv-x="704" 
d="M226 553h418v-553h-56v501h-316l-69 -371q-12 -63 -52 -96.5t-100 -33.5h-36v57h29q89 0 103 78z" />
    <glyph glyph-name="afii10030" unicode="&#x41c;" horiz-adv-x="853" 
d="M60 553h112l257 -499h6l247 499h111v-553h-56v505h-20l-254 -505h-64l-264 505h-20v-505h-55v553z" />
    <glyph glyph-name="afii10031" unicode="&#x41d;" horiz-adv-x="670" 
d="M60 553h56v-239h438v239h56v-553h-56v262h-438v-262h-56v553z" />
    <glyph glyph-name="afii10032" unicode="&#x41e;" 
d="M96 276q1 -111 71.5 -174.5t179.5 -63.5t180 63.5t71 174.5t-71 174.5t-180 63.5t-179.5 -63.5t-71.5 -174.5zM654 276q0 -130 -86.5 -210t-220.5 -80t-220.5 80t-86.5 210t86.5 210t220.5 80t220.5 -80t86.5 -210z" />
    <glyph glyph-name="afii10033" unicode="&#x41f;" horiz-adv-x="650" 
d="M60 553h530v-553h-55v501h-419v-501h-56v553z" />
    <glyph glyph-name="afii10034" unicode="&#x420;" horiz-adv-x="636" 
d="M60 553h321q93 0 156.5 -57.5t63.5 -149.5q0 -93 -63.5 -150t-156.5 -57h-265v-139h-56v553zM116 501v-310h265q74 0 119.5 42t45.5 113t-45.5 113t-119.5 42h-265z" />
    <glyph glyph-name="afii10035" unicode="&#x421;" horiz-adv-x="643" 
d="M606 445l-46 -28q-74 96 -219 96q-111 0 -177.5 -64.5t-66.5 -171.5q0 -104 68 -171.5t176 -67.5q138 0 220 99l47 -29q-96 -122 -264 -122q-134 0 -219 79t-85 212q0 132 85.5 210.5t218.5 78.5q171 0 262 -121z" />
    <glyph glyph-name="afii10036" unicode="&#x422;" horiz-adv-x="626" 
d="M30 553h566v-52h-255v-501h-56v501h-255v52z" />
    <glyph glyph-name="afii10037" unicode="&#x423;" horiz-adv-x="647" 
d="M30 553h58l92 -250q22 -61 91 -61h191l100 311h55l-145 -448q-15 -48 -53 -76.5t-90 -28.5h-134v51h127q77 0 98 60l28 79h-183q-48 0 -86.5 29t-55.5 77z" />
    <glyph glyph-name="afii10038" unicode="&#x424;" horiz-adv-x="863" 
d="M404 485v68h55v-68h149q93 0 154 -58t61 -151q0 -92 -61 -148.5t-154 -56.5h-149v-71h-55v71h-149q-93 0 -154 56.5t-61 148.5q0 93 61 151t154 58h149zM459 434v-312h144q73 0 118.5 41.5t45.5 113.5q0 74 -44 115.5t-120 41.5h-144zM404 434h-144q-76 0 -120 -41.5
t-44 -115.5q0 -72 45.5 -113.5t118.5 -41.5h144v312z" />
    <glyph glyph-name="afii10039" unicode="&#x425;" horiz-adv-x="647" 
d="M54 553h67l167 -241h70l171 241h64l-189 -261l213 -292h-68l-186 258h-78l-189 -258h-66l213 289z" />
    <glyph glyph-name="afii10040" unicode="&#x426;" horiz-adv-x="673" 
d="M60 553h56v-501h415v501h56v-501h66v-172h-44l-9 120h-540v553z" />
    <glyph glyph-name="afii10041" unicode="&#x427;" horiz-adv-x="635" 
d="M50 553h56v-194q0 -83 43.5 -126t125.5 -43h244v363h56v-553h-56v138h-266q-91 0 -147 57.5t-56 151.5v206z" />
    <glyph glyph-name="afii10042" unicode="&#x428;" horiz-adv-x="901" 
d="M60 553h55v-501h308v501h55v-501h308v501h55v-553h-781v553z" />
    <glyph glyph-name="afii10043" unicode="&#x429;" horiz-adv-x="927" 
d="M854 0h-794v553h55v-501h308v501h55v-501h308v501h55v-501h66v-172h-44z" />
    <glyph glyph-name="afii10044" unicode="&#x42a;" horiz-adv-x="725" 
d="M25 553h203v-147h247q93 0 154 -55.5t61 -147.5t-61 -147.5t-154 -55.5h-303v499l-147 6v48zM228 354v-302h242q74 0 118.5 40.5t44.5 110.5q0 71 -44 111t-119 40h-242z" />
    <glyph glyph-name="afii10045" unicode="&#x42b;" horiz-adv-x="779" 
d="M663 553h56v-553h-56v553zM60 553h56v-147h247q93 0 154 -55.5t61 -147.5t-61 -147.5t-154 -55.5h-303v553zM116 354v-302h242q74 0 118.5 40.5t44.5 110.5q0 71 -44 111t-119 40h-242z" />
    <glyph glyph-name="afii10046" unicode="&#x42c;" horiz-adv-x="613" 
d="M60 553h56v-147h247q93 0 154 -55.5t61 -147.5t-61 -147.5t-154 -55.5h-303v553zM116 354v-302h242q74 0 118.5 40.5t44.5 110.5q0 71 -44 111t-119 40h-242z" />
    <glyph glyph-name="afii10047" unicode="&#x42d;" horiz-adv-x="648" 
d="M251 308h298q-10 94 -75.5 149.5t-168.5 55.5q-142 0 -218 -95l-45 27q93 121 260 121q133 0 219.5 -78.5t86.5 -210.5q0 -133 -86 -212t-220 -79q-167 0 -263 122l46 29q86 -99 220 -99q103 0 170.5 61.5t74.5 158.5h-299v50z" />
    <glyph glyph-name="afii10048" unicode="&#x42e;" horiz-adv-x="886" 
d="M60 553h53v-234h139q13 121 94.5 184t201.5 63q131 0 214.5 -74.5t83.5 -215.5t-83.5 -215.5t-214.5 -74.5q-128 0 -211 71t-87 208h-137v-265h-53v553zM305 276q0 -109 63 -173.5t180 -64.5t180 64.5t63 173.5t-63 173.5t-180 64.5t-180 -64.5t-63 -173.5z" />
    <glyph glyph-name="afii10049" unicode="&#x42f;" horiz-adv-x="641" 
d="M581 553v-553h-56v144h-310l-83 -144h-63l89 159q-118 53 -118 185q0 93 61 151t154 58h326zM525 501h-264q-74 0 -119 -43t-45 -114t44 -109.5t120 -38.5h264v305z" />
    <glyph glyph-name="afii10065" unicode="&#x430;" horiz-adv-x="727" 
d="M314 502l-151 -356h401l-148 356h-102zM282 553h170l235 -553h-58l-40 93h-448l-41 -93h-60z" />
    <glyph glyph-name="afii10066" unicode="&#x431;" horiz-adv-x="627" 
d="M60 553h459v-52h-403v-155h290q79 0 132.5 -47.5t53.5 -122.5q0 -74 -54 -125t-132 -51h-346v553zM116 295v-243h280q70 0 105 34t35 90q0 55 -35.5 87t-105.5 32h-279z" />
    <glyph glyph-name="afii10067" unicode="&#x432;" horiz-adv-x="648" 
d="M60 553h347q74 0 119.5 -36.5t45.5 -96.5q0 -77 -55 -115q45 -16 70.5 -53.5t25.5 -85.5q0 -70 -50.5 -118t-135.5 -48h-367v553zM116 501v-182h308q45 0 69 25.5t24 63.5q0 93 -117 93h-284zM116 268v-216h307q66 0 100 32t34 80q0 49 -30 76.5t-81 27.5h-330z" />
    <glyph glyph-name="afii10068" unicode="&#x433;" horiz-adv-x="581" 
d="M60 553h491v-52h-435v-501h-56v553z" />
    <glyph glyph-name="afii10069" unicode="&#x434;" horiz-adv-x="724" 
d="M213 553h410v-501h71v-172h-45l-7 120h-559l-9 -120h-44v172h75zM257 502l-91 -450h401v450h-310z" />
    <glyph glyph-name="afii10070" unicode="&#x435;" horiz-adv-x="607" 
d="M60 553h481v-51h-425v-192h382v-51h-382v-208h441v-51h-497v553z" />
    <glyph glyph-name="afii10072" unicode="&#x436;" horiz-adv-x="899" 
d="M40 553h63l141 -236h178v236h55v-236h178l141 236h63l-154 -256l174 -297h-66l-154 266h-182v-266h-55v266h-182l-154 -266h-66l174 297z" />
    <glyph glyph-name="afii10073" unicode="&#x437;" horiz-adv-x="647" 
d="M215 328h198q49 0 77.5 20.5t28.5 61.5q0 105 -207 105q-124 0 -227 -60l-25 46q116 65 253 65q111 0 180 -32q81 -38 81 -119q0 -72 -67 -105q50 -11 77.5 -48.5t27.5 -87.5q0 -77 -68 -129q-79 -59 -238 -59q-158 0 -276 69l26 47q115 -64 257 -64q112 0 177.5 35.5
t65.5 100.5q0 103 -133 103h-208v51z" />
    <glyph glyph-name="afii10074" unicode="&#x438;" horiz-adv-x="683" 
d="M60 553h56v-484l446 484h61v-553h-56v481l-445 -481h-62v553z" />
    <glyph glyph-name="afii10075" unicode="&#x439;" horiz-adv-x="683" 
d="M60 553h56v-484l446 484h61v-553h-56v481l-445 -481h-62v553zM450 712l35 -26q-51 -80 -144 -80t-144 80l35 26q45 -59 109 -59t109 59z" />
    <glyph glyph-name="afii10076" unicode="&#x43a;" horiz-adv-x="632" 
d="M60 553h56v-232h254l160 232h65l-174 -255l190 -298h-66l-173 270h-256v-270h-56v553z" />
    <glyph glyph-name="afii10077" unicode="&#x43b;" horiz-adv-x="704" 
d="M226 553h418v-553h-56v501h-316l-69 -371q-12 -63 -52 -96.5t-100 -33.5h-36v57h29q89 0 103 78z" />
    <glyph glyph-name="afii10078" unicode="&#x43c;" horiz-adv-x="853" 
d="M60 553h112l257 -499h6l247 499h111v-553h-56v505h-20l-254 -505h-64l-264 505h-20v-505h-55v553z" />
    <glyph glyph-name="afii10079" unicode="&#x43d;" horiz-adv-x="670" 
d="M60 553h56v-239h438v239h56v-553h-56v262h-438v-262h-56v553z" />
    <glyph glyph-name="afii10080" unicode="&#x43e;" 
d="M96 276q1 -111 71.5 -174.5t179.5 -63.5t180 63.5t71 174.5t-71 174.5t-180 63.5t-179.5 -63.5t-71.5 -174.5zM654 276q0 -130 -86.5 -210t-220.5 -80t-220.5 80t-86.5 210t86.5 210t220.5 80t220.5 -80t86.5 -210z" />
    <glyph glyph-name="afii10081" unicode="&#x43f;" horiz-adv-x="650" 
d="M60 553h530v-553h-55v501h-419v-501h-56v553z" />
    <glyph glyph-name="afii10082" unicode="&#x440;" horiz-adv-x="636" 
d="M60 553h321q93 0 156.5 -57.5t63.5 -149.5q0 -93 -63.5 -150t-156.5 -57h-265v-139h-56v553zM116 501v-310h265q74 0 119.5 42t45.5 113t-45.5 113t-119.5 42h-265z" />
    <glyph glyph-name="afii10083" unicode="&#x441;" horiz-adv-x="643" 
d="M606 445l-46 -28q-74 96 -219 96q-111 0 -177.5 -64.5t-66.5 -171.5q0 -104 68 -171.5t176 -67.5q138 0 220 99l47 -29q-96 -122 -264 -122q-134 0 -219 79t-85 212q0 132 85.5 210.5t218.5 78.5q171 0 262 -121z" />
    <glyph glyph-name="afii10084" unicode="&#x442;" horiz-adv-x="626" 
d="M30 553h566v-52h-255v-501h-56v501h-255v52z" />
    <glyph glyph-name="afii10085" unicode="&#x443;" horiz-adv-x="647" 
d="M30 553h58l92 -250q22 -61 91 -61h191l100 311h55l-145 -448q-15 -48 -53 -76.5t-90 -28.5h-134v51h127q77 0 98 60l28 79h-183q-48 0 -86.5 29t-55.5 77z" />
    <glyph glyph-name="afii10086" unicode="&#x444;" horiz-adv-x="863" 
d="M404 485v68h55v-68h149q93 0 154 -58t61 -151q0 -92 -61 -148.5t-154 -56.5h-149v-71h-55v71h-149q-93 0 -154 56.5t-61 148.5q0 93 61 151t154 58h149zM459 434v-312h144q73 0 118.5 41.5t45.5 113.5q0 74 -44 115.5t-120 41.5h-144zM404 434h-144q-76 0 -120 -41.5
t-44 -115.5q0 -72 45.5 -113.5t118.5 -41.5h144v312z" />
    <glyph glyph-name="afii10087" unicode="&#x445;" horiz-adv-x="647" 
d="M54 553h67l167 -241h70l171 241h64l-189 -261l213 -292h-68l-186 258h-78l-189 -258h-66l213 289z" />
    <glyph glyph-name="afii10088" unicode="&#x446;" horiz-adv-x="673" 
d="M60 553h56v-501h415v501h56v-501h66v-172h-44l-9 120h-540v553z" />
    <glyph glyph-name="afii10089" unicode="&#x447;" horiz-adv-x="635" 
d="M50 553h56v-194q0 -83 43.5 -126t125.5 -43h244v363h56v-553h-56v138h-266q-91 0 -147 57.5t-56 151.5v206z" />
    <glyph glyph-name="afii10090" unicode="&#x448;" horiz-adv-x="901" 
d="M60 553h55v-501h308v501h55v-501h308v501h55v-553h-781v553z" />
    <glyph glyph-name="afii10091" unicode="&#x449;" horiz-adv-x="927" 
d="M854 0h-794v553h55v-501h308v501h55v-501h308v501h55v-501h66v-172h-44z" />
    <glyph glyph-name="afii10092" unicode="&#x44a;" horiz-adv-x="725" 
d="M25 553h203v-147h247q93 0 154 -55.5t61 -147.5t-61 -147.5t-154 -55.5h-303v499l-147 6v48zM228 354v-302h242q74 0 118.5 40.5t44.5 110.5q0 71 -44 111t-119 40h-242z" />
    <glyph glyph-name="afii10093" unicode="&#x44b;" horiz-adv-x="779" 
d="M663 553h56v-553h-56v553zM60 553h56v-147h247q93 0 154 -55.5t61 -147.5t-61 -147.5t-154 -55.5h-303v553zM116 354v-302h242q74 0 118.5 40.5t44.5 110.5q0 71 -44 111t-119 40h-242z" />
    <glyph glyph-name="afii10094" unicode="&#x44c;" horiz-adv-x="613" 
d="M60 553h56v-147h247q93 0 154 -55.5t61 -147.5t-61 -147.5t-154 -55.5h-303v553zM116 354v-302h242q74 0 118.5 40.5t44.5 110.5q0 71 -44 111t-119 40h-242z" />
    <glyph glyph-name="afii10095" unicode="&#x44d;" horiz-adv-x="648" 
d="M251 308h298q-10 94 -75.5 149.5t-168.5 55.5q-142 0 -218 -95l-45 27q93 121 260 121q133 0 219.5 -78.5t86.5 -210.5q0 -133 -86 -212t-220 -79q-167 0 -263 122l46 29q86 -99 220 -99q103 0 170.5 61.5t74.5 158.5h-299v50z" />
    <glyph glyph-name="afii10096" unicode="&#x44e;" horiz-adv-x="886" 
d="M60 553h53v-234h139q13 121 94.5 184t201.5 63q131 0 214.5 -74.5t83.5 -215.5t-83.5 -215.5t-214.5 -74.5q-128 0 -211 71t-87 208h-137v-265h-53v553zM305 276q0 -109 63 -173.5t180 -64.5t180 64.5t63 173.5t-63 173.5t-180 64.5t-180 -64.5t-63 -173.5z" />
    <glyph glyph-name="afii10097" unicode="&#x44f;" horiz-adv-x="641" 
d="M581 553v-553h-56v144h-310l-83 -144h-63l89 159q-118 53 -118 185q0 93 61 151t154 58h326zM525 501h-264q-74 0 -119 -43t-45 -114t44 -109.5t120 -38.5h264v305z" />
    <glyph glyph-name="uni0450" unicode="&#x450;" horiz-adv-x="607" 
d="M60 553h481v-51h-425v-192h382v-51h-382v-208h441v-51h-497v553zM290 818l48 -188l-46 -10l-54 186z" />
    <glyph glyph-name="afii10071" unicode="&#x451;" horiz-adv-x="607" 
d="M60 553h481v-51h-425v-192h382v-51h-382v-208h441v-51h-497v553zM184 735q23 0 38.5 -15.5t15.5 -36.5t-15.5 -36.5t-38.5 -15.5q-22 0 -37.5 15.5t-15.5 36.5t15.5 36.5t37.5 15.5zM421 735q23 0 38.5 -15.5t15.5 -36.5t-15.5 -36.5t-38.5 -15.5q-22 0 -37.5 15.5
t-15.5 36.5t15.5 36.5t37.5 15.5z" />
    <glyph glyph-name="afii10099" unicode="&#x452;" horiz-adv-x="788" 
d="M30 553h553v-51h-258v-123h173q125 0 187.5 -67t62.5 -186q0 -74 -28 -152t-78 -134l-40 30q44 55 67 123t23 129q0 113 -50.5 159.5t-172.5 46.5h-144v-328h-56v502h-239v51z" />
    <glyph glyph-name="afii10100" unicode="&#x453;" horiz-adv-x="581" 
d="M60 553h491v-52h-435v-501h-56v553zM292 630l48 188l52 -12l-54 -186z" />
    <glyph glyph-name="afii10101" unicode="&#x454;" horiz-adv-x="648" 
d="M397 308v-50h-299q7 -97 74.5 -158.5t170.5 -61.5q137 0 222 98l43 -28q-96 -122 -262 -122q-134 0 -220 79t-86 212q0 132 86.5 210.5t219.5 78.5q167 0 260 -121l-45 -26q-75 94 -218 94q-103 0 -168.5 -55.5t-75.5 -149.5h298z" />
    <glyph glyph-name="afii10102" unicode="&#x455;" horiz-adv-x="620" 
d="M554 502l-27 -42q-102 56 -227 56q-192 0 -192 -103q0 -42 29.5 -60t88.5 -25l181 -22q83 -10 128 -48.5t45 -103.5q0 -85 -71 -126.5t-200 -41.5q-157 0 -269 73l29 46q58 -38 116 -53.5t140 -15.5q95 0 147.5 29.5t52.5 86.5q0 89 -131 103l-174 19q-167 18 -167 138
q0 76 69.5 115t177.5 39q79 0 137.5 -13.5t116.5 -50.5z" />
    <glyph glyph-name="afii10103" unicode="&#x456;" horiz-adv-x="176" 
d="M60 553h56v-553h-56v553z" />
    <glyph glyph-name="afii10104" unicode="&#x457;" horiz-adv-x="176" 
d="M60 553h56v-553h-56v553zM-31 735q23 0 38.5 -15.5t15.5 -36.5t-15.5 -36.5t-38.5 -15.5q-22 0 -37.5 15.5t-15.5 36.5t15.5 36.5t37.5 15.5zM206 735q23 0 38.5 -15.5t15.5 -36.5t-15.5 -36.5t-38.5 -15.5q-22 0 -37.5 15.5t-15.5 36.5t15.5 36.5t37.5 15.5z" />
    <glyph glyph-name="afii10105" unicode="&#x458;" horiz-adv-x="597" 
d="M480 553h56v-322q0 -114 -61.5 -179.5t-193.5 -65.5q-167 0 -241 125l47 29q31 -51 82.5 -77t109.5 -26q112 0 156.5 51.5t44.5 153.5v311z" />
    <glyph glyph-name="afii10106" unicode="&#x459;" horiz-adv-x="1065" 
d="M226 553h382v-147h207q93 0 154 -55.5t61 -147.5t-61 -147.5t-154 -55.5h-263v501h-280l-69 -371q-12 -63 -52 -96.5t-100 -33.5h-36v57h29q89 0 103 78zM608 354v-302h202q74 0 118.5 40.5t44.5 110.5q0 71 -44 111t-119 40h-202z" />
    <glyph glyph-name="afii10107" unicode="&#x45a;" horiz-adv-x="1027" 
d="M60 553h56v-239h398v239h56v-147h207q93 0 154 -55.5t61 -147.5t-61 -147.5t-154 -55.5h-263v262h-398v-262h-56v553zM570 354v-302h202q74 0 118.5 40.5t44.5 110.5q0 71 -44 111t-119 40h-202z" />
    <glyph glyph-name="afii10108" unicode="&#x45b;" horiz-adv-x="788" 
d="M30 553h553v-52h-258v-122h173q125 0 187.5 -67t62.5 -186v-126h-56v126q0 109 -50.5 155.5t-164.5 46.5h-152v-328h-56v501h-239v52z" />
    <glyph glyph-name="afii10109" unicode="&#x45c;" horiz-adv-x="632" 
d="M60 553h56v-232h254l160 232h65l-174 -255l190 -298h-66l-173 270h-256v-270h-56v553zM282 620l48 188l52 -12l-54 -186z" />
    <glyph glyph-name="uni045D" unicode="&#x45d;" horiz-adv-x="683" 
d="M60 553h56v-484l446 484h61v-553h-56v481l-445 -481h-62v553zM299 818l48 -188l-46 -10l-54 186z" />
    <glyph glyph-name="afii10110" unicode="&#x45e;" horiz-adv-x="647" 
d="M30 553h58l92 -250q22 -61 91 -61h191l100 311h55l-145 -448q-15 -48 -53 -76.5t-90 -28.5h-134v51h127q77 0 98 60l28 79h-183q-48 0 -86.5 29t-55.5 77zM442 722l35 -26q-51 -80 -144 -80t-144 80l35 26q45 -59 109 -59t109 59z" />
    <glyph glyph-name="afii10193" unicode="&#x45f;" horiz-adv-x="650" 
d="M60 553h56v-501h418v501h56v-553h-230l-10 -123h-43l-9 123h-238v553z" />
    <glyph glyph-name="afii10147" unicode="&#x472;" 
d="M40 276q0 130 86.5 210t220.5 80t220.5 -80t86.5 -210t-86.5 -210t-220.5 -80t-220.5 80t-86.5 210zM97 249q10 -99 79 -155t171 -56q109 0 179.5 63t71.5 172q-55 -45 -147 -45q-41 0 -121.5 30.5t-114.5 30.5q-66 0 -118 -40zM97 301q51 34 126 34q50 0 121.5 -29
t107.5 -29q84 0 142 45q-15 90 -82.5 141t-164.5 51q-102 0 -171.5 -56.5t-78.5 -156.5z" />
    <glyph glyph-name="afii10195" unicode="&#x473;" 
d="M40 276q0 130 86.5 210t220.5 80t220.5 -80t86.5 -210t-86.5 -210t-220.5 -80t-220.5 80t-86.5 210zM97 249q10 -99 79 -155t171 -56q109 0 179.5 63t71.5 172q-55 -45 -147 -45q-41 0 -121.5 30.5t-114.5 30.5q-66 0 -118 -40zM97 301q51 34 126 34q50 0 121.5 -29
t107.5 -29q84 0 142 45q-15 90 -82.5 141t-164.5 51q-102 0 -171.5 -56.5t-78.5 -156.5z" />
    <glyph glyph-name="afii10050" unicode="&#x490;" horiz-adv-x="586" 
d="M60 553h438l12 124h41v-176h-435v-501h-56v553z" />
    <glyph glyph-name="afii10098" unicode="&#x491;" horiz-adv-x="586" 
d="M60 553h438l12 124h41v-176h-435v-501h-56v553z" />
    <glyph glyph-name="uni04D8" unicode="&#x4d8;" horiz-adv-x="688" 
d="M40 315h549q-11 93 -80.5 146t-169.5 53q-131 0 -201 -76l-37 41q91 87 238 87q133 0 221 -77.5t88 -212.5q0 -130 -84 -210t-220 -80q-133 0 -218.5 78t-85.5 212v39zM592 263h-496q5 -101 72.5 -163t175.5 -62q107 0 172.5 57t75.5 168z" />
    <glyph glyph-name="afii10846" unicode="&#x4d9;" horiz-adv-x="688" 
d="M40 315h549q-11 93 -80.5 146t-169.5 53q-131 0 -201 -76l-37 41q91 87 238 87q133 0 221 -77.5t88 -212.5q0 -130 -84 -210t-220 -80q-133 0 -218.5 78t-85.5 212v39zM592 263h-496q5 -101 72.5 -163t175.5 -62q107 0 172.5 57t75.5 168z" />
    <glyph glyph-name="Wgrave" unicode="&#x1e80;" horiz-adv-x="1005" 
d="M30 553h61l170 -499h37l151 499h102l158 -499h39l169 499h58l-192 -553h-114l-156 499h-25l-151 -499h-114zM476 818l48 -188l-46 -10l-54 186z" />
    <glyph glyph-name="wgrave" unicode="&#x1e81;" horiz-adv-x="1005" 
d="M30 553h61l170 -499h37l151 499h102l158 -499h39l169 499h58l-192 -553h-114l-156 499h-25l-151 -499h-114zM476 818l48 -188l-46 -10l-54 186z" />
    <glyph glyph-name="Wacute" unicode="&#x1e82;" horiz-adv-x="1005" 
d="M30 553h61l170 -499h37l151 499h102l158 -499h39l169 499h58l-192 -553h-114l-156 499h-25l-151 -499h-114zM479 630l48 188l52 -12l-54 -186z" />
    <glyph glyph-name="wacute" unicode="&#x1e83;" horiz-adv-x="1005" 
d="M30 553h61l170 -499h37l151 499h102l158 -499h39l169 499h58l-192 -553h-114l-156 499h-25l-151 -499h-114zM479 630l48 188l52 -12l-54 -186z" />
    <glyph glyph-name="Wdieresis" unicode="&#x1e84;" horiz-adv-x="1005" 
d="M30 553h61l170 -499h37l151 499h102l158 -499h39l169 499h58l-192 -553h-114l-156 499h-25l-151 -499h-114zM383 735q23 0 38.5 -15.5t15.5 -36.5t-15.5 -36.5t-38.5 -15.5q-22 0 -37.5 15.5t-15.5 36.5t15.5 36.5t37.5 15.5zM620 735q23 0 38.5 -15.5t15.5 -36.5
t-15.5 -36.5t-38.5 -15.5q-22 0 -37.5 15.5t-15.5 36.5t15.5 36.5t37.5 15.5z" />
    <glyph glyph-name="wdieresis" unicode="&#x1e85;" horiz-adv-x="1005" 
d="M30 553h61l170 -499h37l151 499h102l158 -499h39l169 499h58l-192 -553h-114l-156 499h-25l-151 -499h-114zM383 735q23 0 38.5 -15.5t15.5 -36.5t-15.5 -36.5t-38.5 -15.5q-22 0 -37.5 15.5t-15.5 36.5t15.5 36.5t37.5 15.5zM620 735q23 0 38.5 -15.5t15.5 -36.5
t-15.5 -36.5t-38.5 -15.5q-22 0 -37.5 15.5t-15.5 36.5t15.5 36.5t37.5 15.5z" />
    <glyph glyph-name="Ygrave" unicode="&#x1ef2;" horiz-adv-x="656" 
d="M30 553h65l225 -350h19l222 350h65l-270 -415v-138h-56v138zM312 818l48 -188l-46 -10l-54 186z" />
    <glyph glyph-name="ygrave" unicode="&#x1ef3;" horiz-adv-x="656" 
d="M30 553h65l225 -350h19l222 350h65l-270 -415v-138h-56v138zM312 818l48 -188l-46 -10l-54 186z" />
    <glyph glyph-name="endash" unicode="&#x2013;" horiz-adv-x="495" 
d="M40 309h415v-51h-415v51z" />
    <glyph glyph-name="emdash" unicode="&#x2014;" horiz-adv-x="575" 
d="M40 309h495v-51h-495v51z" />
    <glyph glyph-name="quoteleft" unicode="&#x2018;" horiz-adv-x="194" 
d="M125 598l-16 -87q20 -4 32 -19t12 -36q0 -24 -16 -40t-40 -16t-40.5 16t-16.5 40q0 9 4 21l51 129z" />
    <glyph glyph-name="quoteright" unicode="&#x2019;" horiz-adv-x="194" 
d="M68 395l16 87q-20 4 -32 19t-12 36q0 24 16 40t40 16t40.5 -16t16.5 -40q0 -9 -4 -21l-51 -129z" />
    <glyph glyph-name="quotesinglbase" unicode="&#x201a;" horiz-adv-x="193" 
d="M68 -96l16 87q-20 4 -32 19t-12 36q0 24 16 40t40 16t40.5 -16t16.5 -40q0 -9 -4 -21l-51 -129z" />
    <glyph glyph-name="quotedblleft" unicode="&#x201c;" horiz-adv-x="321" 
d="M255 582l-12 -75q20 -4 32 -19t12 -36q0 -24 -16 -40t-40 -16t-40.5 16t-16.5 40q0 9 4 21l47 117zM120 594l-16 -87q20 -4 32 -19t12 -36q0 -24 -16 -40t-40 -16t-40.5 16t-16.5 40q0 9 4 21l51 129z" />
    <glyph glyph-name="quotedblright" unicode="&#x201d;" horiz-adv-x="322" 
d="M67 396l12 75q-20 4 -32 19t-12 36q0 24 16 40t40 16t40.5 -16t16.5 -40q0 -9 -4 -21l-47 -117zM202 384l16 87q-20 4 -32 19t-12 36q0 24 16 40t40 16t40.5 -16t16.5 -40q0 -9 -4 -21l-51 -129z" />
    <glyph glyph-name="quotedblbase" unicode="&#x201e;" horiz-adv-x="322" 
d="M67 -84l12 75q-20 4 -32 19t-12 36q0 24 16 40t40 16t40.5 -16t16.5 -40q0 -9 -4 -21l-47 -117zM202 -96l16 87q-20 4 -32 19t-12 36q0 24 16 40t40 16t40.5 -16t16.5 -40q0 -9 -4 -21l-51 -129z" />
    <glyph glyph-name="bullet" unicode="&#x2022;" horiz-adv-x="229" 
d="M115 375q31 0 52.5 -21.5t21.5 -53.5q0 -31 -21 -52t-53 -21t-53.5 21t-21.5 52q0 32 22 53.5t53 21.5z" />
    <glyph glyph-name="ellipsis" unicode="&#x2026;" horiz-adv-x="562" 
d="M97 103q24 0 40.5 -16.5t16.5 -40.5t-16.5 -40t-40.5 -16t-40.5 16t-16.5 40t16.5 40.5t40.5 16.5zM281 103q24 0 40.5 -16.5t16.5 -40.5t-16.5 -40t-40.5 -16t-40.5 16t-16.5 40t16.5 40.5t40.5 16.5zM465 103q24 0 40.5 -16.5t16.5 -40.5t-16.5 -40t-40.5 -16t-40.5 16
t-16.5 40t16.5 40.5t40.5 16.5z" />
    <glyph glyph-name="perthousand" unicode="&#x2030;" horiz-adv-x="1042" 
d="M498 554l47 -21l-320 -556l-47 21zM533 -7q-61 0 -103.5 38.5t-42.5 99.5t42.5 99.5t103.5 38.5q63 0 105 -38t42 -100t-42 -100t-105 -38zM533 40q42 0 67.5 25t25.5 66t-25.5 66t-67.5 25t-68 -25t-26 -66q0 -40 26.5 -65.5t67.5 -25.5zM176 260q-61 0 -103.5 38.5
t-42.5 99.5t42.5 99.5t103.5 38.5q63 0 105 -38t42 -100t-42 -100t-105 -38zM176 307q42 0 67.5 25t25.5 66t-25.5 66t-67.5 25t-68 -25t-26 -66q0 -40 26.5 -65.5t67.5 -25.5zM865 -7q-61 0 -103.5 38.5t-42.5 99.5t42.5 99.5t103.5 38.5q63 0 105 -38t42 -100t-42 -100
t-105 -38zM865 40q42 0 67.5 25t25.5 66t-25.5 66t-67.5 25t-68 -25t-26 -66q0 -40 26.5 -65.5t67.5 -25.5z" />
    <glyph glyph-name="guilsinglleft" unicode="&#x2039;" horiz-adv-x="240" 
d="M183 433l31 -30l-115 -134l115 -134l-31 -30l-162 164z" />
    <glyph glyph-name="guilsinglright" unicode="&#x203a;" horiz-adv-x="240" 
d="M57 433l162 -164l-162 -164l-31 30l115 134l-115 134z" />
    <glyph glyph-name="Euro" unicode="&#x20ac;" horiz-adv-x="643" 
d="M0 359h49q25 97 105 152t190 55q171 0 262 -121l-46 -28q-74 96 -219 96q-88 0 -149 -41t-84 -113h302v-51h-410v51zM0 249h410v-51h-301q23 -74 84.5 -117t147.5 -43q138 0 220 99l47 -29q-96 -122 -264 -122q-112 0 -191.5 56.5t-103.5 155.5h-49v51z" />
    <glyph glyph-name="afii61352" unicode="&#x2116;" horiz-adv-x="986" 
d="M60 553h70l437 -488v488h55v-553h-71l-436 490v-490h-55v553zM816 202q-59 0 -99.5 36.5t-40.5 95.5t40.5 95.5t99.5 36.5q60 0 100 -36.5t40 -95.5t-40 -95.5t-100 -36.5zM816 248q40 0 63.5 23.5t23.5 62.5t-23.5 62.5t-63.5 23.5t-64.5 -23.5t-24.5 -62.5t24.5 -62.5
t64.5 -23.5zM696 149h240v-48h-240v48z" />
    <glyph glyph-name="trademark" unicode="&#x2122;" horiz-adv-x="651" 
d="M20 553h316l98 -195l97 195h70v-266h-49v205l-100 -205h-38l-100 205v-205h-49v224h-92v-224h-50v224h-103v42z" />
    <glyph glyph-name="minus" unicode="&#x2212;" horiz-adv-x="395" 
d="M40 309h315v-51h-315v51z" />
    <glyph glyph-name="percent" horiz-adv-x="710" 
d="M498 554l47 -21l-320 -556l-47 21zM533 -7q-61 0 -103.5 38.5t-42.5 99.5t42.5 99.5t103.5 38.5q63 0 105 -38t42 -100t-42 -100t-105 -38zM533 40q42 0 67.5 25t25.5 66t-25.5 66t-67.5 25t-68 -25t-26 -66q0 -40 26.5 -65.5t67.5 -25.5zM176 260q-61 0 -103.5 38.5
t-42.5 99.5t42.5 99.5t103.5 38.5q63 0 105 -38t42 -100t-42 -100t-105 -38zM176 307q42 0 67.5 25t25.5 66t-25.5 66t-67.5 25t-68 -25t-26 -66q0 -40 26.5 -65.5t67.5 -25.5z" />
    <glyph glyph-name="cyrbreve" horiz-adv-x="380" 
d="M299 732l35 -26q-51 -80 -144 -80t-144 80l35 26q45 -59 109 -59t109 59z" />
    <glyph glyph-name="commaaccent" horiz-adv-x="193" 
d="M96 -42q24 0 40.5 -16t16.5 -40q0 -9 -4 -21l-51 -129l-30 8l16 87q-20 4 -32 19t-12 36q0 24 16 40t40 16z" />
    <glyph glyph-name="dblgrave" horiz-adv-x="288" 
d="M203 818l44 -188l-46 -10l-50 186zM93 818l53 -188l-46 -10l-59 186z" />
    <glyph glyph-name="Imacron" horiz-adv-x="176" 
d="M60 553h56v-553h-56v553zM-79 696h335v-50h-335v50z" />
    <glyph glyph-name="ibreve" horiz-adv-x="176" 
d="M60 553h56v-553h-56v553zM197 732l35 -26q-51 -80 -144 -80t-144 80l35 26q45 -59 109 -59t109 59z" />
    </font>
</defs>
</svg>
